<?xml version="1.0" encoding="UTF-8"?>
<!DOCTYPE svg PUBLIC "-//W3C//DTD SVG 1.1//EN" "http://www.w3.org/Graphics/SVG/1.1/DTD/svg11.dtd">
<!-- Creator: CorelDRAW 2020 (64-Bit) -->
<svg xmlns="http://www.w3.org/2000/svg" xml:space="preserve" width="176.389mm" height="176.389mm" version="1.1" style="shape-rendering:geometricPrecision; text-rendering:geometricPrecision; image-rendering:optimizeQuality; fill-rule:evenodd; clip-rule:evenodd"
viewBox="0 0 17638.9 17638.9"
 xmlns:xlink="http://www.w3.org/1999/xlink"
 xmlns:xodm="http://www.corel.com/coreldraw/odm/2003">
 <defs>
  <style type="text/css">
   <![CDATA[
    .fil0 {fill:#FEFEFE}
   ]]>
  </style>
 </defs>
 <g id="Слой_x0020_1">
  <metadata id="CorelCorpID_0Corel-Layer"/>
  <g id="_1560603531312">
   <path class="fil0" d="M7619.48 16728.8c243.23,20.24 413.03,70.55 705.55,70.55l917.22 0c255.48,0 353.32,-35.27 599.73,-35.27 36.86,76.82 68,202.96 70.55,317.5 -679.42,0 -1375.39,178.51 -2293.05,-35.28l0 -317.5zm811.5 -16721.66l708.72 0c953.92,36.24 1900.09,219.14 2763.41,549.41 534.44,204.45 960.45,405.34 1451.37,700.58 485.13,291.77 1105.25,737.16 1505.79,1140.05 96.5,97.07 167.77,167.84 264.55,264.61 1619.96,1619.94 2461.29,3721.99 2513.54,5876.84l0 436.52c-42.01,1672.42 -557.54,3359.17 -1552.09,4861 -511.16,771.87 -1365.69,1618.16 -2131.62,2172.27 -337.77,244.36 -969.7,638.42 -1350.82,801.13 -1609.6,687.17 -2367.52,836.47 -4137.69,836.47 -2414.77,0 -4836.19,-1314.07 -6394.13,-3060.3 -87.55,-98.13 -136.3,-199.09 -217.63,-311.54 -717.9,-992.6 -1259.81,-1889.89 -1572.74,-3154.48 -223.17,-901.82 -272.91,-1266.4 -282.16,-1826.6l0 -960.41c0,-1146.24 467.25,-2558.55 858.42,-3339.63 127.81,-255.21 229.97,-449.22 365.16,-693.18 169.01,-304.99 430.84,-661.06 650.77,-936.72 77.35,-96.97 150.99,-202.43 233.83,-295.34 168.38,-188.87 314.82,-350.49 493.55,-529.5 107.07,-107.24 151.4,-156.53 276.15,-253.02 280.79,-217.16 466.52,-429.2 882.63,-704.87 538.56,-356.79 735,-474.78 1318.97,-762.42 1005.32,-495.2 2170.35,-765.76 3352.02,-810.87zm1904.88 16651.1c509.03,-11.34 1581.45,-457.63 2116.67,-740.83 28.21,121.1 88.13,217.37 141.11,317.5 -470.27,248.84 -1289.2,532.26 -1806.28,663.2 -465.46,117.87 -355.65,171.53 -451.5,-239.87zm-5291.66 -776.11c428.61,226.8 1590.55,740.83 2081.39,740.83 -9.7,116.54 -45.9,211.66 -70.56,317.5 -478.08,-10.65 -1655.29,-513.31 -2151.94,-776.11 37.34,-139.84 103.77,-142.38 141.11,-282.22zm8043.33 70.56c-57.62,-108.9 -110.61,-183.99 -176.39,-282.22 503.84,-337.39 881.75,-581.18 1314.1,-1014.24 136.25,-136.47 261.25,-294.24 414.51,-396.87 131.62,69.64 164.42,88.42 246.94,211.66 -150.72,225.09 -612.5,622.4 -822.14,800.63 -143.06,121.62 -306.28,235.57 -462.68,348.71 -160.52,116.13 -348.16,244.39 -514.34,332.33zm-10371.66 -1481.67c77.27,-115.4 139.78,-109.84 176.39,-246.94 151.55,101.49 263.41,245.35 396.86,379.24 312.74,313.77 946.2,827.86 1331.75,1031.87l-142.25 281.64c-427.96,-226.48 -1514.32,-1074.81 -1762.75,-1445.81zm-1552.22 -2398.89c83.92,-40.26 216.46,-82.29 317.5,-105.83 39.02,81.34 64.42,164.59 105.3,247.47 43.43,88.02 81.25,160.64 129.87,258.19 94.12,188.83 167.97,322.69 273.6,502.51 258.71,440.4 399.09,566.76 620.11,896.83 -132.21,35.3 -183.86,110.53 -282.22,176.39 -235.66,-351.92 -346.5,-443.38 -633.4,-918.82l-472.53 -903.31c-30.39,-64.24 -37.83,-107.75 -58.23,-153.43zm14075.82 2010.84c-50.45,-33.79 -94.75,-59.98 -146.39,-100.56 -62.69,-49.25 -68.67,-66.14 -135.83,-111.11 240.2,-358.71 484.22,-588.48 764.25,-1140.75 84.69,-167.02 347.08,-588.47 364.64,-799.53 140.94,32.84 238.46,93.39 388.05,105.84 -203.98,425.13 -268.37,619.31 -544.43,1078.34 -109.74,182.47 -194.29,324.63 -317.06,494.33 -76.93,106.34 -297.76,418.15 -373.23,473.44zm-14710.82 -4727.22c187.83,0 197.33,-31.82 352.77,-35.28 0,367.42 66.29,842.18 133.68,1136.32 70.99,309.82 166.14,782.18 289.66,1015.62 -84.35,44.63 -251.45,117.5 -352.78,141.11 -12.08,-145.12 -102.16,-385.73 -145.6,-524.68 -139.47,-446.15 -277.73,-1242.65 -277.73,-1733.09zm16157.21 2187.22c-112.81,-59.69 -248.16,-108.52 -388.05,-141.11 105.11,-219.08 231.29,-750.24 277.63,-1027.65 35.32,-211.52 54.33,-354.78 85.99,-584.28 24.17,-175.17 17.87,-430.97 59.71,-610.57l388.05 0c0,613.26 -123.29,1255.6 -274.83,1806.56 -29.02,105.52 -46.05,192.45 -73.55,279.22 -33.23,104.85 -64.77,155.47 -74.95,277.83zm-15310.55 -2610.56c0,-2746.72 1421.93,-5076.2 3661.81,-6427.63 198.37,-119.69 403.82,-208.62 606.79,-310.43 1647.29,-826.26 3863.36,-938.76 5639.43,-277.19 911.48,339.52 1525.99,722.99 2283.35,1314.99 454.04,354.9 643.65,671.53 887.65,911.51 522.1,513.53 1077.41,1608.04 1318.81,2279.52 690.77,1921.43 500.63,3751.14 -266.31,5598.82 -90.57,218.19 -200.85,401.06 -317.53,599.69 -120.2,204.62 -225.6,365.79 -358.76,558.47 -1626.61,2353.66 -4838.36,3659.91 -7691.18,2935.14 -271.57,-68.99 -469.95,-121.07 -714.88,-202.35 -607.7,-201.66 -1329.56,-546.32 -1833.92,-917.74 -1208,-889.58 -1849.74,-1618.01 -2545.51,-3028.38 -358.06,-725.82 -669.75,-1946.94 -669.75,-3034.42zm-493.89 -105.83c-103.43,-58.11 -208.2,-35.28 -388.05,-35.28 0,-428.95 37.42,-857.29 95.17,-1210.11l222.33 -1082.94c193.02,16.06 215.99,91.51 388.05,105.83 -36.61,157.17 -95.55,344.73 -134.37,500.63 -44.23,177.65 -74.47,365.96 -102.61,532.39 -69.56,411.45 -80.52,713.51 -80.52,1189.48zm15451.66 -2398.89c119.05,-57.12 269.01,-83.99 388.06,-141.11 242.17,504.71 388.05,1808.37 388.05,2363.61 -153.49,3.42 -192.43,35.28 -388.05,35.28l-44.73 -590.27c-104,-815.7 -319.23,-1479.62 -343.33,-1667.51zm-14957.77 -282.22c-140.94,-32.83 -238.45,-93.38 -388.05,-105.83 38.48,-165.18 144.71,-413.88 212.06,-564.05l535.54 -1016.68c82.67,-128.75 275.27,-367.86 310.73,-500.66 108.18,28.88 295.16,168.3 352.78,246.94 -98.08,146.47 -200.72,271.77 -302.64,438.2 -99.04,161.71 -189.13,299.24 -274.09,466.74 -107.8,212.55 -427.45,808.46 -446.33,1035.34zm13581.94 -2222.5c116.18,-77.8 240.23,-207.47 388.06,-246.94 294.74,440.16 1122.45,1580.08 1164.16,2081.38 -139.25,32.45 -248.8,108.67 -388.05,141.12 -87.38,-375.05 -723.92,-1400.23 -977.37,-1739.03 -68.19,-91.16 -133.73,-157.27 -186.8,-236.53zm-12206.1 -141.11l-310.16 -289.7c155.67,-243.73 798.54,-847.97 1026.11,-1040.45l730.43 -539.57c62.96,94.02 184.17,270.01 211.67,388.05 -498.26,263.65 -1380.91,1067.8 -1658.05,1481.67zm10336.38 -2046.11c385.82,89.89 1659.15,1202.48 1869.72,1516.94l-309.14 325.86c-109.92,-160.02 -253.84,-271.47 -387.6,-405.23 -73,-73.01 -120.43,-122.59 -193.33,-194.72 -186.38,-184.42 -985.38,-799.8 -1191.32,-854.79 72.35,-136.72 139.33,-251.34 211.67,-388.06zm-8255 282.22c-88.51,-132.17 -136.22,-245.48 -211.66,-388.05l1052.93 -499.3c347.99,-140.09 767.9,-289.07 1169.57,-382.65 9.24,111.13 67.75,379.26 105.83,458.61 -488.64,0 -1685.65,583.33 -2116.67,811.39zm5503.33 -1375.83c112.31,53.89 436.35,109.3 592.76,148.08 526.42,130.54 1167.24,389.18 1665.02,628.03 -40.63,174.41 -139.18,248.72 -176.39,388.06 -127.18,-10.59 -1432.7,-642.77 -2187.22,-705.56 9.25,-111.13 67.76,-379.26 105.83,-458.61zm-1552.22 317.5c-459.48,0 -1132.27,105.83 -1305.27,105.83 -43.25,-519.64 -252.45,-423.06 385.03,-496.91 1345.97,-155.93 1127.04,3.02 1943.3,3.02 -15.31,687.06 -3.72,388.06 -1023.06,388.06z"/>
   <path class="fil0" d="M5679.2 11613.52l-564.44 0 0 1763.89 2257.77 0c0,-321.82 750.21,-5560.11 826.28,-6052.89 40.01,-259.17 126.22,-648.41 126.22,-896.83 267.48,-62.31 456.67,-35.28 776.11,-35.28l0 -1763.88 -2434.16 0c0,348.25 -441.14,3164.29 -491.93,3529.74l-495.85 3455.25z"/>
   <polygon class="fil0" points="9348.09,11331.3 11288.36,11331.3 11288.36,4628.53 9348.09,4628.53 "/>
   <path class="fil0" d="M7619.48 13377.41l4586.1 0 0 -1763.89 -4339.16 0c-59.91,257.17 -83.13,572.21 -125.84,861.94l-121.1 901.95z"/>
  </g>
 </g>
</svg>
