<?xml version="1.0" encoding="UTF-8"?>
<!DOCTYPE svg PUBLIC "-//W3C//DTD SVG 1.1//EN" "http://www.w3.org/Graphics/SVG/1.1/DTD/svg11.dtd">
<!-- Creator: CorelDRAW 2020 (64-Bit) -->
<svg xmlns="http://www.w3.org/2000/svg" xml:space="preserve" width="297mm" height="210mm" version="1.1" style="shape-rendering:geometricPrecision; text-rendering:geometricPrecision; image-rendering:optimizeQuality; fill-rule:evenodd; clip-rule:evenodd"
viewBox="0 0 29700 21000"
 xmlns:xlink="http://www.w3.org/1999/xlink"
 xmlns:xodm="http://www.corel.com/coreldraw/odm/2003">
 <defs>
  <style type="text/css">
   <![CDATA[
    .str0 {stroke:#FEFEFE;stroke-width:150;stroke-miterlimit:22.9256}
    .fil0 {fill:#FEFEFE}
    .fil1 {fill:#2B2A29}
    .fil2 {fill:white}
   ]]>
  </style>
 </defs>
 <g id="Слой_x0020_1">
  <metadata id="CorelCorpID_0Corel-Layer"/>
  <g id="_2686850664528">
   <g>
    <path class="fil0 str0" d="M13823.94 14072.09c-15.27,15.34 -22.5,-7.02 -33.83,-11.47 -45.93,-18.03 -81.28,-53.9 -126.04,-74.08 -15.77,-7.09 -30.94,-15.52 -41.42,-32 -10.3,-16.16 -30.62,-27.69 -17.36,-50.87 12.67,-22.19 32.14,-34.18 58.25,-34.29 31.01,0.46 57.32,15.45 64.2,43.5 10.2,41.38 37.86,67.45 64.49,95.92 8.04,8.57 16.09,17.6 22.01,27.62 6.39,10.83 23.22,22.05 9.7,35.67z"/>
    <path class="fil0 str0" d="M15798.9 13477.16c-6.31,8.93 -16.4,10.23 -26.46,9.67 -5.82,-0.35 -11.57,-1.94 -20.95,-3.63 -25.54,2.82 -54.68,6.66 -83.93,9.03 -13.62,1.13 -28.57,1.37 -35.35,-14.64 -6.21,-14.75 0.6,-27.87 9.92,-37.82 16.93,-18.13 33.72,-35.14 46.28,-57.72 12.24,-21.94 34.08,-15.13 49.32,1.77 18.24,20.18 35.35,41.45 52.21,62.83 6.84,8.61 18.38,17.18 8.96,30.51z"/>
    <path class="fil0 str0" d="M16097.42 13542.71c-15.2,9.17 -28.64,19.86 -42.79,30.09 -14.85,10.76 -36.09,14.71 -50.24,2.15 -20.42,-18.13 -44.02,-24.44 -68.82,-30.55 -10.23,-2.5 -17.29,-10.05 -17.89,-21.02 -0.6,-11.12 7.55,-17.47 15.66,-23.29 22.83,-16.33 49.25,-11.67 74.69,-12.66 29.91,-0.39 59.51,1.76 86.64,15.87 21.84,11.4 23.78,26.74 2.75,39.41z"/>
    <path class="fil0 str0" d="M24697.1 10388.38c0.56,-43.46 -5.79,-87.88 29.95,-122.98 4.72,-4.65 5.32,-14.71 5.68,-22.36l0.05 -1.14 0.06 -1.13 0.05 -1.14 0.05 -0.81 0.01 -0.32 0.07 -1.13 0.07 -1.13 0.07 -1.13 0.03 -0.49 0.04 -0.64 0.08 -1.13 0.08 -1.12 0.09 -1.13 0.01 -0.17 0.07 -0.95 0.09 -1.12 0.1 -1.12c1.61,-18.69 4.55,-36.83 8.61,-54.58 12.15,-52.94 35.09,-101.67 67.73,-145.9l1.4 -1.9 0.39 -0.51 1.8 -2.4 0.29 -0.38 1.54 -2.01 0.97 -1.25 0.88 -1.13 1.67 -2.12 0.2 -0.25 1.88 -2.36 0.5 -0.62 2.57 -3.16 0.05 -0.06 0.71 -0.86 1.94 -2.34 1.14 -1.39 0.32 -0.39 0.79 -0.99 0.61 -0.79 0.46 -0.61 0.88 -1.18 0.16 -0.21 1 -1.4 0.13 -0.18 0.84 -1.22 0.4 -0.58 0.54 -0.82 0.64 -0.98 0.27 -0.43 0.86 -1.38 0.01 -0.03 0.85 -1.41 0.21 -0.37 0.6 -1.04 0.43 -0.78 0.35 -0.64 0.63 -1.18 0.12 -0.24 0.72 -1.42 0.09 -0.16 0.61 -1.26 0.27 -0.56 0.39 -0.86 0.44 -0.97 0.2 -0.46 0.59 -1.38 0.02 -0.05 0.58 -1.43 0.14 -0.35 0.42 -1.09 0.28 -0.75 0.25 -0.68 0.41 -1.17 0.09 -0.27 0.48 -1.44 0.04 -0.13 0.41 -1.31 0.17 -0.54 0.26 -0.9 0.27 -0.95 0.13 -0.49c0.66,-2.41 1.21,-4.83 1.68,-7.25l0.27 -1.45c2.78,-15.5 2.02,-31.19 0.21,-46.75 27.94,12.93 62.98,48.22 80.75,-13.53 -9.89,-67.47 -59,-6.07 -85.6,-18.6 -7.42,-26.99 -36.75,-34.78 -64.21,-39.49l-0.63 -0.11 -0.3 -0.05 -0.33 -0.06 -0.64 -0.1 -0.46 -0.08 -0.17 -0.03 -0.63 -0.11 -0.63 -0.1c-22.4,-3.67 -37.53,-18 -37.18,-39.87l0.03 -2.64 0 -0.32 0 -2.32 0 -0.62 -0.02 -2.01 -0.02 -0.93 -0.07 -2.92 -0.04 -1.37 -0.06 -1.54 -0.05 -1.06 -0.09 -1.85 -0.04 -0.74 -0.13 -2.15 -0.02 -0.43 -0.18 -2.45 0 -0.12 -0.21 -2.57 -0.02 -0.18 -0.21 -2.37 -0.05 -0.49 -0.21 -2.06 -0.08 -0.78 -0.2 -1.76 -0.13 -1.08 -0.18 -1.45 -0.17 -1.38 -0.16 -1.15 -0.35 -2.51 -0.29 -1.97 -0.08 -0.54 -0.36 -2.26 -0.04 -0.24 -0.43 -2.5 0 -0.05 -0.44 -2.43 -0.06 -0.35 -0.41 -2.13 -0.12 -0.64 -0.37 -1.83c-7.02,-34.56 -20.46,-67.04 -37.29,-98.64 5.85,-11.99 10.09,-27.47 4.13,-57.96 -6.19,1.36 -11.77,0.74 -17.05,-0.87 -0.82,-25.59 -10.16,-48.27 -22.21,-69.67l-0.11 -0.18 -0.91 -1.6 -0.03 -0.07c-1.21,-2.12 -2.45,-4.21 -3.71,-6.31l-0.6 -1 -0.36 -0.58 -1.93 -3.16 -0.97 -1.57 -0.07 -0.12 -0.91 -1.45 -0.22 -0.35 -0.77 -1.21 -0.36 -0.58 -0.62 -0.98 -0.52 -0.82 -0.48 -0.74 -0.66 -1.04 -0.33 -0.52 -0.81 -1.27 -0.19 -0.28 -0.96 -1.5 -0.04 -0.05 -1 -1.55 -0.11 -0.17 -0.89 -1.37 -0.26 -0.4 -0.75 -1.14 -0.41 -0.63 -0.59 -0.91 -0.56 -0.86 -0.44 -0.68 -0.71 -1.09 -0.29 -0.45 -0.86 -1.31 -0.14 -0.23 -1 -1.53c-33.9,-52.21 -74.08,-98.56 -147.92,-86.18l-0.58 0.09 -0.13 0.02 -0.45 0.07 -0.26 0.04 -0.32 0.05 -0.39 0.05 -0.19 0.02 -0.53 0.07 -0.06 0 -0.58 0.07 -0.07 0.01 -0.52 0.05 -0.2 0.02 -0.39 0.03 -0.33 0.03 -0.26 0.02 -0.47 0.04 -0.12 0 -0.59 0.04 -0.01 0 -0.58 0.04 -0.15 0 -0.45 0.02 -0.27 0.02 -0.32 0.01 -0.41 0.01 -0.19 0.01 -0.54 0.01 -0.05 0 -0.6 0.01 -0.08 0 -0.52 0 -0.6 0 -0.35 0 -0.25 0 -0.49 -0.01 -0.11 0 -0.08 0 -1.12 -0.03 -0.16 0 -0.74 -0.03 -0.31 -0.02 -1.81 -0.1 -0.11 0 -0.5 -0.04 -0.24 -0.01c-6.97,-0.53 -14.08,-1.76 -21.04,-3.08l-0.06 0.01 -8.58 -1.7c-33.27,-6.6 -50.77,-27.7 -40.18,-58.71 10.76,-31.57 9.49,-62.54 8.92,-93.83 -1.09,-61.56 40.61,-102.98 67.88,-151.17l3.88 -6.74c7.9,-14.96 24.62,-18.27 39.75,-23.56 50.31,-17.57 102.13,-13.09 153.43,-9.92 21.13,1.31 41.13,0.71 56.16,-12.48 7.8,-6.88 15.17,-14.01 22.19,-21.28l2.61 -2.71c7.06,-7.48 13.51,-15.31 19.33,-23.5l0.88 -1.3c12.07,-17.29 21.03,-36.48 25.33,-58.67l0 0c1.73,-8.78 2.97,-17.85 3.14,-27.62 1.12,-69 -44.79,-82.45 -86.55,-64.53 -25.92,-0.91 -52.09,12.12 -75.3,25.47l-0.38 0.22c-14.73,-1.55 -29.25,-7.4 -44.49,-16.62 -23.64,-14.29 -52.57,-19.72 -73.81,-6.38 -35.7,22.4 -58.27,2.04 -85.54,-13.09 -29.14,-16.2 -41.84,-46.71 -63.33,-69.43 -16.72,-17.71 -5.15,-47.17 19.19,-58.77 47.66,-22.69 94.9,-46.15 148.77,-52.74 48.22,-5.93 79.94,-32.42 86.18,-83.29l0.13 -1.06 0.01 -0.06 0.12 -0.99 0.02 -0.13 0.12 -0.93 0.02 -0.19 0.12 -0.86 0.03 -0.26 0.11 -0.8 0.04 -0.32 0.1 -0.74 0.05 -0.38c2.85,-20.27 7.52,-40.4 19.35,-56.61 53.48,-9.95 111.26,-24.94 177.13,-49.74 7.83,60.4 -12.1,63.75 -17.75,96.27 12.17,-1.79 16.16,23.04 26.39,27.49 32.56,4.83 36.72,-48.33 27.69,-128.7 27.63,-22.96 90.6,26.57 94.65,-44.59 -14.07,-101.03 -48.79,-37.82 -74.75,-20.78 -4.02,-37.46 -8.71,-72.67 -28.54,-58.38 -30.8,7.55 -56.58,25.57 -68.33,72.14 -20.32,11.04 -29.74,-13.69 -38.88,-39.33 5.24,-7.61 10.29,-15.34 15.86,-22.7l0.29 -0.37 0.28 -0.37 0.29 -0.38 0.28 -0.37 0.29 -0.37c40.96,-52.7 35.13,-116.17 33.37,-174.59 -2.19,-72.49 -37.75,-134.86 -93.63,-184.78l-0.8 -0.72 -0.22 -0.19 -0.58 -0.53 -0.43 -0.39 -0.36 -0.34 -0.64 -0.59 -0.15 -0.15c-15.74,-14.74 -29.06,-32.41 -41.3,-50.61l6.74 -6.31c-10.23,-18.28 -19.41,-25.65 -28.12,-27.13l-0.81 -1.46 -0.18 -0.34 -0.6 -1.09 -0.44 -0.82 -0.31 -0.58 -0.67 -1.28 -0.05 -0.09 -0.69 -1.35 -0.19 -0.37 -0.47 -0.96 -1.23 -2.54 -0.01 -0.04c-11.02,-23.62 -6.75,-35.32 14.54,-57.27l-0.03 0c4.28,-4.4 9.22,-9.2 14.88,-14.61 17.11,-16.33 31.68,-35.84 50.45,-49.74 17.18,-12.7 17.14,-28.36 20.18,-46.18 8.75,-51.33 -28.61,-77.57 -60.01,-100.51 -40.6,-29.59 -156.74,-7.02 -194.24,29.92 -25.33,24.91 -50.31,50.24 -76.16,74.61 -28.09,26.5 -56.31,32.99 -83.75,12.91 -27.06,-19.75 -54.93,-27.09 -87.67,-30.09 -43.74,-3.95 -102.34,-65.37 -110.56,-109.99 -9.21,-50.06 -43.36,-86.54 -86.18,-96.03 -60.61,-13.41 -124.18,-27.48 -188.35,-11.08 -20.81,5.33 -43.46,3.11 -64.95,6.39 -36.9,5.64 -60.32,-14.36 -79.73,-40.82 -10.51,-14.25 -23.07,-30.09 -25.5,-46.56 -8.54,-57.4 -55.56,-83.72 -90.88,-119.35 -20.03,-20.21 -44.38,-18.91 -63.64,-0.07 -27.9,27.31 -63.22,48.68 -76.97,88.51 -8.72,25.26 -28.3,36.02 -53.24,40.54 -39.72,7.19 -74.29,-1.52 -101.21,-32.42 -29.49,-33.87 -62.76,-53.98 -110.14,-61.42 -47.16,-7.41 -97.72,-22.47 -129.57,-65.3 -25.19,-33.9 -59.69,-42.41 -98.64,-42.41 -59.58,-0.03 -119.2,-1.09 -178.75,0.29 -29.88,0.7 -54.01,-7.8 -74.47,-29.53 -20.25,-21.52 -41.42,-42.19 -62.66,-62.72 -42.93,-41.46 -113.48,-50.84 -165.24,-21 -19.36,11.19 -29,31.23 -39.9,50.31 -16.37,28.72 -1.23,53.27 5.72,79.48 9.77,36.87 -3.56,71.97 -31.93,87.56 -31.08,17.11 -95.46,9.56 -122.38,-15.34 -24.51,-22.65 -51.33,-43.85 -71.5,-70.03 -42.23,-54.65 -94.37,-87.21 -164.22,-90.88 -32,-1.69 -57.51,-14.46 -66.57,-48.86 -5.4,-20.49 -22.65,-32.84 -37.18,-44.98 -47.03,-39.19 -67.28,-97.26 -104.39,-143.33 -10.62,-13.16 -12.56,-32.21 -13.8,-50.69 -5.78,-87.39 -36.79,-125.03 -120.22,-149.16 -16.09,-4.69 -28.05,-13.19 -36.9,-27.69 -10.37,-17.04 -18.77,-34.4 -24.56,-53.73 -28.61,-95.64 -167.46,-108.27 -218.58,-55.53 -58.38,60.22 -113.56,127.71 -203.41,145.31 -4.9,0.96 -8.54,7.94 -12.91,11.96 -21.17,19.51 -40.71,16.65 -63.61,0.18 -38.1,-27.41 -70.27,-26.78 -107.63,-0.5 -19.65,13.8 -39.05,26.43 -63.6,29.96 -18.17,2.61 -30.8,13.61 -44.17,27.02 -33.2,33.34 -65.69,69.5 -111.52,85.94 -50.16,17.99 -88.51,48.11 -113.87,95.14 -12.35,22.89 -30.98,22.15 -49.85,9.07 -11.5,-8.01 -17.36,-20.39 -22.75,-33.84 -32.56,-81.28 -96.81,-106.96 -175.09,-70.66 -21.45,9.92 -46.35,10.48 -65.86,26.11 -8.54,6.84 -19.16,2.5 -27.31,-3.92 -26.52,-20.99 -51.47,-43.14 -64.52,-75.95 -41.13,-103.33 -124.92,-159.95 -235.8,-160.06 -51.61,-0.03 -103.25,-0.17 -154.9,0.22 -17.5,0.14 -33.69,0.49 -50.13,12.66 -47.48,35.03 -98.32,65.34 -135.71,112.85 -10.66,13.55 -26,24.7 -41.35,32.95 -23.71,12.77 -48.93,4.8 -60.68,-18.87 -33.65,-67.7 -73.94,-128.73 -142.03,-167.89 -19.93,-11.46 -40.32,-28.61 -51.04,-48.29 -32.18,-58.85 -33.06,-124.25 -27.77,-189.27 0.82,-9.88 12.92,-19.68 21.35,-27.9 47.8,-46.57 40.88,-105.13 17.81,-154.02 -29.98,-63.54 -74.05,-120.9 -115.57,-178.33 -14.64,-20.18 -26.1,-39.13 -27.23,-63.57 -1.84,-40.29 -14.82,-77.33 -35.67,-110.99 -14.6,-23.6 -12.34,-40.53 3.25,-64.17 36.69,-55.74 14.11,-100.58 -50.13,-106.68 -13.8,-1.3 -27.91,0.53 -41.66,-1.06 -84.39,-9.63 -118.86,-44.84 -122.21,-123.75 -2.93,-68.41 -54.57,-132.75 -121.21,-147.32 -61.98,-13.55 -122.17,-5.82 -175.79,29.31 -67.35,44.07 -141.22,26.5 -213.33,26.5 -10.4,0 -17.67,-8.89 -23.53,-16.76 -38.27,-51.43 -97.72,-55.24 -152.78,-65.79 -64.99,-12.42 -128.17,-38.35 -196.57,-29.49 -11.71,1.51 -23.5,-5.15 -31.61,-14.22 -9.38,-10.48 -19.86,-24.91 -7.3,-36.76 38.56,-36.37 17.49,-59.44 -13.44,-84.91 -14.86,-12.25 -25.12,-29.92 -41.35,-42.02 -22.19,-16.51 -30.87,-39.37 -28.5,-67.59 1.83,-21.7 2.71,-42.94 7.9,-64.56 14.53,-60.61 -2.93,-118.71 -31.58,-169.83 -19.54,-34.85 -37.78,-72.74 -70.48,-100.65 -21.17,-18.02 -16.33,-38.94 7.69,-53.48 40.11,-24.3 79.09,-50.76 129.68,-50.58 23.39,0.07 47.03,-6.81 70.1,-12.46 29,-7.09 47.59,-26.21 53.66,-55.63 5.61,-27.09 9.77,-54.51 14.21,-81.81 4.69,-28.75 1.1,-58.38 -18.13,-78.92 -32.14,-34.32 -60.32,-73.09 -102.23,-97.93 -45.94,-27.2 -86.75,-61.87 -133.04,-89.32 -74.54,-44.13 -97.89,-125.7 -128.76,-199.64 -17.36,-41.66 -18.31,-84.45 16.58,-122.09 15.98,-17.26 18.2,-44.52 2.75,-60.26 -33.87,-34.43 -59.79,-78.63 -112.22,-92.64 -48.72,-13.02 -82.9,-45.4 -98.25,-94.33 -21.94,-70.1 -68.15,-123.3 -118.11,-174.13 -12.98,-13.2 -29.07,-20.64 -47.73,-20.15 -27.55,0.71 -54.57,-0.38 -82.41,6.95 -43.21,11.43 -75.81,41 -115.07,58.92 -51.19,23.35 -51.23,26.77 -88.13,-13.16 -27.51,-29.78 -58.17,-43.85 -99.51,-41.77 -55.46,2.82 -111.45,4.2 -166.69,-0.21 -60.5,-4.83 -109.86,7.41 -153.46,53.41 -51.96,54.86 -124.21,83.5 -183.66,129.05 -23.56,18.06 -47.83,24.73 -76.13,28.15 -103.08,12.45 -196.14,-17.75 -282.04,-69.43 -59.83,-35.98 -124.89,-35.1 -188.6,-35.84 -64.06,-0.71 -73.59,13.76 -78.38,78.88 -3.39,45.86 -8.01,90.91 -35.21,130.03 -7.16,10.3 -9.42,21.59 -9.35,33.76 0.18,35.88 -18.73,68.3 -17.67,105.06 0.56,19.02 -10.16,41.59 -30.52,47.52 -48.68,14.08 -79.16,55.14 -122.8,78 -48.33,25.29 -93.52,28.15 -142.66,19.83 -21.49,-3.64 -40.72,-13.27 -47.77,-38.88 -7.27,-26.49 -26.67,-45.54 -53.55,-50.09 -56.31,-9.57 -111.48,-22.58 -170.36,-20.22 -60.36,2.47 -123.65,10.34 -181.82,-15.38 -83.19,-36.83 -162.28,-35.67 -237.35,19.09 -20.74,15.13 -40.92,31.07 -60.57,47.58 -14.04,11.79 -28.54,24.49 -47.56,19.76 -58.73,-14.6 -123.26,-4.44 -176.81,-41.24 -24.59,-16.93 -47.76,-14.04 -70.62,4.76 -13.76,11.26 -28.23,22.65 -44.24,29.92 -40.96,18.55 -60.05,52.32 -59.83,93.7 0.21,38.34 -18.17,60.92 -43.5,85.58 -29.42,28.65 -67.45,51.12 -83.68,90.95 -13.23,32.42 -37.71,54.08 -59.76,79.23 -47.48,54.19 -102.69,105.41 -93.87,188.88 1.55,14.53 -7.55,30.3 -12.18,45.4 -14.04,45.9 -38.98,86.64 -67.73,123.79 -47.48,61.31 -49.85,134.66 -45.3,202.85 5.83,87.13 24.42,173.28 58.46,257.38 34.96,86.43 13.9,128.91 -52.28,174.77 -12.49,8.64 -24.73,12.35 -38.88,9.42 -45.65,-9.49 -90.63,-61.98 -90.45,-110.6 0.11,-28.22 -8.64,-48.54 -28.89,-67.55 -44.56,-41.81 -89.89,-83.26 -129.82,-129.23 -17.71,-20.39 -36.34,-31.01 -59.91,-32.31 -92.81,-5.05 -185.52,-10.65 -278.51,4.02 -32.57,5.15 -51.93,27.38 -78.04,40.39 -47.77,23.82 -60.39,24.42 -92.36,-14.57 -17.88,-21.8 -39.82,-38.34 -59.86,-57.18 -28.75,-26.95 -68.97,-24.91 -100.09,2.29 -40.32,35.21 -83.25,66.75 -126.68,98.11 -36.69,26.53 -81.95,38.49 -113.42,74.61 -16.51,18.95 -70.31,7.27 -78.91,-15.48 -11.75,-31.16 -33.27,-60.58 -32.95,-94.44 0.7,-73.73 -0.88,-143.37 -50.27,-207.51 -17.68,-22.93 -28.86,-53.27 -51.97,-75.07 -48.43,-45.68 -116.77,-48.86 -171.13,-7.69 -47.31,35.88 -96.94,67.88 -155.22,83.36 -61.77,16.37 -102.94,53.1 -119.91,116.07 -7.59,28.18 -28.43,46.35 -52.35,62.19 -33.02,21.91 -38.74,20.5 -54.51,-16.37 -10.58,-24.73 -7.12,-50.62 -9.63,-76.16 -2.61,-26.88 0.88,-57.4 -25.43,-75.85 -69.25,-48.58 -142.14,-75.67 -226.56,-37.92 -46.32,20.67 -98.67,-9.81 -95.18,-60.5 3.39,-49.43 -21.16,-77.02 -52.63,-105.94 -15.88,-14.57 -29.63,-19.02 -46.57,-4.91 -39.9,33.2 -97.51,47.66 -112.96,107.14 -1.73,6.67 -9.49,12.42 -15.59,17.15 -51.58,39.9 -119.13,35.13 -164.5,-11.22 -52.04,-53.24 -82.94,-58.42 -147.67,-24.77 -7.02,3.64 -15.24,6.25 -20.64,11.61 -18.91,18.77 -36.34,17.36 -57.54,2.4 -16.12,-11.36 -35.84,-18.42 -47.48,-34.96 -13.94,-19.76 -33.09,-26.5 -55.49,-29.11 -25.55,-2.96 -51.09,-6.28 -76.49,-10.19 -40.81,-6.32 -77.93,-0.95 -112.53,24.66 -31.22,23.07 -68.76,29.31 -107.07,25.71 -25.22,-2.36 -50.45,-13.54 -48.12,-41.98 3.35,-40.92 -21.59,-58.84 -50.73,-70.9 -30.02,-12.46 -40.29,-34.29 -47.69,-62.3 -4.17,-15.7 -4.27,-31.26 -6.25,-46.89 -5.33,-41.49 -19.08,-55.17 -61.84,-56.65 -49.57,-1.73 -99.27,-1.38 -148.91,-0.29 -30.37,0.67 -60.25,-2.68 -87.28,-15.06 -78.7,-36.13 -157.93,-71.72 -233.68,-113.49 -27.65,-15.24 -52.67,-23.35 -82.79,-21.66 -15.84,0.88 -31.82,-0.67 -47.66,0.32 -41.98,2.61 -78.32,-8.33 -106.26,-41.45 -20.71,-24.56 -49.07,-32.67 -79.37,-34.68 -23.71,-1.55 -47.42,1.3 -71.16,2.89 -61.07,4.06 -120.72,-4.73 -161.75,-55.6 -36.37,-45.05 -80.86,-60.5 -136.24,-55.49 -21.66,1.98 -43.64,0.35 -65.48,0.18 -22.33,-0.18 -44.34,-4.8 -61.98,-17.89 -47.17,-35.06 -101.04,-41.73 -157.16,-41.63 -95.32,0.18 -190.68,-0.28 -286,0.15 -68.33,0.28 -128.73,-25.33 -178.89,-67.31 -25.83,-21.63 -49.18,-29.18 -79.66,-28.26 -25.82,0.77 -51.68,0.95 -77.47,-0.04 -30.34,-1.16 -56.97,3.18 -83.22,22.72 -32.39,24.06 -72.36,30.73 -113.1,30.45 -75.46,-0.5 -150.95,0.14 -226.41,-0.25 -43.61,-0.21 -88.2,3.81 -130.67,-3.6 -75.32,-13.05 -150.64,-8.64 -225.67,-6.56 -36.16,1.02 -78.82,0.88 -105.52,31.96 -28.19,32.77 -60.64,67.31 -73.24,106.82 -20.32,63.78 -59.02,110.53 -104.77,154.52 -18.31,17.6 -31.65,42.58 -56.83,50.41 -48.44,15.06 -85.66,48.44 -127.57,73.87 -38.63,23.46 -34.54,21.59 -75.39,-2.01 -43.42,-25.08 -80.78,-65.23 -136.7,-64.95 -51.61,0.29 -103.26,0.53 -154.89,-0.1 -40.05,-0.46 -65.73,18.2 -85.67,52.56 -18.97,32.67 -30.41,68.72 -43.47,102.91 -12.46,32.52 -15.04,72.95 7.74,108.34 50.44,78.31 59.59,156.63 -0.59,235.93 -23.06,30.38 -18.72,74.62 8.8,102.06 21.22,21.13 33.93,43.15 30.17,73.45 -9.21,74.05 33.86,120.02 90.41,152.82 44.95,26.07 61.06,60.54 65.64,110.14 6.42,69.78 4.6,142.95 52.09,203.03 7.05,8.89 12.63,21.55 12.98,32.66 1.16,37.54 17.6,68.05 37.92,97.93 14.36,21.17 25.93,44.24 39.65,65.83 8.93,14.04 7.69,25.4 -4.05,36.97 -12.7,12.53 -23.96,26.5 -42.51,31.05 -12.14,3 -21.98,9.56 -25.97,22.05 -12.45,38.87 -21.59,85.86 5.33,113.84 51.72,53.73 49.64,126.4 81.46,186.26 21.2,39.94 10.26,88.83 27.2,131.66 8.36,21.17 -7.77,38.17 -25.76,48.65 -48.65,28.22 -88.26,63.25 -101.67,121.04 -2.18,9.38 -8.25,17.95 -13.02,26.67 -11.04,20.25 -33.61,26.91 -49.98,40.99 -15.41,13.23 -28.52,-7.16 -43.2,-9.56 -42.8,-6.99 -85.59,-15.59 -123.03,19.12 -10.9,10.09 -27.89,16.55 -42.91,18.63 -29.96,4.12 -49.99,20.18 -68.02,42.61 -48.84,60.89 -104.2,111.69 -174.22,151.31 -58.01,32.84 -117.8,70.13 -160.12,126.68 -8.7,11.61 -20.7,24.94 -37.66,27.59 -27.74,4.34 -43.92,24.48 -62.12,42.68 -228.56,228.82 -457.62,457.1 -685.8,686.3 -40.8,40.99 -94.78,72.28 -107.49,136.03 -0.96,4.8 -7.81,8.78 -12.5,12.38 -35.55,27.41 -53.42,67.7 -77.42,103.72 -16.52,24.83 -18.81,46.64 -0.39,70.27 13.56,17.43 27.09,36.41 25.67,58.88 -3.54,55.92 11.79,110 13.12,165.28 0.52,22.4 2.06,43.39 19.17,60.39 21.34,21.2 11.12,41.1 0.42,64.42 -25.67,56.02 -33.3,119.52 -70.19,171.24 -2.87,4.02 -1.44,11.75 -0.64,17.57 8.09,58.59 33.16,106.39 87.64,134.69 36.41,18.91 51.5,43.14 45.71,74.47 -3.08,16.72 -9.84,23.07 -28.59,17.99 -54.43,-14.71 -112.46,-20.92 -147.99,-73.8 -4.1,-6.1 -12.32,-9.81 -19.17,-13.69 -51.56,-29.17 -82.58,-23.95 -126.86,16.93 -39,36.02 -59.07,86.89 -101.3,121.08 -31.8,25.75 -55.29,59.97 -63.77,103.29 -4.47,22.83 -21.05,41.35 -37.57,59.44 -11.26,12.32 -22.89,24.63 -33.26,37.54l0 0c-2.76,3.42 -5.41,6.88 -7.93,10.41l-1.38 2.08c-3.44,4.97 -6.57,10.09 -9.38,15.38l-4.11 8.4 -2.63 6.42c-1.8,4.93 -3.36,9.98 -4.41,15.24l-0.41 3.14c-0.8,4.83 -1.19,9.84 -1.24,14.99l0.07 5.22c0.26,6.35 0.88,12.84 2.41,19.72 1.85,8.36 -5.42,18.66 -8.19,28.12 -3.11,10.54 -6.57,20.88 -10.29,31.04 -27.52,75.21 -71.82,139.45 -135.01,191.42 -22.64,18.62 -36.49,48.19 -66.91,56.97 -51.1,14.75 -71.9,51.72 -76.17,100.97 -1.58,18.2 -3.45,37.96 -15.76,50.16 -21.4,21.2 -20.26,46 -20.14,71.83 0.17,33.76 1.69,67.59 -0.4,101.21 -2.05,33.05 8.4,53.06 43.3,57.78 26.98,3.64 55.34,16.02 58.54,43.04 6.25,52.78 44.95,81.81 74.18,117.72 16.89,20.75 29.22,40.75 31.25,68.34 6.59,88.76 7.5,88.16 93.04,116.7 25.07,8.36 53.28,10.12 67.22,41.55 23.05,51.97 53.46,100.72 75.75,152.97 28.36,66.57 53.77,84.1 124.9,80.22l12.58 -0.73 0 0.02c20.77,-1.23 41.63,-2.48 62.42,-0.72l0.54 0.04 1.02 0.1 3.11 0.31 1.13 0.12 0.43 0.05 1.56 0.19 1.52 0.19 0.03 0.01 3.12 0.43 0.36 0.05 1.19 0.19 0.56 0.08 1 0.17 3.11 0.55 1.15 0.21 0.4 0.08 1.35 0.27 0.21 0.04 1.53 0.32 0.02 0.01 1.55 0.34 0.18 0.04 1.37 0.32 1.55 0.37 0.58 0.14 0.98 0.25 0.76 0.2 0.79 0.2 0.96 0.26 0.59 0.17 1.15 0.32 0.39 0.12 1.36 0.4 0.19 0.05 1.55 0.48c26.18,8.19 39.46,21.88 37.53,51.47 -3.47,53.38 -3.86,106.93 -5.65,160.41 -1.51,45.44 21.8,66.08 65.94,58.07 15.62,-2.82 29.19,-6.98 40.93,-20.6 44.99,-52.32 95.15,-94.51 172.2,-83.43 29.75,4.26 52.41,-13.16 71.12,-35.81 15.1,-18.31 31.21,-35.84 47.91,-52.71 18.03,-18.2 36.38,-20.49 56.67,-0.91 36.77,35.52 75.83,68.68 112.14,104.63 50.72,50.24 106.07,85.48 181.92,81.63 49.32,-2.47 104,-15.02 147.48,5.3 62.13,29.06 129.66,45.22 188.75,78.21 61.24,34.22 122.85,49.63 191.34,41.17 20.78,-2.58 42.16,2.08 57.24,12.27 41.15,27.8 92.14,36.09 130.44,67.21 22.14,17.95 45.01,22.29 71.59,21.59 35.72,-0.99 71.5,-0.67 107.23,-0.14 20.15,0.31 42.13,0.74 58,-9.85 53.33,-35.52 112.46,-31.5 171.97,-33.26 85.97,-2.54 140.16,36.75 173.92,114.12 9.24,21.17 18.77,42.72 28.86,63.78 12.24,25.61 30.12,50.06 57.39,57.65 73.38,20.32 108.8,76.48 131.59,140.15 16.37,45.83 47.2,68.65 89.18,76.06 63.85,11.22 128.8,-1.58 186.62,-24.69 75.53,-30.16 135.08,-85.09 178.47,-156.88 44.49,-73.59 106.26,-117.94 198.93,-115.68 146.9,3.57 293.9,0.64 440.87,1.24 30.27,0.14 57.71,-0.81 82.3,-23.99 17.5,-16.51 43.22,-17.75 67.7,-17.36 41.7,0.64 83.43,-0.77 125.09,0.35 63.65,1.73 126.76,-2.39 189.59,-12.27 23.77,-3.74 42.47,-13.2 62.62,-28.15 46.74,-34.65 68.4,-86.36 99.37,-131.24 27.2,-39.37 61.95,-75.53 62.34,-130.81 0.14,-23.63 23.95,-48.12 52.46,-48.54 29.7,-0.46 53.48,-8.93 76.06,-27.09 12.38,-9.99 28.71,-15.95 44.62,-14.43 52.43,5.01 101.64,-12.45 152.37,-18.91 31.29,-3.95 52.53,-18.77 63.18,-46.04 13.51,-34.46 38.28,-47.66 72.99,-50.2 47.17,-3.42 80.22,-26.53 100.08,-70.91 14.22,-31.68 33.62,-38.66 61.21,-20.78 51.72,33.55 101.03,29.74 148.38,-4.76 47.8,-34.85 91.65,-30.3 135.04,6.03 12.35,10.38 24.73,18.77 42.12,19.34 55.21,1.83 111.27,8.53 149.83,-45.48 6.66,-9.34 18.06,-15.34 27.44,-22.68 29.67,-23.11 66.01,-30.3 92.93,-8.11 72.6,59.79 144.18,34.99 216.42,3.35 23.75,-10.41 47.95,-17.64 73.24,-22.44 59.66,-11.29 112.61,-3.49 158.36,42.23 33.76,33.72 64.77,69.39 89.22,109.75 21.03,34.71 47.84,54.78 88.02,62.4 108.05,20.5 107.88,21.49 140.65,127.85 10.87,35.21 14.78,37.89 47.31,15.73 19.05,-12.98 39.02,-19.93 53.16,-3.21 28.29,33.48 63.57,27.42 98.67,24.56 15.81,-1.27 31.44,-4.2 47.24,-1.55 37.85,6.24 51.22,37.67 28.89,69.28 -9.1,12.91 -20.49,24.24 -30.97,36.16 -12.84,14.57 -17.89,31.05 -9.6,49.21 8.29,18.24 25.83,15.46 41.46,15.49 23.7,0.11 49.03,-3.63 61.63,23.95 16.19,35.46 49.35,55.04 72.88,83.01 25.89,-9.35 37.54,-32.07 56.27,-46.18 11.5,-8.67 18.66,-20.14 23.18,-33.76 6.45,-19.4 21.3,-24.44 40.71,-28.15 75.24,-14.32 145.76,2.26 213.46,31.86 24.87,10.86 43.78,31.78 48.68,62.79 2.97,18.8 10.66,36.87 19.65,55 47.31,95.11 134.48,153.53 204.3,227.72 16.93,17.99 39.9,16.08 59.94,2.11 11.32,-7.9 21.48,-17.6 31.29,-27.41 54.18,-54.22 53.41,-43.85 82.44,6.74l0.29 0.51 0.11 0.19 0.19 0.32 0.23 0.38 0.07 0.13 0.3 0.51 0.04 0.05c6.1,10.12 13.92,19.42 21.45,29.03l0.32 -0.09c2.95,3.76 5.81,7.6 8.47,11.59 20.07,30.27 27.23,64.38 18.59,96.55 -11.36,42.3 -6.39,81.95 0.67,123.02 4.76,27.76 5.54,55.74 -17.85,77.54 -38.52,36.02 -41.31,78.14 -20.57,123.79 4.55,9.98 5.86,20.25 -0.24,28.11 -21.66,27.98 -21.42,67.63 -50.73,91.76 -8.51,6.99 -17.08,19.65 -17.4,29.95 -2.5,81.88 -17.18,165.7 42.37,237.63 14.4,17.36 27.2,26.25 48.93,25.51 21.7,-0.78 45.41,-3.14 62.73,12.2 45.54,40.36 96.87,77.58 107.35,143.66 6.88,43.39 27.58,75.77 61.95,103.04 29.28,23.28 42.82,26.95 76.37,5.79 10.06,-6.32 20.36,-12.17 30.52,-18.31 17,-10.34 34.29,-23.64 53.97,-6.99 17.64,14.89 16.55,35.46 10.76,55.04 -9.74,33.05 -9.56,66.74 -8.29,100.4 0.99,27.27 -7.69,49.49 -24.02,71.15 -46.01,61 -31.96,118.57 36.16,155.29 40.39,21.77 53.51,56.34 36.33,98.75 -4.37,10.83 -10.86,21.27 -18.24,30.41 -21.09,26.1 -20.53,49.42 4.59,72.88 32.7,30.55 58.88,68.51 104.78,83.29 12.24,3.92 23.77,15.1 31.82,25.79 16.08,21.41 37.39,35.56 60.36,46.78 31.29,15.31 60.18,32.63 97.72,37.82 67.27,9.27 94.65,66.46 110.59,124.24 25.65,93.21 10.13,189.27 10.2,284.06 0.03,18.42 -10.97,37.29 -23.46,53.59 -41.74,54.61 -40.36,92.11 7.09,140.33 39.86,40.54 78.17,83.93 137.48,97.9 11.39,2.68 23.49,8.85 20.42,24.09 -2.22,10.94 -12.66,15.1 -22.29,17.29 -11.5,2.57 -23.53,2.75 -35.18,4.76 -39.97,6.88 -79.51,-10.44 -117.97,-5.36 -42.05,5.54 -64.31,-13.26 -80.53,-45.01 -26.39,-51.55 -70.63,-66.4 -123.37,-61.78 -29.6,2.58 -57.93,12.28 -78.46,36.87 -25.96,31.08 -55.1,31.15 -89.64,12.35 -32.14,-17.54 -59.94,-38.99 -80.64,-68.69 -38.85,-55.67 -77.76,-53.55 -124.89,-15.49 -24.59,19.83 -45.82,21.1 -68.01,-1.02 -18.45,-18.38 -37.79,-14.75 -59.98,-6.49 -41.52,15.45 -46,13.76 -53.97,-30.69 -7.27,-40.61 -36.55,-65.48 -61.45,-91.9 -24.1,-25.54 -72.15,-20.04 -110.07,8.92 -33.48,25.55 -67.03,47.03 -110.88,48.69 -15.52,0.6 -29.49,7.97 -41.17,20.92 -23.78,26.42 -47.55,53.69 -75.39,75.42 -24.62,19.16 -31.18,44.27 -37.46,70.98 -9.49,40.53 2.01,78.49 16.58,115.57 4.23,10.72 16.4,20.85 8.57,32.39 -27.27,40.11 -12.84,84.87 -16.33,127.56 -1.13,13.93 -1.13,28.54 10.9,38.49 24.13,19.93 38.8,49.14 69.74,63.07 27.52,12.42 29.78,28.16 10.66,50.77 -17.75,20.95 -37.29,40.74 -58.14,58.6 -45.3,38.8 -42.09,87.27 -23.28,134.37 9.1,22.82 5.85,34.75 -6.81,52.6 -19.94,28.15 -44.88,44.31 -79.06,45.54 -33.9,1.2 -66.5,8.72 -99.45,16.12 -24.31,5.47 -42.61,21.45 -47.45,39.73 -8.89,33.51 -20.85,67.59 -12.06,104.84 13.58,57.65 4.16,76.03 -46,107.56 -18.42,11.57 -44.35,18.91 -51.9,38.14 -20,50.76 -69.67,67.8 -107.45,94.44 -28.23,19.89 -57.65,37.53 -82.41,62.47 -48.76,49.11 -57.19,98.92 -21.06,157.73 27.09,44.1 21.09,86.93 3.38,130.95 -4.02,9.98 -12.91,18.73 -22.82,12.46 -55.07,-34.96 -115.92,-16.44 -174.2,-19.79 -51.47,-2.93 -96.31,17.67 -136.78,48.18 -41.27,31.08 -51.82,118.51 -15.24,153.46 27.34,26.14 47.45,52.28 44.21,92.08 -0.57,6.74 4.55,15.13 9.31,20.89 36.87,44.34 54.68,107.51 122.41,121.77 10.02,2.09 19.62,13.87 26.18,23.39 12.81,18.66 30.2,21.87 51.12,23.88 35.28,3.35 73.41,3.57 101.63,28.15 28.86,25.15 62.23,41.5 95.15,59.16 62.23,33.38 127.91,47.06 198.72,36.41 35.2,-5.29 50.83,-24.69 57.68,-57.75 20.18,-97.47 21.8,-109.05 109.46,-39.3 49.67,39.52 81.85,32.85 104.81,-28.75 9.85,-26.35 25.65,-44.66 51.33,-52.71 17.47,-5.5 31.61,-15.09 46.82,-24.34 30.37,-18.41 60.78,-38.31 99.02,-35.91 12.45,0.75 21.24,-5.04 30.83,-13.9 60.19,-55.59 130.18,-86.12 214,-81.59 37.61,2.05 75.46,1.15 113.17,0.17 62.23,-1.62 105.59,48.37 163.37,59.02 5.93,1.13 10.58,11.22 15.07,17.71 13.54,19.47 30.48,37.68 39.26,59.2 22.08,54.08 55.17,107.38 26.63,169.93 -3.17,7.01 -4.02,15.35 -4.83,23.18 -4.37,41.52 20.04,64.31 60.33,55.2 48.08,-10.83 79.12,-43.71 98.7,-86.14 14.82,-32.07 21.52,-67.84 35.63,-100.29 40.71,-93.74 36.87,-182.85 -21.23,-268.5 -13.09,-19.27 -27.52,-29.11 -52.78,-30.52 -65.05,-3.64 -69.14,-9.32 -76.06,-72.75 -1.27,-11.7 -1.94,-24.27 0.85,-35.51 6.63,-26.86 3.03,-50 -15.49,-71.48 -18.87,-21.91 -17.04,-47.66 -8.39,-73.1 4.19,-12.24 15.09,-22.86 26.95,-14.6 32.28,22.47 71.79,20.07 106.54,35.14 81.88,35.53 169.08,-18.28 173.85,-105.77 1.51,-28.01 8.22,-51.01 30.26,-67.45 23.78,-17.74 34.68,-40.64 40.93,-69.35 6.56,-30.27 23.77,-54.23 60.18,-55.64 15.95,-0.6 32.17,-4.2 44.06,-15.77 25.47,-24.8 46.11,-18.24 71.93,2.68 35.35,28.65 65.34,23.32 98.08,-9.06 89.74,-88.9 177.69,-179.81 270.26,-265.68 60.39,-56.02 83.08,-121.71 76.13,-200.94 -0.71,-7.9 -1.06,-15.81 -2.05,-23.67 -3.38,-27.34 5.22,-42.3 35.99,-37.75 45.33,6.7 80.71,-12.98 111.26,-44.13 31.61,-32.18 65.3,-61.99 75.67,-110 4.38,-20.28 15.63,-40.74 32.74,-55.74 17.18,-15.03 25.54,-35.66 31.5,-56.41 21.24,-73.8 61.85,-134.3 120.69,-183.05 4.51,-3.74 8.01,-8.82 12.63,-12.39 11.82,-9.2 17.92,-21.41 18.13,-35.91 0.71,-46.95 11.64,-92.78 5.29,-140.97 -13.69,-103.12 -6.24,-109.04 96.52,-109.36 31.26,-0.11 60.64,1.52 87.91,-24.06 24.21,-22.72 58.46,-32.81 94.23,-28.89 24.7,2.72 45.12,-4.9 65.37,-21.13 44.8,-36.02 91.86,-41.28 139.45,-1.94 42.76,35.35 94.76,19.05 143.09,23.39 31.15,2.78 45.09,-20.68 63.54,-37.82 16.22,-15.1 31.61,-22.01 50.69,-1.73 19.93,21.24 48.15,17.85 73.24,14.57 44.73,-5.86 90.1,-11.75 133.06,-24.69 42.3,-12.74 78.25,-7.02 112.08,18.06 22.37,16.58 44.38,30.44 73.1,35.87 30.55,5.76 34.36,16.97 20.95,46.01 -13.51,29.31 -20.74,59.65 -21.87,91.58 -2.4,68.75 4.66,76.59 74.37,84.91 13.75,1.66 28.5,1.02 41.09,5.86 32.46,12.56 69.01,14.14 95.93,42.26 16.79,17.6 27.41,34.75 20.1,57.64 -6.91,21.7 -27.34,30.17 -47.59,28.83 -42.65,-2.86 -81.35,6.63 -119.16,25.64 -17.54,8.86 -37.58,12.92 -57.86,12 -27.94,-1.24 -50.31,5.01 -60.78,35.52 -10.73,31.26 3.38,52 22.89,73.87 33.52,37.61 71.19,59.84 124.25,52.07 27.23,-3.95 55.7,-2.82 83.26,-0.17 57.71,5.5 115.32,18.87 157.19,60.01 36.87,36.19 75.32,58.38 126.76,65.65 40.67,5.75 85.09,18.66 104.91,58.7 33.66,67.91 92.36,93.94 159.85,105.59 86.53,14.92 174.41,10.61 261.19,4.05 53.91,-4.09 111.2,-4.76 157.69,-42.47 14.4,-11.64 34.12,-8.61 51.97,-8.61 61.56,0.04 123.12,0.21 184.68,-0.07 44.06,-0.18 90.94,-2.75 125.59,-28.47 35.31,-26.25 70.62,-32.17 110.91,-31.18 21.7,0.52 43.43,1.51 64.7,-6.46 30.55,-11.43 57.5,-6.6 81,18.49 13.33,14.25 28.71,28.85 50.23,29.28 29.49,0.52 43.11,15.76 57.54,41.31 17.89,31.61 44.27,66.53 82.41,70.34 48.72,4.83 103.93,17.89 140.26,-36.41 6.95,-10.37 22.69,-15.24 34.86,-21.69 36.83,-19.51 38.95,-17.99 53.41,21.34 19.15,52.21 9.81,106.26 10.02,159.39 0.21,42.68 5.22,79.34 54.11,94.79 -8.15,12.73 -12.84,15.45 -19.33,15.24 -79.3,-2.68 -156.56,2.08 -223.91,52.42 -13.79,10.3 -31.82,15.95 -48.79,20.6 -14.07,3.88 -24.44,10.76 -34.92,20.64 -63.01,59.41 -141.46,86.39 -224.93,91.23 -72.85,4.23 -126.54,38.56 -176.28,84.84 -56.41,52.49 -107.95,109.96 -177.03,148.24 -51.61,28.57 -97.58,66.39 -139.2,108.76 -15.24,15.49 -27.38,38.3 -45.76,45.58 -70.94,28.04 -130.56,73.45 -191.06,117.33 -59.31,43.01 -107.6,90 -122.52,171.45 -20.04,109.36 90.7,217.17 199.53,211.1 26.21,-1.48 56.27,-3.21 78.21,-23.81 35.66,-33.55 78.14,-43.85 125.94,-40.29 25.65,1.91 51.65,1.42 77.4,0.15 77.08,-3.75 133.07,44.17 190.15,82.93 39.4,26.75 65.44,72.22 111.37,93.46 11.32,5.22 13.9,18.12 19.72,28.47 61.84,109.84 190.39,114.72 264.05,58.59 31.19,-23.78 59.73,-17 88.69,-3.18 40.39,19.33 78.74,40.68 109.43,76.48 55.57,64.92 89.5,137.87 97.3,222.4 2.57,27.66 -0.95,55.03 24.06,75.92 12.95,10.79 15.13,28.36 9.52,44.23 -13.68,38.74 -27.3,79.24 -54.64,109.48 -25.44,28.11 -39.37,58.16 -44.17,94.07 -8.43,63.01 -10.94,126.09 0.99,188.96 7.86,41.62 -4.98,63.42 -45.72,74.11 -9.53,2.51 -19.93,1.94 -29.21,4.95 -81.04,25.89 -114.69,74.15 -92.85,142.62 9.95,31.26 23.1,56.97 45.29,81.17 27.66,30.17 63.47,46.5 95.92,68.73 25.9,17.74 51.4,23.77 77.33,7.44 22.55,-14.19 36.9,-5.12 51.9,9.49 31.04,30.26 60,62.94 93.16,90.66 57.79,48.3 116.74,91.2 201.09,83.04 52.53,-5.07 106.47,-5.74 160.05,-4.05 27.8,0.88 56.52,-5.97 85.45,-17.39 48.47,-19.15 92.32,-43.78 135.99,-71.01 56.27,-35.14 104.95,-76.45 132.43,-138.46 4.98,-11.26 15.21,-18.07 21.67,-27.5 28.85,-42.08 74.75,-56.29 118.14,-74.58 38.24,-16.04 60.11,-41.16 59.44,-85.5 -0.81,-54.33 24.49,-98.81 61.85,-136.5 30.58,-30.87 65.33,-58.12 92.78,-91.47 34.64,-42.09 77.57,-66.74 129.4,-76.83 28.43,-5.54 49.38,-17.79 69.42,-39.8 45.33,-49.84 99.27,-83.74 172.16,-72.95 37.96,5.61 78.07,-0.49 110.28,-17.32 28.36,-14.86 45.43,-9.95 68.72,3.91 15.73,9.39 28.32,21.55 41.48,33.38 35.6,31.95 73.2,31.61 109.05,0.99 33.33,-28.54 52.56,-60.82 52.28,-107 -0.46,-65.45 42.44,-111.87 96.24,-130.49 52.56,-18.21 95.78,-47.42 136.91,-79.03 51.36,-39.51 92.11,-90.84 98.6,-160.58 2.86,-30.98 17.04,-58.71 39.12,-77.97 54.33,-47.41 154.2,-49.53 217.1,-9.62 73.59,46.67 140.27,101.34 200.84,164.14 36.58,37.92 71.54,40.57 115.5,12.09 18.84,-12.19 37.39,-21.16 60.57,-20.67 20.25,0.43 40.78,-6.62 55.6,-18.47 51.5,-41.32 100.75,-40.93 158.33,-9.14 63.07,34.81 134.3,10.51 171.27,-51.2 12.49,-20.85 29.91,-29.8 52.81,-32.95 35.31,-4.83 70.7,-9.63 105.62,-16.62 40.89,-8.18 76.73,-49.45 72.43,-88.53 -3.18,-28.79 -5.19,-59.48 -22.33,-85.28 -60.89,-91.43 -32.35,-197.17 73.69,-253.25 59.62,-31.55 78.85,-90.77 112.18,-140.66 4.7,-7.08 5.08,-19.93 2.44,-28.56 -17.36,-56.42 -46.89,-102.38 -107.7,-120.83 -16.94,-5.16 -36.13,-10.45 -48.33,-21.95 -24.45,-23.03 -52.32,-24.27 -82.59,-24.09 -102.87,0.6 -205.78,1.73 -308.61,-0.5 -43.25,-0.95 -80.4,8.08 -117.65,30.76 -33.41,20.37 -58.99,43.57 -77.58,78.6 -34.57,65.09 -82.19,74.29 -141.11,31.16 -7.87,-5.76 -13.3,-14.79 -21.06,-20.75 -20.78,-15.95 -34.15,-38.59 -52.39,-56.58 -28.78,-28.5 -83.01,-27.21 -91.12,5.58 -14.5,58.76 -60.85,96.4 -84.35,148.4 -16.08,35.59 -41.91,61.6 -84.74,65.12 -11.25,0.96 -21.9,8.26 -32.91,12.39 -37.01,13.89 -73.06,32.17 -111.27,40.5 -64.62,14.07 -115.04,-19.72 -158.82,-61.95 -56.76,-54.75 -110.87,-112.19 -166.86,-167.71 -43.36,-43.01 -63.22,-104.49 -113.24,-142.1 -2.86,-2.12 -4.69,-6.63 -5.51,-10.34 -10.9,-49.88 -60.74,-76.37 -74.68,-124.42 -92.71,-86.68 -144.99,-199.64 -199.67,-310.52 -53.06,-107.52 -82.16,-224.22 -121.99,-336.79 -2.61,-7.34 -2.19,-17.39 -7.13,-21.91 -42.12,-38.63 -36.97,-89.11 -36.69,-138.64 0.53,-98.11 45.58,-151.8 143.97,-171.49 15.45,-3.1 29.67,-7.9 43.78,-16.75 24.98,-15.7 51.54,-31.3 79.62,-38.99 27.7,-7.62 44.77,-22.96 56.27,-46.39 17.71,-36.09 48.83,-61.8 70.8,-94.75 18.31,-27.48 36.48,-27.34 65.76,-7.27 9.81,6.74 18.98,14.43 28.15,21.98 15.46,12.73 38.56,18.31 49.39,6.28 35.14,-39.09 87.74,-50.84 124.43,-88.13 52.42,-53.27 99.48,-113.34 162.84,-154.37 50.38,-32.56 93.42,-72.07 132.26,-116.81 14,-16.08 34.85,-25.82 41.17,-49.31 25.96,-96.28 103.32,-139.46 185.49,-177.45 53.83,-24.91 112.46,-35.42 168.41,-53.52 68.16,-22.05 139.88,-20.56 207.47,16.83 58.03,32.07 89.85,24.38 135.43,-21.98 35.92,-36.58 72.25,-72.78 108.73,-108.76 8.39,-8.29 17.14,-17.6 27.59,-22.22 53.16,-23.43 98.63,-60.05 155.39,-79.13 63.86,-21.45 123.55,-30.31 183.45,1.44 33.69,17.85 57.18,13.51 84.35,-12.24 82.02,-77.71 150.42,-170.07 253.57,-225.39 35.32,-18.91 73.66,-37.96 100.48,-71.33 4.23,-5.33 13.97,-8.64 21.23,-8.75 48.23,-0.81 97.16,-16.68 142.38,19.51 26.89,21.52 65.02,15.42 80.9,-6.03 19.96,-26.95 39.05,-54.82 55.73,-83.89 37.89,-65.97 71.65,-135.15 130.6,-185.56 32.21,-27.52 59.41,-68.3 107.32,-67.91 69.92,0.63 138,-12.74 206.97,-19.16 33.13,-3.07 66.01,2.08 93.03,-26.14 11.89,-12.42 33.16,-10.72 51.33,-10.44 29.77,0.46 59.83,2.5 89.32,-0.43 64.6,-6.45 130.57,8.08 194.17,-14.21 62.66,-22.02 100.68,-86.19 84.92,-148.98 -3.25,-12.98 -12.63,-24.38 -18.24,-36.9 -15.42,-34.54 -22.55,-66.71 12.2,-96.8 17.43,-15.1 29.5,-36.37 46.5,-53.34 31.43,-31.29 28.26,-70.95 -6.1,-101.5 -18.28,-16.23 -29.57,-37 -43.71,-55.98 -9.03,-12.14 -13.73,-24.98 -3.67,-38.1 18.7,-24.38 15.03,-52.53 15.1,-80.12 0.14,-69.5 0.21,-138.99 0.03,-208.49 -0.1,-51.47 20.64,-96.59 62.41,-121.89 54.5,-33.05 108.9,-71.26 180.87,-62.19 44.27,5.61 82.69,-11.64 117.23,-45.33 27.69,-26.99 46.99,-66.11 87.56,-77.9 55.03,-15.98 71.96,-58.06 75.63,-107.95 2.67,-35.96 -1.36,-72.41 0.87,-108.38l0.19 -0.02 0.14 -4.7c6.46,-82.19 18.45,-101.03 101.28,-99.48l4.96 0.08 3.89 0.06 1.07 0.02 4.96 0.06 2.82 0.03 2.13 0.02 4.96 0.04 1.76 0.01 3.2 0.01 4.95 0.02 0.69 0 4.27 0 4.57 0 0.38 -0.01 4.95 -0.01 3.51 -0.02 1.45 -0.01 4.95 -0.04 2.44 -0.01 2.51 -0.03 4.95 -0.06 1.38 -0.01 3.58 -0.06 4.95 -0.07 0.31 0 4.64 -0.09 4.19 -0.07 0.76 -0.02 4.95 -0.1 3.12 -0.07 1.83 -0.04 4.94 -0.12 2.06 -0.05 2.89 -0.08 4.95 -0.13 0.99 -0.03 3.96 -0.12 4.87 -0.14 0.07 -0.01 4.95 -0.15 3.81 -0.13 1.14 -0.04 4.94 -0.17 2.74 -0.09 2.21 -0.09 4.94 -0.18 1.68 -0.06 3.27 -0.13 4.94 -0.2 0.61 -0.02 4.34 -0.18 4.48 -0.19 0.46 -0.02 4.94 -0.21 3.42 -0.15 1.52 -0.07 4.95 -0.22 2.35 -0.11 2.59 -0.12 4.94 -0.23 1.29 -0.07 3.65 -0.17 4.94 -0.24 0.23 -0.02 4.72 -0.23 4.09 -0.21 0.85 -0.04 9.88 -0.51 4.94 -0.26 1.96 -0.11 2.98 -0.15 32.28 -1.79 2.29 -0.12 49.38 -2.82 0.07 -0.02c82.61,-4.77 165.21,-9.27 248.01,-9.11 109.22,0.14 218.44,0.21 327.66,-0.11 63.36,-0.21 120.33,-52.32 126.01,-114.86 4.41,-48.69 4.76,-97.44 4.41,-146.2 -0.24,-31.03 -0.78,-62.09 -0.79,-93.11l0 -1.9 0 -1.34 0 -0.56 0.01 -3.8 0 -1.9 0.01 -0.96 0 -0.94 0.01 -1.9 0 -0.76 0.01 -1.14 0.01 -1.9 0.01 -0.57 0.01 -1.33 0.01 -1.9 0.01 -0.38 0.01 -1.51 0.02 -1.9 0 -0.19 0.02 -1.71 0.02 -1.9z"/>
    <path class="fil0 str0" d="M18612.76 14379.14c-41.06,-38.41 -90.27,-34.71 -139.87,-34 -19.8,0.28 -39.62,-1.45 -59.41,-2.23 -36.51,-1.41 -62.34,-17.14 -79.84,-50.83 -30.55,-58.91 -80.32,-83.79 -147.14,-78.42 -35.56,2.82 -70.84,6.49 -106.15,11.46 -34.5,4.87 -68.09,2.72 -88.69,-32.24 -14.25,-24.2 -41.98,-28.68 -62.65,-43.46 -9.88,-7.06 -20.22,-14.29 -17.53,-28.26 2.54,-13.27 12.66,-19.05 25.61,-20.6 35.56,-4.34 68.33,-14.71 100.57,-32.25 34.96,-18.98 72.22,-11.39 108.02,7.09 68.44,35.35 124.61,25.51 181.83,-28.47 23.67,-22.29 41.13,-33.33 80.82,-13.9 49.7,24.35 108.86,31.61 159.88,58.18 10.47,5.47 23.46,8.53 31.04,16.68 23.32,25.09 47.73,45.23 84.39,47.14 21.06,1.05 29.98,16.75 30.62,38.48 -1.41,4.45 -1.59,11.64 -5.26,15.42 -27.2,28.22 -24.62,65.51 -30.8,99.87 -3.53,19.65 -6.38,38.98 -16.93,56.41 -12.03,19.93 -29.74,31.47 -48.51,13.93z"/>
    <path class="fil0 str0" d="M18713.27 14564.78c-40.29,0.24 -49.25,-8.26 -49.21,-45.62 0,-21.38 -3.11,-46.42 27.58,-50.37 15.98,-2.05 71.55,51.92 68.58,67.02 -5.43,27.87 -29.14,27.91 -46.95,28.97z"/>
    <path class="fil0 str0" d="M19553.27 15196.88c33.51,23.6 68.26,45.13 85.58,85.62 9.49,22.13 28.82,36.4 46,52.57 22.79,21.48 42.37,46.11 57.54,73.72 8.4,15.29 8.43,30.48 -4.97,43.22 -12.74,12.1 -28.61,15.74 -43.18,5.65 -35.77,-24.76 -72.04,-46.15 -116.56,-53.06 -12.84,-1.98 -25.12,-18.58 -34.36,-30.97 -32.53,-43.78 -27.76,-127.84 9.95,-176.75z"/>
    <path class="fil0 str0" d="M18925.82 14206.28c-14.5,-0.67 -24.13,-9.8 -28.58,-23.7 -3.56,-11.15 3.42,-18.66 13.23,-22.65 7.16,-2.89 14.96,-5.86 22.47,-5.93 17.22,-0.21 23.89,-30.3 45.41,-15.56l3.06 9.71c-3.03,13.58 -44.37,57.08 -55.59,58.13z"/>
    <path class="fil0 str0" d="M19128.42 14579.49c-1.17,14.92 -5.01,28.08 -21.31,30.87 -16.09,2.71 -25.15,-8.72 -31.61,-21.52 -7.37,-14.61 -5.22,-30.8 -7.02,-46.39 -4.06,-35.28 -15.13,-43.25 -50.55,-38.25 -7.76,1.13 -15.14,4.94 -22.9,5.75 -32.77,3.57 -49,-8.14 -52.31,-40.56 -2.23,-21.45 -0.43,-43.36 -0.43,-74.62 1.24,-15.91 -4.41,-41.87 3.32,-66.88 9.03,-29.18 24.87,-36.45 47.13,-18.35 34.64,28.12 63.82,62.69 105.51,82.38 8.65,4.05 16.41,19.12 16.97,29.52 2.9,52.85 17.4,104.64 13.2,158.05z"/>
    <path class="fil0 str0" d="M19187.68 14723.88c41.7,3.99 87.88,19.37 100.83,80.47 2.01,9.38 8.68,18.27 0.6,27.23 -7.52,8.33 -17.75,9.07 -26.99,4.38 -37.92,-19.16 -75.95,-38.14 -112.92,-59.02 -12.14,-6.88 -18.45,-20.08 -10.73,-35.42 7.94,-15.77 19.47,-24.38 49.21,-17.64z"/>
   </g>
   <g>
    <path class="fil1 str0" d="M13823.94 14072.09c-15.27,15.34 -22.5,-7.02 -33.83,-11.47 -45.93,-18.03 -81.28,-53.9 -126.04,-74.08 -15.77,-7.09 -30.94,-15.52 -41.42,-32 -10.3,-16.16 -30.62,-27.69 -17.36,-50.87 12.67,-22.19 32.14,-34.18 58.25,-34.29 31.01,0.46 57.32,15.45 64.2,43.5 10.2,41.38 37.86,67.45 64.49,95.92 8.04,8.57 16.09,17.6 22.01,27.62 6.39,10.83 23.22,22.05 9.7,35.67z"/>
    <path class="fil1 str0" d="M15798.9 13477.16c-6.31,8.93 -16.4,10.23 -26.46,9.67 -5.82,-0.35 -11.57,-1.94 -20.95,-3.63 -25.54,2.82 -54.68,6.66 -83.93,9.03 -13.62,1.13 -28.57,1.37 -35.35,-14.64 -6.21,-14.75 0.6,-27.87 9.92,-37.82 16.93,-18.13 33.72,-35.14 46.28,-57.72 12.24,-21.94 34.08,-15.13 49.32,1.77 18.24,20.18 35.35,41.45 52.21,62.83 6.84,8.61 18.38,17.18 8.96,30.51z"/>
    <path class="fil1 str0" d="M16097.42 13542.71c-15.2,9.17 -28.64,19.86 -42.79,30.09 -14.85,10.76 -36.09,14.71 -50.24,2.15 -20.42,-18.13 -44.02,-24.44 -68.82,-30.55 -10.23,-2.5 -17.29,-10.05 -17.89,-21.02 -0.6,-11.12 7.55,-17.47 15.66,-23.29 22.83,-16.33 49.25,-11.67 74.69,-12.66 29.91,-0.39 59.51,1.76 86.64,15.87 21.84,11.4 23.78,26.74 2.75,39.41z"/>
    <path class="fil1 str0" d="M24697.1 10388.38c0.56,-43.46 -5.79,-87.88 29.95,-122.98 4.72,-4.65 5.32,-14.71 5.68,-22.36l0.05 -1.14 0.06 -1.13 0.05 -1.14 0.05 -0.81 0.01 -0.32 0.07 -1.13 0.07 -1.13 0.07 -1.13 0.03 -0.49 0.04 -0.64 0.08 -1.13 0.08 -1.12 0.09 -1.13 0.01 -0.17 0.07 -0.95 0.09 -1.12 0.1 -1.12c1.61,-18.69 4.55,-36.83 8.61,-54.58 12.15,-52.94 35.09,-101.67 67.73,-145.9l1.4 -1.9 0.39 -0.51 1.8 -2.4 0.29 -0.38 1.54 -2.01 0.97 -1.25 0.88 -1.13 1.67 -2.12 0.2 -0.25 1.88 -2.36 0.5 -0.62 2.57 -3.16 0.05 -0.06 0.71 -0.86 1.94 -2.34 1.14 -1.39 0.32 -0.39 0.79 -0.99 0.61 -0.79 0.46 -0.61 0.88 -1.18 0.16 -0.21 1 -1.4 0.13 -0.18 0.84 -1.22 0.4 -0.58 0.54 -0.82 0.64 -0.98 0.27 -0.43 0.86 -1.38 0.01 -0.03 0.85 -1.41 0.21 -0.37 0.6 -1.04 0.43 -0.78 0.35 -0.64 0.63 -1.18 0.12 -0.24 0.72 -1.42 0.09 -0.16 0.61 -1.26 0.27 -0.56 0.39 -0.86 0.44 -0.97 0.2 -0.46 0.59 -1.38 0.02 -0.05 0.58 -1.43 0.14 -0.35 0.42 -1.09 0.28 -0.75 0.25 -0.68 0.41 -1.17 0.09 -0.27 0.48 -1.44 0.04 -0.13 0.41 -1.31 0.17 -0.54 0.26 -0.9 0.27 -0.95 0.13 -0.49c0.66,-2.41 1.21,-4.83 1.68,-7.25l0.27 -1.45c2.78,-15.5 2.02,-31.19 0.21,-46.75 27.94,12.93 62.98,48.22 80.75,-13.53 -9.89,-67.47 -59,-6.07 -85.6,-18.6 -7.42,-26.99 -36.75,-34.78 -64.21,-39.49l-0.63 -0.11 -0.3 -0.05 -0.33 -0.06 -0.64 -0.1 -0.46 -0.08 -0.17 -0.03 -0.63 -0.11 -0.63 -0.1c-22.4,-3.67 -37.53,-18 -37.18,-39.87l0.03 -2.64 0 -0.32 0 -2.32 0 -0.62 -0.02 -2.01 -0.02 -0.93 -0.07 -2.92 -0.04 -1.37 -0.06 -1.54 -0.05 -1.06 -0.09 -1.85 -0.04 -0.74 -0.13 -2.15 -0.02 -0.43 -0.18 -2.45 0 -0.12 -0.21 -2.57 -0.02 -0.18 -0.21 -2.37 -0.05 -0.49 -0.21 -2.06 -0.08 -0.78 -0.2 -1.76 -0.13 -1.08 -0.18 -1.45 -0.17 -1.38 -0.16 -1.15 -0.35 -2.51 -0.29 -1.97 -0.08 -0.54 -0.36 -2.26 -0.04 -0.24 -0.43 -2.5 0 -0.05 -0.44 -2.43 -0.06 -0.35 -0.41 -2.13 -0.12 -0.64 -0.37 -1.83c-7.02,-34.56 -20.46,-67.04 -37.29,-98.64 5.85,-11.99 10.09,-27.47 4.13,-57.96 -6.19,1.36 -11.77,0.74 -17.05,-0.87 -0.82,-25.59 -10.16,-48.27 -22.21,-69.67l-0.11 -0.18 -0.91 -1.6 -0.03 -0.07c-1.21,-2.12 -2.45,-4.21 -3.71,-6.31l-0.6 -1 -0.36 -0.58 -1.93 -3.16 -0.97 -1.57 -0.07 -0.12 -0.91 -1.45 -0.22 -0.35 -0.77 -1.21 -0.36 -0.58 -0.62 -0.98 -0.52 -0.82 -0.48 -0.74 -0.66 -1.04 -0.33 -0.52 -0.81 -1.27 -0.19 -0.28 -0.96 -1.5 -0.04 -0.05 -1 -1.55 -0.11 -0.17 -0.89 -1.37 -0.26 -0.4 -0.75 -1.14 -0.41 -0.63 -0.59 -0.91 -0.56 -0.86 -0.44 -0.68 -0.71 -1.09 -0.29 -0.45 -0.86 -1.31 -0.14 -0.23 -1 -1.53c-33.9,-52.21 -74.08,-98.56 -147.92,-86.18l-0.58 0.09 -0.13 0.02 -0.45 0.07 -0.26 0.04 -0.32 0.05 -0.39 0.05 -0.19 0.02 -0.53 0.07 -0.06 0 -0.58 0.07 -0.07 0.01 -0.52 0.05 -0.2 0.02 -0.39 0.03 -0.33 0.03 -0.26 0.02 -0.47 0.04 -0.12 0 -0.59 0.04 -0.01 0 -0.58 0.04 -0.15 0 -0.45 0.02 -0.27 0.02 -0.32 0.01 -0.41 0.01 -0.19 0.01 -0.54 0.01 -0.05 0 -0.6 0.01 -0.08 0 -0.52 0 -0.6 0 -0.35 0 -0.25 0 -0.49 -0.01 -0.11 0 -0.08 0 -1.12 -0.03 -0.16 0 -0.74 -0.03 -0.31 -0.02 -1.81 -0.1 -0.11 0 -0.5 -0.04 -0.24 -0.01c-6.97,-0.53 -14.08,-1.76 -21.04,-3.08l-0.06 0.01 -8.58 -1.7c-33.27,-6.6 -50.77,-27.7 -40.18,-58.71 10.76,-31.57 9.49,-62.54 8.92,-93.83 -1.09,-61.56 40.61,-102.98 67.88,-151.17l3.88 -6.74c7.9,-14.96 24.62,-18.27 39.75,-23.56 50.31,-17.57 102.13,-13.09 153.43,-9.92 21.13,1.31 41.13,0.71 56.16,-12.48 7.8,-6.88 15.17,-14.01 22.19,-21.28l2.61 -2.71c7.06,-7.48 13.51,-15.31 19.33,-23.5l0.88 -1.3c12.07,-17.29 21.03,-36.48 25.33,-58.67l0 0c1.73,-8.78 2.97,-17.85 3.14,-27.62 1.12,-69 -44.79,-82.45 -86.55,-64.53 -25.92,-0.91 -52.09,12.12 -75.3,25.47l-0.38 0.22c-14.73,-1.55 -29.25,-7.4 -44.49,-16.62 -23.64,-14.29 -52.57,-19.72 -73.81,-6.38 -35.7,22.4 -58.27,2.04 -85.54,-13.09 -29.14,-16.2 -41.84,-46.71 -63.33,-69.43 -16.72,-17.71 -5.15,-47.17 19.19,-58.77 47.66,-22.69 94.9,-46.15 148.77,-52.74 48.22,-5.93 79.94,-32.42 86.18,-83.29l0.13 -1.06 0.01 -0.06 0.12 -0.99 0.02 -0.13 0.12 -0.93 0.02 -0.19 0.12 -0.86 0.03 -0.26 0.11 -0.8 0.04 -0.32 0.1 -0.74 0.05 -0.38c2.85,-20.27 7.52,-40.4 19.35,-56.61 53.48,-9.95 111.26,-24.94 177.13,-49.74 7.83,60.4 -12.1,63.75 -17.75,96.27 12.17,-1.79 16.16,23.04 26.39,27.49 32.56,4.83 36.72,-48.33 27.69,-128.7 27.63,-22.96 90.6,26.57 94.65,-44.59 -14.07,-101.03 -48.79,-37.82 -74.75,-20.78 -4.02,-37.46 -8.71,-72.67 -28.54,-58.38 -30.8,7.55 -56.58,25.57 -68.33,72.14 -20.32,11.04 -29.74,-13.69 -38.88,-39.33 5.24,-7.61 10.29,-15.34 15.86,-22.7l0.29 -0.37 0.28 -0.37 0.29 -0.38 0.28 -0.37 0.29 -0.37c40.96,-52.7 35.13,-116.17 33.37,-174.59 -2.19,-72.49 -37.75,-134.86 -93.63,-184.78l-0.8 -0.72 -0.22 -0.19 -0.58 -0.53 -0.43 -0.39 -0.36 -0.34 -0.64 -0.59 -0.15 -0.15c-15.74,-14.74 -29.06,-32.41 -41.3,-50.61l6.74 -6.31c-10.23,-18.28 -19.41,-25.65 -28.12,-27.13l-0.81 -1.46 -0.18 -0.34 -0.6 -1.09 -0.44 -0.82 -0.31 -0.58 -0.67 -1.28 -0.05 -0.09 -0.69 -1.35 -0.19 -0.37 -0.47 -0.96 -1.23 -2.54 -0.01 -0.04c-11.02,-23.62 -6.75,-35.32 14.54,-57.27l-0.03 0c4.28,-4.4 9.22,-9.2 14.88,-14.61 17.11,-16.33 31.68,-35.84 50.45,-49.74 17.18,-12.7 17.14,-28.36 20.18,-46.18 8.75,-51.33 -28.61,-77.57 -60.01,-100.51 -40.6,-29.59 -156.74,-7.02 -194.24,29.92 -25.33,24.91 -50.31,50.24 -76.16,74.61 -28.09,26.5 -56.31,32.99 -83.75,12.91 -27.06,-19.75 -54.93,-27.09 -87.67,-30.09 -43.74,-3.95 -102.34,-65.37 -110.56,-109.99 -9.21,-50.06 -43.36,-86.54 -86.18,-96.03 -60.61,-13.41 -124.18,-27.48 -188.35,-11.08 -20.81,5.33 -43.46,3.11 -64.95,6.39 -36.9,5.64 -60.32,-14.36 -79.73,-40.82 -10.51,-14.25 -23.07,-30.09 -25.5,-46.56 -8.54,-57.4 -55.56,-83.72 -90.88,-119.35 -20.03,-20.21 -44.38,-18.91 -63.64,-0.07 -27.9,27.31 -63.22,48.68 -76.97,88.51 -8.72,25.26 -28.3,36.02 -53.24,40.54 -39.72,7.19 -74.29,-1.52 -101.21,-32.42 -29.49,-33.87 -62.76,-53.98 -110.14,-61.42 -47.16,-7.41 -97.72,-22.47 -129.57,-65.3 -25.19,-33.9 -59.69,-42.41 -98.64,-42.41 -59.58,-0.03 -119.2,-1.09 -178.75,0.29 -29.88,0.7 -54.01,-7.8 -74.47,-29.53 -20.25,-21.52 -41.42,-42.19 -62.66,-62.72 -42.93,-41.46 -113.48,-50.84 -165.24,-21 -19.36,11.19 -29,31.23 -39.9,50.31 -16.37,28.72 -1.23,53.27 5.72,79.48 9.77,36.87 -3.56,71.97 -31.93,87.56 -31.08,17.11 -95.46,9.56 -122.38,-15.34 -24.51,-22.65 -51.33,-43.85 -71.5,-70.03 -42.23,-54.65 -94.37,-87.21 -164.22,-90.88 -32,-1.69 -57.51,-14.46 -66.57,-48.86 -5.4,-20.49 -22.65,-32.84 -37.18,-44.98 -47.03,-39.19 -67.28,-97.26 -104.39,-143.33 -10.62,-13.16 -12.56,-32.21 -13.8,-50.69 -5.78,-87.39 -36.79,-125.03 -120.22,-149.16 -16.09,-4.69 -28.05,-13.19 -36.9,-27.69 -10.37,-17.04 -18.77,-34.4 -24.56,-53.73 -28.61,-95.64 -167.46,-108.27 -218.58,-55.53 -58.38,60.22 -113.56,127.71 -203.41,145.31 -4.9,0.96 -8.54,7.94 -12.91,11.96 -21.17,19.51 -40.71,16.65 -63.61,0.18 -38.1,-27.41 -70.27,-26.78 -107.63,-0.5 -19.65,13.8 -39.05,26.43 -63.6,29.96 -18.17,2.61 -30.8,13.61 -44.17,27.02 -33.2,33.34 -65.69,69.5 -111.52,85.94 -50.16,17.99 -88.51,48.11 -113.87,95.14 -12.35,22.89 -30.98,22.15 -49.85,9.07 -11.5,-8.01 -17.36,-20.39 -22.75,-33.84 -32.56,-81.28 -96.81,-106.96 -175.09,-70.66 -21.45,9.92 -46.35,10.48 -65.86,26.11 -8.54,6.84 -19.16,2.5 -27.31,-3.92 -26.52,-20.99 -51.47,-43.14 -64.52,-75.95 -41.13,-103.33 -124.92,-159.95 -235.8,-160.06 -51.61,-0.03 -103.25,-0.17 -154.9,0.22 -17.5,0.14 -33.69,0.49 -50.13,12.66 -47.48,35.03 -98.32,65.34 -135.71,112.85 -10.66,13.55 -26,24.7 -41.35,32.95 -23.71,12.77 -48.93,4.8 -60.68,-18.87 -33.65,-67.7 -73.94,-128.73 -142.03,-167.89 -19.93,-11.46 -40.32,-28.61 -51.04,-48.29 -32.18,-58.85 -33.06,-124.25 -27.77,-189.27 0.82,-9.88 12.92,-19.68 21.35,-27.9 47.8,-46.57 40.88,-105.13 17.81,-154.02 -29.98,-63.54 -74.05,-120.9 -115.57,-178.33 -14.64,-20.18 -26.1,-39.13 -27.23,-63.57 -1.84,-40.29 -14.82,-77.33 -35.67,-110.99 -14.6,-23.6 -12.34,-40.53 3.25,-64.17 36.69,-55.74 14.11,-100.58 -50.13,-106.68 -13.8,-1.3 -27.91,0.53 -41.66,-1.06 -84.39,-9.63 -118.86,-44.84 -122.21,-123.75 -2.93,-68.41 -54.57,-132.75 -121.21,-147.32 -61.98,-13.55 -122.17,-5.82 -175.79,29.31 -67.35,44.07 -141.22,26.5 -213.33,26.5 -10.4,0 -17.67,-8.89 -23.53,-16.76 -38.27,-51.43 -97.72,-55.24 -152.78,-65.79 -64.99,-12.42 -128.17,-38.35 -196.57,-29.49 -11.71,1.51 -23.5,-5.15 -31.61,-14.22 -9.38,-10.48 -19.86,-24.91 -7.3,-36.76 38.56,-36.37 17.49,-59.44 -13.44,-84.91 -14.86,-12.25 -25.12,-29.92 -41.35,-42.02 -22.19,-16.51 -30.87,-39.37 -28.5,-67.59 1.83,-21.7 2.71,-42.94 7.9,-64.56 14.53,-60.61 -2.93,-118.71 -31.58,-169.83 -19.54,-34.85 -37.78,-72.74 -70.48,-100.65 -21.17,-18.02 -16.33,-38.94 7.69,-53.48 40.11,-24.3 79.09,-50.76 129.68,-50.58 23.39,0.07 47.03,-6.81 70.1,-12.46 29,-7.09 47.59,-26.21 53.66,-55.63 5.61,-27.09 9.77,-54.51 14.21,-81.81 4.69,-28.75 1.1,-58.38 -18.13,-78.92 -32.14,-34.32 -60.32,-73.09 -102.23,-97.93 -45.94,-27.2 -86.75,-61.87 -133.04,-89.32 -74.54,-44.13 -97.89,-125.7 -128.76,-199.64 -17.36,-41.66 -18.31,-84.45 16.58,-122.09 15.98,-17.26 18.2,-44.52 2.75,-60.26 -33.87,-34.43 -59.79,-78.63 -112.22,-92.64 -48.72,-13.02 -82.9,-45.4 -98.25,-94.33 -21.94,-70.1 -68.15,-123.3 -118.11,-174.13 -12.98,-13.2 -29.07,-20.64 -47.73,-20.15 -27.55,0.71 -54.57,-0.38 -82.41,6.95 -43.21,11.43 -75.81,41 -115.07,58.92 -51.19,23.35 -51.23,26.77 -88.13,-13.16 -27.51,-29.78 -58.17,-43.85 -99.51,-41.77 -55.46,2.82 -111.45,4.2 -166.69,-0.21 -60.5,-4.83 -109.86,7.41 -153.46,53.41 -51.96,54.86 -124.21,83.5 -183.66,129.05 -23.56,18.06 -47.83,24.73 -76.13,28.15 -103.08,12.45 -196.14,-17.75 -282.04,-69.43 -59.83,-35.98 -124.89,-35.1 -188.6,-35.84 -64.06,-0.71 -73.59,13.76 -78.38,78.88 -3.39,45.86 -8.01,90.91 -35.21,130.03 -7.16,10.3 -9.42,21.59 -9.35,33.76 0.18,35.88 -18.73,68.3 -17.67,105.06 0.56,19.02 -10.16,41.59 -30.52,47.52 -48.68,14.08 -79.16,55.14 -122.8,78 -48.33,25.29 -93.52,28.15 -142.66,19.83 -21.49,-3.64 -40.72,-13.27 -47.77,-38.88 -7.27,-26.49 -26.67,-45.54 -53.55,-50.09 -56.31,-9.57 -111.48,-22.58 -170.36,-20.22 -60.36,2.47 -123.65,10.34 -181.82,-15.38 -83.19,-36.83 -162.28,-35.67 -237.35,19.09 -20.74,15.13 -40.92,31.07 -60.57,47.58 -14.04,11.79 -28.54,24.49 -47.56,19.76 -58.73,-14.6 -123.26,-4.44 -176.81,-41.24 -24.59,-16.93 -47.76,-14.04 -70.62,4.76 -13.76,11.26 -28.23,22.65 -44.24,29.92 -40.96,18.55 -60.05,52.32 -59.83,93.7 0.21,38.34 -18.17,60.92 -43.5,85.58 -29.42,28.65 -67.45,51.12 -83.68,90.95 -13.23,32.42 -37.71,54.08 -59.76,79.23 -47.48,54.19 -102.69,105.41 -93.87,188.88 1.55,14.53 -7.55,30.3 -12.18,45.4 -14.04,45.9 -38.98,86.64 -67.73,123.79 -47.48,61.31 -49.85,134.66 -45.3,202.85 5.83,87.13 24.42,173.28 58.46,257.38 34.96,86.43 13.9,128.91 -52.28,174.77 -12.49,8.64 -24.73,12.35 -38.88,9.42 -45.65,-9.49 -90.63,-61.98 -90.45,-110.6 0.11,-28.22 -8.64,-48.54 -28.89,-67.55 -44.56,-41.81 -89.89,-83.26 -129.82,-129.23 -17.71,-20.39 -36.34,-31.01 -59.91,-32.31 -92.81,-5.05 -185.52,-10.65 -278.51,4.02 -32.57,5.15 -51.93,27.38 -78.04,40.39 -47.77,23.82 -60.39,24.42 -92.36,-14.57 -17.88,-21.8 -39.82,-38.34 -59.86,-57.18 -28.75,-26.95 -68.97,-24.91 -100.09,2.29 -40.32,35.21 -83.25,66.75 -126.68,98.11 -36.69,26.53 -81.95,38.49 -113.42,74.61 -16.51,18.95 -70.31,7.27 -78.91,-15.48 -11.75,-31.16 -33.27,-60.58 -32.95,-94.44 0.7,-73.73 -0.88,-143.37 -50.27,-207.51 -17.68,-22.93 -28.86,-53.27 -51.97,-75.07 -48.43,-45.68 -116.77,-48.86 -171.13,-7.69 -47.31,35.88 -96.94,67.88 -155.22,83.36 -61.77,16.37 -102.94,53.1 -119.91,116.07 -7.59,28.18 -28.43,46.35 -52.35,62.19 -33.02,21.91 -38.74,20.5 -54.51,-16.37 -10.58,-24.73 -7.12,-50.62 -9.63,-76.16 -2.61,-26.88 0.88,-57.4 -25.43,-75.85 -69.25,-48.58 -142.14,-75.67 -226.56,-37.92 -46.32,20.67 -98.67,-9.81 -95.18,-60.5 3.39,-49.43 -21.16,-77.02 -52.63,-105.94 -15.88,-14.57 -29.63,-19.02 -46.57,-4.91 -39.9,33.2 -97.51,47.66 -112.96,107.14 -1.73,6.67 -9.49,12.42 -15.59,17.15 -51.58,39.9 -119.13,35.13 -164.5,-11.22 -52.04,-53.24 -82.94,-58.42 -147.67,-24.77 -7.02,3.64 -15.24,6.25 -20.64,11.61 -18.91,18.77 -36.34,17.36 -57.54,2.4 -16.12,-11.36 -35.84,-18.42 -47.48,-34.96 -13.94,-19.76 -33.09,-26.5 -55.49,-29.11 -25.55,-2.96 -51.09,-6.28 -76.49,-10.19 -40.81,-6.32 -77.93,-0.95 -112.53,24.66 -31.22,23.07 -68.76,29.31 -107.07,25.71 -25.22,-2.36 -50.45,-13.54 -48.12,-41.98 3.35,-40.92 -21.59,-58.84 -50.73,-70.9 -30.02,-12.46 -40.29,-34.29 -47.69,-62.3 -4.17,-15.7 -4.27,-31.26 -6.25,-46.89 -5.33,-41.49 -19.08,-55.17 -61.84,-56.65 -49.57,-1.73 -99.27,-1.38 -148.91,-0.29 -30.37,0.67 -60.25,-2.68 -87.28,-15.06 -78.7,-36.13 -157.93,-71.72 -233.68,-113.49 -27.65,-15.24 -52.67,-23.35 -82.79,-21.66 -15.84,0.88 -31.82,-0.67 -47.66,0.32 -41.98,2.61 -78.32,-8.33 -106.26,-41.45 -20.71,-24.56 -49.07,-32.67 -79.37,-34.68 -23.71,-1.55 -47.42,1.3 -71.16,2.89 -61.07,4.06 -120.72,-4.73 -161.75,-55.6 -36.37,-45.05 -80.86,-60.5 -136.24,-55.49 -21.66,1.98 -43.64,0.35 -65.48,0.18 -22.33,-0.18 -44.34,-4.8 -61.98,-17.89 -47.17,-35.06 -101.04,-41.73 -157.16,-41.63 -95.32,0.18 -190.68,-0.28 -286,0.15 -68.33,0.28 -128.73,-25.33 -178.89,-67.31 -25.83,-21.63 -49.18,-29.18 -79.66,-28.26 -25.82,0.77 -51.68,0.95 -77.47,-0.04 -30.34,-1.16 -56.97,3.18 -83.22,22.72 -32.39,24.06 -72.36,30.73 -113.1,30.45 -75.46,-0.5 -150.95,0.14 -226.41,-0.25 -43.61,-0.21 -88.2,3.81 -130.67,-3.6 -75.32,-13.05 -150.64,-8.64 -225.67,-6.56 -36.16,1.02 -78.82,0.88 -105.52,31.96 -28.19,32.77 -60.64,67.31 -73.24,106.82 -20.32,63.78 -59.02,110.53 -104.77,154.52 -18.31,17.6 -31.65,42.58 -56.83,50.41 -48.44,15.06 -85.66,48.44 -127.57,73.87 -38.63,23.46 -34.54,21.59 -75.39,-2.01 -43.42,-25.08 -80.78,-65.23 -136.7,-64.95 -51.61,0.29 -103.26,0.53 -154.89,-0.1 -40.05,-0.46 -65.73,18.2 -85.67,52.56 -18.97,32.67 -30.41,68.72 -43.47,102.91 -12.46,32.52 -15.04,72.95 7.74,108.34 50.44,78.31 59.59,156.63 -0.59,235.93 -23.06,30.38 -18.72,74.62 8.8,102.06 21.22,21.13 33.93,43.15 30.17,73.45 -9.21,74.05 33.86,120.02 90.41,152.82 44.95,26.07 61.06,60.54 65.64,110.14 6.42,69.78 4.6,142.95 52.09,203.03 7.05,8.89 12.63,21.55 12.98,32.66 1.16,37.54 17.6,68.05 37.92,97.93 14.36,21.17 25.93,44.24 39.65,65.83 8.93,14.04 7.69,25.4 -4.05,36.97 -12.7,12.53 -23.96,26.5 -42.51,31.05 -12.14,3 -21.98,9.56 -25.97,22.05 -12.45,38.87 -21.59,85.86 5.33,113.84 51.72,53.73 49.64,126.4 81.46,186.26 21.2,39.94 10.26,88.83 27.2,131.66 8.36,21.17 -7.77,38.17 -25.76,48.65 -48.65,28.22 -88.26,63.25 -101.67,121.04 -2.18,9.38 -8.25,17.95 -13.02,26.67 -11.04,20.25 -33.61,26.91 -49.98,40.99 -15.41,13.23 -28.52,-7.16 -43.2,-9.56 -42.8,-6.99 -85.59,-15.59 -123.03,19.12 -10.9,10.09 -27.89,16.55 -42.91,18.63 -29.96,4.12 -49.99,20.18 -68.02,42.61 -48.84,60.89 -104.2,111.69 -174.22,151.31 -58.01,32.84 -117.8,70.13 -160.12,126.68 -8.7,11.61 -20.7,24.94 -37.66,27.59 -27.74,4.34 -43.92,24.48 -62.12,42.68 -228.56,228.82 -457.62,457.1 -685.8,686.3 -40.8,40.99 -94.78,72.28 -107.49,136.03 -0.96,4.8 -7.81,8.78 -12.5,12.38 -35.55,27.41 -53.42,67.7 -77.42,103.72 -16.52,24.83 -18.81,46.64 -0.39,70.27 13.56,17.43 27.09,36.41 25.67,58.88 -3.54,55.92 11.79,110 13.12,165.28 0.52,22.4 2.06,43.39 19.17,60.39 21.34,21.2 11.12,41.1 0.42,64.42 -25.67,56.02 -33.3,119.52 -70.19,171.24 -2.87,4.02 -1.44,11.75 -0.64,17.57 8.09,58.59 33.16,106.39 87.64,134.69 36.41,18.91 51.5,43.14 45.71,74.47 -3.08,16.72 -9.84,23.07 -28.59,17.99 -54.43,-14.71 -112.46,-20.92 -147.99,-73.8 -4.1,-6.1 -12.32,-9.81 -19.17,-13.69 -51.56,-29.17 -82.58,-23.95 -126.86,16.93 -39,36.02 -59.07,86.89 -101.3,121.08 -31.8,25.75 -55.29,59.97 -63.77,103.29 -4.47,22.83 -21.05,41.35 -37.57,59.44 -11.26,12.32 -22.89,24.63 -33.26,37.54l0 0c-2.76,3.42 -5.41,6.88 -7.93,10.41l-1.38 2.08c-3.44,4.97 -6.57,10.09 -9.38,15.38l-4.11 8.4 -2.63 6.42c-1.8,4.93 -3.36,9.98 -4.41,15.24l-0.41 3.14c-0.8,4.83 -1.19,9.84 -1.24,14.99l0.07 5.22c0.26,6.35 0.88,12.84 2.41,19.72 1.85,8.36 -5.42,18.66 -8.19,28.12 -3.11,10.54 -6.57,20.88 -10.29,31.04 -27.52,75.21 -71.82,139.45 -135.01,191.42 -22.64,18.62 -36.49,48.19 -66.91,56.97 -51.1,14.75 -71.9,51.72 -76.17,100.97 -1.58,18.2 -3.45,37.96 -15.76,50.16 -21.4,21.2 -20.26,46 -20.14,71.83 0.17,33.76 1.69,67.59 -0.4,101.21 -2.05,33.05 8.4,53.06 43.3,57.78 26.98,3.64 55.34,16.02 58.54,43.04 6.25,52.78 44.95,81.81 74.18,117.72 16.89,20.75 29.22,40.75 31.25,68.34 6.59,88.76 7.5,88.16 93.04,116.7 25.07,8.36 53.28,10.12 67.22,41.55 23.05,51.97 53.46,100.72 75.75,152.97 28.36,66.57 53.77,84.1 124.9,80.22l12.58 -0.73 0 0.02c20.77,-1.23 41.63,-2.48 62.42,-0.72l0.54 0.04 1.02 0.1 3.11 0.31 1.13 0.12 0.43 0.05 1.56 0.19 1.52 0.19 0.03 0.01 3.12 0.43 0.36 0.05 1.19 0.19 0.56 0.08 1 0.17 3.11 0.55 1.15 0.21 0.4 0.08 1.35 0.27 0.21 0.04 1.53 0.32 0.02 0.01 1.55 0.34 0.18 0.04 1.37 0.32 1.55 0.37 0.58 0.14 0.98 0.25 0.76 0.2 0.79 0.2 0.96 0.26 0.59 0.17 1.15 0.32 0.39 0.12 1.36 0.4 0.19 0.05 1.55 0.48c26.18,8.19 39.46,21.88 37.53,51.47 -3.47,53.38 -3.86,106.93 -5.65,160.41 -1.51,45.44 21.8,66.08 65.94,58.07 15.62,-2.82 29.19,-6.98 40.93,-20.6 44.99,-52.32 95.15,-94.51 172.2,-83.43 29.75,4.26 52.41,-13.16 71.12,-35.81 15.1,-18.31 31.21,-35.84 47.91,-52.71 18.03,-18.2 36.38,-20.49 56.67,-0.91 36.77,35.52 75.83,68.68 112.14,104.63 50.72,50.24 106.07,85.48 181.92,81.63 49.32,-2.47 104,-15.02 147.48,5.3 62.13,29.06 129.66,45.22 188.75,78.21 61.24,34.22 122.85,49.63 191.34,41.17 20.78,-2.58 42.16,2.08 57.24,12.27 41.15,27.8 92.14,36.09 130.44,67.21 22.14,17.95 45.01,22.29 71.59,21.59 35.72,-0.99 71.5,-0.67 107.23,-0.14 20.15,0.31 42.13,0.74 58,-9.85 53.33,-35.52 112.46,-31.5 171.97,-33.26 85.97,-2.54 140.16,36.75 173.92,114.12 9.24,21.17 18.77,42.72 28.86,63.78 12.24,25.61 30.12,50.06 57.39,57.65 73.38,20.32 108.8,76.48 131.59,140.15 16.37,45.83 47.2,68.65 89.18,76.06 63.85,11.22 128.8,-1.58 186.62,-24.69 75.53,-30.16 135.08,-85.09 178.47,-156.88 44.49,-73.59 106.26,-117.94 198.93,-115.68 146.9,3.57 293.9,0.64 440.87,1.24 30.27,0.14 57.71,-0.81 82.3,-23.99 17.5,-16.51 43.22,-17.75 67.7,-17.36 41.7,0.64 83.43,-0.77 125.09,0.35 63.65,1.73 126.76,-2.39 189.59,-12.27 23.77,-3.74 42.47,-13.2 62.62,-28.15 46.74,-34.65 68.4,-86.36 99.37,-131.24 27.2,-39.37 61.95,-75.53 62.34,-130.81 0.14,-23.63 23.95,-48.12 52.46,-48.54 29.7,-0.46 53.48,-8.93 76.06,-27.09 12.38,-9.99 28.71,-15.95 44.62,-14.43 52.43,5.01 101.64,-12.45 152.37,-18.91 31.29,-3.95 52.53,-18.77 63.18,-46.04 13.51,-34.46 38.28,-47.66 72.99,-50.2 47.17,-3.42 80.22,-26.53 100.08,-70.91 14.22,-31.68 33.62,-38.66 61.21,-20.78 51.72,33.55 101.03,29.74 148.38,-4.76 47.8,-34.85 91.65,-30.3 135.04,6.03 12.35,10.38 24.73,18.77 42.12,19.34 55.21,1.83 111.27,8.53 149.83,-45.48 6.66,-9.34 18.06,-15.34 27.44,-22.68 29.67,-23.11 66.01,-30.3 92.93,-8.11 72.6,59.79 144.18,34.99 216.42,3.35 23.75,-10.41 47.95,-17.64 73.24,-22.44 59.66,-11.29 112.61,-3.49 158.36,42.23 33.76,33.72 64.77,69.39 89.22,109.75 21.03,34.71 47.84,54.78 88.02,62.4 108.05,20.5 107.88,21.49 140.65,127.85 10.87,35.21 14.78,37.89 47.31,15.73 19.05,-12.98 39.02,-19.93 53.16,-3.21 28.29,33.48 63.57,27.42 98.67,24.56 15.81,-1.27 31.44,-4.2 47.24,-1.55 37.85,6.24 51.22,37.67 28.89,69.28 -9.1,12.91 -20.49,24.24 -30.97,36.16 -12.84,14.57 -17.89,31.05 -9.6,49.21 8.29,18.24 25.83,15.46 41.46,15.49 23.7,0.11 49.03,-3.63 61.63,23.95 16.19,35.46 49.35,55.04 72.88,83.01 25.89,-9.35 37.54,-32.07 56.27,-46.18 11.5,-8.67 18.66,-20.14 23.18,-33.76 6.45,-19.4 21.3,-24.44 40.71,-28.15 75.24,-14.32 145.76,2.26 213.46,31.86 24.87,10.86 43.78,31.78 48.68,62.79 2.97,18.8 10.66,36.87 19.65,55 47.31,95.11 134.48,153.53 204.3,227.72 16.93,17.99 39.9,16.08 59.94,2.11 11.32,-7.9 21.48,-17.6 31.29,-27.41 54.18,-54.22 53.41,-43.85 82.44,6.74l0.29 0.51 0.11 0.19 0.19 0.32 0.23 0.38 0.07 0.13 0.3 0.51 0.04 0.05c6.1,10.12 13.92,19.42 21.45,29.03l0.32 -0.09c2.95,3.76 5.81,7.6 8.47,11.59 20.07,30.27 27.23,64.38 18.59,96.55 -11.36,42.3 -6.39,81.95 0.67,123.02 4.76,27.76 5.54,55.74 -17.85,77.54 -38.52,36.02 -41.31,78.14 -20.57,123.79 4.55,9.98 5.86,20.25 -0.24,28.11 -21.66,27.98 -21.42,67.63 -50.73,91.76 -8.51,6.99 -17.08,19.65 -17.4,29.95 -2.5,81.88 -17.18,165.7 42.37,237.63 14.4,17.36 27.2,26.25 48.93,25.51 21.7,-0.78 45.41,-3.14 62.73,12.2 45.54,40.36 96.87,77.58 107.35,143.66 6.88,43.39 27.58,75.77 61.95,103.04 29.28,23.28 42.82,26.95 76.37,5.79 10.06,-6.32 20.36,-12.17 30.52,-18.31 17,-10.34 34.29,-23.64 53.97,-6.99 17.64,14.89 16.55,35.46 10.76,55.04 -9.74,33.05 -9.56,66.74 -8.29,100.4 0.99,27.27 -7.69,49.49 -24.02,71.15 -46.01,61 -31.96,118.57 36.16,155.29 40.39,21.77 53.51,56.34 36.33,98.75 -4.37,10.83 -10.86,21.27 -18.24,30.41 -21.09,26.1 -20.53,49.42 4.59,72.88 32.7,30.55 58.88,68.51 104.78,83.29 12.24,3.92 23.77,15.1 31.82,25.79 16.08,21.41 37.39,35.56 60.36,46.78 31.29,15.31 60.18,32.63 97.72,37.82 67.27,9.27 94.65,66.46 110.59,124.24 25.65,93.21 10.13,189.27 10.2,284.06 0.03,18.42 -10.97,37.29 -23.46,53.59 -41.74,54.61 -40.36,92.11 7.09,140.33 39.86,40.54 78.17,83.93 137.48,97.9 11.39,2.68 23.49,8.85 20.42,24.09 -2.22,10.94 -12.66,15.1 -22.29,17.29 -11.5,2.57 -23.53,2.75 -35.18,4.76 -39.97,6.88 -79.51,-10.44 -117.97,-5.36 -42.05,5.54 -64.31,-13.26 -80.53,-45.01 -26.39,-51.55 -70.63,-66.4 -123.37,-61.78 -29.6,2.58 -57.93,12.28 -78.46,36.87 -25.96,31.08 -55.1,31.15 -89.64,12.35 -32.14,-17.54 -59.94,-38.99 -80.64,-68.69 -38.85,-55.67 -77.76,-53.55 -124.89,-15.49 -24.59,19.83 -45.82,21.1 -68.01,-1.02 -18.45,-18.38 -37.79,-14.75 -59.98,-6.49 -41.52,15.45 -46,13.76 -53.97,-30.69 -7.27,-40.61 -36.55,-65.48 -61.45,-91.9 -24.1,-25.54 -72.15,-20.04 -110.07,8.92 -33.48,25.55 -67.03,47.03 -110.88,48.69 -15.52,0.6 -29.49,7.97 -41.17,20.92 -23.78,26.42 -47.55,53.69 -75.39,75.42 -24.62,19.16 -31.18,44.27 -37.46,70.98 -9.49,40.53 2.01,78.49 16.58,115.57 4.23,10.72 16.4,20.85 8.57,32.39 -27.27,40.11 -12.84,84.87 -16.33,127.56 -1.13,13.93 -1.13,28.54 10.9,38.49 24.13,19.93 38.8,49.14 69.74,63.07 27.52,12.42 29.78,28.16 10.66,50.77 -17.75,20.95 -37.29,40.74 -58.14,58.6 -45.3,38.8 -42.09,87.27 -23.28,134.37 9.1,22.82 5.85,34.75 -6.81,52.6 -19.94,28.15 -44.88,44.31 -79.06,45.54 -33.9,1.2 -66.5,8.72 -99.45,16.12 -24.31,5.47 -42.61,21.45 -47.45,39.73 -8.89,33.51 -20.85,67.59 -12.06,104.84 13.58,57.65 4.16,76.03 -46,107.56 -18.42,11.57 -44.35,18.91 -51.9,38.14 -20,50.76 -69.67,67.8 -107.45,94.44 -28.23,19.89 -57.65,37.53 -82.41,62.47 -48.76,49.11 -57.19,98.92 -21.06,157.73 27.09,44.1 21.09,86.93 3.38,130.95 -4.02,9.98 -12.91,18.73 -22.82,12.46 -55.07,-34.96 -115.92,-16.44 -174.2,-19.79 -51.47,-2.93 -96.31,17.67 -136.78,48.18 -41.27,31.08 -51.82,118.51 -15.24,153.46 27.34,26.14 47.45,52.28 44.21,92.08 -0.57,6.74 4.55,15.13 9.31,20.89 36.87,44.34 54.68,107.51 122.41,121.77 10.02,2.09 19.62,13.87 26.18,23.39 12.81,18.66 30.2,21.87 51.12,23.88 35.28,3.35 73.41,3.57 101.63,28.15 28.86,25.15 62.23,41.5 95.15,59.16 62.23,33.38 127.91,47.06 198.72,36.41 35.2,-5.29 50.83,-24.69 57.68,-57.75 20.18,-97.47 21.8,-109.05 109.46,-39.3 49.67,39.52 81.85,32.85 104.81,-28.75 9.85,-26.35 25.65,-44.66 51.33,-52.71 17.47,-5.5 31.61,-15.09 46.82,-24.34 30.37,-18.41 60.78,-38.31 99.02,-35.91 12.45,0.75 21.24,-5.04 30.83,-13.9 60.19,-55.59 130.18,-86.12 214,-81.59 37.61,2.05 75.46,1.15 113.17,0.17 62.23,-1.62 105.59,48.37 163.37,59.02 5.93,1.13 10.58,11.22 15.07,17.71 13.54,19.47 30.48,37.68 39.26,59.2 22.08,54.08 55.17,107.38 26.63,169.93 -3.17,7.01 -4.02,15.35 -4.83,23.18 -4.37,41.52 20.04,64.31 60.33,55.2 48.08,-10.83 79.12,-43.71 98.7,-86.14 14.82,-32.07 21.52,-67.84 35.63,-100.29 40.71,-93.74 36.87,-182.85 -21.23,-268.5 -13.09,-19.27 -27.52,-29.11 -52.78,-30.52 -65.05,-3.64 -69.14,-9.32 -76.06,-72.75 -1.27,-11.7 -1.94,-24.27 0.85,-35.51 6.63,-26.86 3.03,-50 -15.49,-71.48 -18.87,-21.91 -17.04,-47.66 -8.39,-73.1 4.19,-12.24 15.09,-22.86 26.95,-14.6 32.28,22.47 71.79,20.07 106.54,35.14 81.88,35.53 169.08,-18.28 173.85,-105.77 1.51,-28.01 8.22,-51.01 30.26,-67.45 23.78,-17.74 34.68,-40.64 40.93,-69.35 6.56,-30.27 23.77,-54.23 60.18,-55.64 15.95,-0.6 32.17,-4.2 44.06,-15.77 25.47,-24.8 46.11,-18.24 71.93,2.68 35.35,28.65 65.34,23.32 98.08,-9.06 89.74,-88.9 177.69,-179.81 270.26,-265.68 60.39,-56.02 83.08,-121.71 76.13,-200.94 -0.71,-7.9 -1.06,-15.81 -2.05,-23.67 -3.38,-27.34 5.22,-42.3 35.99,-37.75 45.33,6.7 80.71,-12.98 111.26,-44.13 31.61,-32.18 65.3,-61.99 75.67,-110 4.38,-20.28 15.63,-40.74 32.74,-55.74 17.18,-15.03 25.54,-35.66 31.5,-56.41 21.24,-73.8 61.85,-134.3 120.69,-183.05 4.51,-3.74 8.01,-8.82 12.63,-12.39 11.82,-9.2 17.92,-21.41 18.13,-35.91 0.71,-46.95 11.64,-92.78 5.29,-140.97 -13.69,-103.12 -6.24,-109.04 96.52,-109.36 31.26,-0.11 60.64,1.52 87.91,-24.06 24.21,-22.72 58.46,-32.81 94.23,-28.89 24.7,2.72 45.12,-4.9 65.37,-21.13 44.8,-36.02 91.86,-41.28 139.45,-1.94 42.76,35.35 94.76,19.05 143.09,23.39 31.15,2.78 45.09,-20.68 63.54,-37.82 16.22,-15.1 31.61,-22.01 50.69,-1.73 19.93,21.24 48.15,17.85 73.24,14.57 44.73,-5.86 90.1,-11.75 133.06,-24.69 42.3,-12.74 78.25,-7.02 112.08,18.06 22.37,16.58 44.38,30.44 73.1,35.87 30.55,5.76 34.36,16.97 20.95,46.01 -13.51,29.31 -20.74,59.65 -21.87,91.58 -2.4,68.75 4.66,76.59 74.37,84.91 13.75,1.66 28.5,1.02 41.09,5.86 32.46,12.56 69.01,14.14 95.93,42.26 16.79,17.6 27.41,34.75 20.1,57.64 -6.91,21.7 -27.34,30.17 -47.59,28.83 -42.65,-2.86 -81.35,6.63 -119.16,25.64 -17.54,8.86 -37.58,12.92 -57.86,12 -27.94,-1.24 -50.31,5.01 -60.78,35.52 -10.73,31.26 3.38,52 22.89,73.87 33.52,37.61 71.19,59.84 124.25,52.07 27.23,-3.95 55.7,-2.82 83.26,-0.17 57.71,5.5 115.32,18.87 157.19,60.01 36.87,36.19 75.32,58.38 126.76,65.65 40.67,5.75 85.09,18.66 104.91,58.7 33.66,67.91 92.36,93.94 159.85,105.59 86.53,14.92 174.41,10.61 261.19,4.05 53.91,-4.09 111.2,-4.76 157.69,-42.47 14.4,-11.64 34.12,-8.61 51.97,-8.61 61.56,0.04 123.12,0.21 184.68,-0.07 44.06,-0.18 90.94,-2.75 125.59,-28.47 35.31,-26.25 70.62,-32.17 110.91,-31.18 21.7,0.52 43.43,1.51 64.7,-6.46 30.55,-11.43 57.5,-6.6 81,18.49 13.33,14.25 28.71,28.85 50.23,29.28 29.49,0.52 43.11,15.76 57.54,41.31 17.89,31.61 44.27,66.53 82.41,70.34 48.72,4.83 103.93,17.89 140.26,-36.41 6.95,-10.37 22.69,-15.24 34.86,-21.69 36.83,-19.51 38.95,-17.99 53.41,21.34 19.15,52.21 9.81,106.26 10.02,159.39 0.21,42.68 5.22,79.34 54.11,94.79 -8.15,12.73 -12.84,15.45 -19.33,15.24 -79.3,-2.68 -156.56,2.08 -223.91,52.42 -13.79,10.3 -31.82,15.95 -48.79,20.6 -14.07,3.88 -24.44,10.76 -34.92,20.64 -63.01,59.41 -141.46,86.39 -224.93,91.23 -72.85,4.23 -126.54,38.56 -176.28,84.84 -56.41,52.49 -107.95,109.96 -177.03,148.24 -51.61,28.57 -97.58,66.39 -139.2,108.76 -15.24,15.49 -27.38,38.3 -45.76,45.58 -70.94,28.04 -130.56,73.45 -191.06,117.33 -59.31,43.01 -107.6,90 -122.52,171.45 -20.04,109.36 90.7,217.17 199.53,211.1 26.21,-1.48 56.27,-3.21 78.21,-23.81 35.66,-33.55 78.14,-43.85 125.94,-40.29 25.65,1.91 51.65,1.42 77.4,0.15 77.08,-3.75 133.07,44.17 190.15,82.93 39.4,26.75 65.44,72.22 111.37,93.46 11.32,5.22 13.9,18.12 19.72,28.47 61.84,109.84 190.39,114.72 264.05,58.59 31.19,-23.78 59.73,-17 88.69,-3.18 40.39,19.33 78.74,40.68 109.43,76.48 55.57,64.92 89.5,137.87 97.3,222.4 2.57,27.66 -0.95,55.03 24.06,75.92 12.95,10.79 15.13,28.36 9.52,44.23 -13.68,38.74 -27.3,79.24 -54.64,109.48 -25.44,28.11 -39.37,58.16 -44.17,94.07 -8.43,63.01 -10.94,126.09 0.99,188.96 7.86,41.62 -4.98,63.42 -45.72,74.11 -9.53,2.51 -19.93,1.94 -29.21,4.95 -81.04,25.89 -114.69,74.15 -92.85,142.62 9.95,31.26 23.1,56.97 45.29,81.17 27.66,30.17 63.47,46.5 95.92,68.73 25.9,17.74 51.4,23.77 77.33,7.44 22.55,-14.19 36.9,-5.12 51.9,9.49 31.04,30.26 60,62.94 93.16,90.66 57.79,48.3 116.74,91.2 201.09,83.04 52.53,-5.07 106.47,-5.74 160.05,-4.05 27.8,0.88 56.52,-5.97 85.45,-17.39 48.47,-19.15 92.32,-43.78 135.99,-71.01 56.27,-35.14 104.95,-76.45 132.43,-138.46 4.98,-11.26 15.21,-18.07 21.67,-27.5 28.85,-42.08 74.75,-56.29 118.14,-74.58 38.24,-16.04 60.11,-41.16 59.44,-85.5 -0.81,-54.33 24.49,-98.81 61.85,-136.5 30.58,-30.87 65.33,-58.12 92.78,-91.47 34.64,-42.09 77.57,-66.74 129.4,-76.83 28.43,-5.54 49.38,-17.79 69.42,-39.8 45.33,-49.84 99.27,-83.74 172.16,-72.95 37.96,5.61 78.07,-0.49 110.28,-17.32 28.36,-14.86 45.43,-9.95 68.72,3.91 15.73,9.39 28.32,21.55 41.48,33.38 35.6,31.95 73.2,31.61 109.05,0.99 33.33,-28.54 52.56,-60.82 52.28,-107 -0.46,-65.45 42.44,-111.87 96.24,-130.49 52.56,-18.21 95.78,-47.42 136.91,-79.03 51.36,-39.51 92.11,-90.84 98.6,-160.58 2.86,-30.98 17.04,-58.71 39.12,-77.97 54.33,-47.41 154.2,-49.53 217.1,-9.62 73.59,46.67 140.27,101.34 200.84,164.14 36.58,37.92 71.54,40.57 115.5,12.09 18.84,-12.19 37.39,-21.16 60.57,-20.67 20.25,0.43 40.78,-6.62 55.6,-18.47 51.5,-41.32 100.75,-40.93 158.33,-9.14 63.07,34.81 134.3,10.51 171.27,-51.2 12.49,-20.85 29.91,-29.8 52.81,-32.95 35.31,-4.83 70.7,-9.63 105.62,-16.62 40.89,-8.18 76.73,-49.45 72.43,-88.53 -3.18,-28.79 -5.19,-59.48 -22.33,-85.28 -60.89,-91.43 -32.35,-197.17 73.69,-253.25 59.62,-31.55 78.85,-90.77 112.18,-140.66 4.7,-7.08 5.08,-19.93 2.44,-28.56 -17.36,-56.42 -46.89,-102.38 -107.7,-120.83 -16.94,-5.16 -36.13,-10.45 -48.33,-21.95 -24.45,-23.03 -52.32,-24.27 -82.59,-24.09 -102.87,0.6 -205.78,1.73 -308.61,-0.5 -43.25,-0.95 -80.4,8.08 -117.65,30.76 -33.41,20.37 -58.99,43.57 -77.58,78.6 -34.57,65.09 -82.19,74.29 -141.11,31.16 -7.87,-5.76 -13.3,-14.79 -21.06,-20.75 -20.78,-15.95 -34.15,-38.59 -52.39,-56.58 -28.78,-28.5 -83.01,-27.21 -91.12,5.58 -14.5,58.76 -60.85,96.4 -84.35,148.4 -16.08,35.59 -41.91,61.6 -84.74,65.12 -11.25,0.96 -21.9,8.26 -32.91,12.39 -37.01,13.89 -73.06,32.17 -111.27,40.5 -64.62,14.07 -115.04,-19.72 -158.82,-61.95 -56.76,-54.75 -110.87,-112.19 -166.86,-167.71 -43.36,-43.01 -63.22,-104.49 -113.24,-142.1 -2.86,-2.12 -4.69,-6.63 -5.51,-10.34 -10.9,-49.88 -60.74,-76.37 -74.68,-124.42 -92.71,-86.68 -144.99,-199.64 -199.67,-310.52 -53.06,-107.52 -82.16,-224.22 -121.99,-336.79 -2.61,-7.34 -2.19,-17.39 -7.13,-21.91 -42.12,-38.63 -36.97,-89.11 -36.69,-138.64 0.53,-98.11 45.58,-151.8 143.97,-171.49 15.45,-3.1 29.67,-7.9 43.78,-16.75 24.98,-15.7 51.54,-31.3 79.62,-38.99 27.7,-7.62 44.77,-22.96 56.27,-46.39 17.71,-36.09 48.83,-61.8 70.8,-94.75 18.31,-27.48 36.48,-27.34 65.76,-7.27 9.81,6.74 18.98,14.43 28.15,21.98 15.46,12.73 38.56,18.31 49.39,6.28 35.14,-39.09 87.74,-50.84 124.43,-88.13 52.42,-53.27 99.48,-113.34 162.84,-154.37 50.38,-32.56 93.42,-72.07 132.26,-116.81 14,-16.08 34.85,-25.82 41.17,-49.31 25.96,-96.28 103.32,-139.46 185.49,-177.45 53.83,-24.91 112.46,-35.42 168.41,-53.52 68.16,-22.05 139.88,-20.56 207.47,16.83 58.03,32.07 89.85,24.38 135.43,-21.98 35.92,-36.58 72.25,-72.78 108.73,-108.76 8.39,-8.29 17.14,-17.6 27.59,-22.22 53.16,-23.43 98.63,-60.05 155.39,-79.13 63.86,-21.45 123.55,-30.31 183.45,1.44 33.69,17.85 57.18,13.51 84.35,-12.24 82.02,-77.71 150.42,-170.07 253.57,-225.39 35.32,-18.91 73.66,-37.96 100.48,-71.33 4.23,-5.33 13.97,-8.64 21.23,-8.75 48.23,-0.81 97.16,-16.68 142.38,19.51 26.89,21.52 65.02,15.42 80.9,-6.03 19.96,-26.95 39.05,-54.82 55.73,-83.89 37.89,-65.97 71.65,-135.15 130.6,-185.56 32.21,-27.52 59.41,-68.3 107.32,-67.91 69.92,0.63 138,-12.74 206.97,-19.16 33.13,-3.07 66.01,2.08 93.03,-26.14 11.89,-12.42 33.16,-10.72 51.33,-10.44 29.77,0.46 59.83,2.5 89.32,-0.43 64.6,-6.45 130.57,8.08 194.17,-14.21 62.66,-22.02 100.68,-86.19 84.92,-148.98 -3.25,-12.98 -12.63,-24.38 -18.24,-36.9 -15.42,-34.54 -22.55,-66.71 12.2,-96.8 17.43,-15.1 29.5,-36.37 46.5,-53.34 31.43,-31.29 28.26,-70.95 -6.1,-101.5 -18.28,-16.23 -29.57,-37 -43.71,-55.98 -9.03,-12.14 -13.73,-24.98 -3.67,-38.1 18.7,-24.38 15.03,-52.53 15.1,-80.12 0.14,-69.5 0.21,-138.99 0.03,-208.49 -0.1,-51.47 20.64,-96.59 62.41,-121.89 54.5,-33.05 108.9,-71.26 180.87,-62.19 44.27,5.61 82.69,-11.64 117.23,-45.33 27.69,-26.99 46.99,-66.11 87.56,-77.9 55.03,-15.98 71.96,-58.06 75.63,-107.95 2.67,-35.96 -1.36,-72.41 0.87,-108.38l0.19 -0.02 0.14 -4.7c6.46,-82.19 18.45,-101.03 101.28,-99.48l4.96 0.08 3.89 0.06 1.07 0.02 4.96 0.06 2.82 0.03 2.13 0.02 4.96 0.04 1.76 0.01 3.2 0.01 4.95 0.02 0.69 0 4.27 0 4.57 0 0.38 -0.01 4.95 -0.01 3.51 -0.02 1.45 -0.01 4.95 -0.04 2.44 -0.01 2.51 -0.03 4.95 -0.06 1.38 -0.01 3.58 -0.06 4.95 -0.07 0.31 0 4.64 -0.09 4.19 -0.07 0.76 -0.02 4.95 -0.1 3.12 -0.07 1.83 -0.04 4.94 -0.12 2.06 -0.05 2.89 -0.08 4.95 -0.13 0.99 -0.03 3.96 -0.12 4.87 -0.14 0.07 -0.01 4.95 -0.15 3.81 -0.13 1.14 -0.04 4.94 -0.17 2.74 -0.09 2.21 -0.09 4.94 -0.18 1.68 -0.06 3.27 -0.13 4.94 -0.2 0.61 -0.02 4.34 -0.18 4.48 -0.19 0.46 -0.02 4.94 -0.21 3.42 -0.15 1.52 -0.07 4.95 -0.22 2.35 -0.11 2.59 -0.12 4.94 -0.23 1.29 -0.07 3.65 -0.17 4.94 -0.24 0.23 -0.02 4.72 -0.23 4.09 -0.21 0.85 -0.04 9.88 -0.51 4.94 -0.26 1.96 -0.11 2.98 -0.15 32.28 -1.79 2.29 -0.12 49.38 -2.82 0.07 -0.02c82.61,-4.77 165.21,-9.27 248.01,-9.11 109.22,0.14 218.44,0.21 327.66,-0.11 63.36,-0.21 120.33,-52.32 126.01,-114.86 4.41,-48.69 4.76,-97.44 4.41,-146.2 -0.24,-31.03 -0.78,-62.09 -0.79,-93.11l0 -1.9 0 -1.34 0 -0.56 0.01 -3.8 0 -1.9 0.01 -0.96 0 -0.94 0.01 -1.9 0 -0.76 0.01 -1.14 0.01 -1.9 0.01 -0.57 0.01 -1.33 0.01 -1.9 0.01 -0.38 0.01 -1.51 0.02 -1.9 0 -0.19 0.02 -1.71 0.02 -1.9z"/>
    <path class="fil1 str0" d="M18612.76 14379.14c-41.06,-38.41 -90.27,-34.71 -139.87,-34 -19.8,0.28 -39.62,-1.45 -59.41,-2.23 -36.51,-1.41 -62.34,-17.14 -79.84,-50.83 -30.55,-58.91 -80.32,-83.79 -147.14,-78.42 -35.56,2.82 -70.84,6.49 -106.15,11.46 -34.5,4.87 -68.09,2.72 -88.69,-32.24 -14.25,-24.2 -41.98,-28.68 -62.65,-43.46 -9.88,-7.06 -20.22,-14.29 -17.53,-28.26 2.54,-13.27 12.66,-19.05 25.61,-20.6 35.56,-4.34 68.33,-14.71 100.57,-32.25 34.96,-18.98 72.22,-11.39 108.02,7.09 68.44,35.35 124.61,25.51 181.83,-28.47 23.67,-22.29 41.13,-33.33 80.82,-13.9 49.7,24.35 108.86,31.61 159.88,58.18 10.47,5.47 23.46,8.53 31.04,16.68 23.32,25.09 47.73,45.23 84.39,47.14 21.06,1.05 29.98,16.75 30.62,38.48 -1.41,4.45 -1.59,11.64 -5.26,15.42 -27.2,28.22 -24.62,65.51 -30.8,99.87 -3.53,19.65 -6.38,38.98 -16.93,56.41 -12.03,19.93 -29.74,31.47 -48.51,13.93z"/>
    <path class="fil1 str0" d="M18713.27 14564.78c-40.29,0.24 -49.25,-8.26 -49.21,-45.62 0,-21.38 -3.11,-46.42 27.58,-50.37 15.98,-2.05 71.55,51.92 68.58,67.02 -5.43,27.87 -29.14,27.91 -46.95,28.97z"/>
    <path class="fil1 str0" d="M19553.27 15196.88c33.51,23.6 68.26,45.13 85.58,85.62 9.49,22.13 28.82,36.4 46,52.57 22.79,21.48 42.37,46.11 57.54,73.72 8.4,15.29 8.43,30.48 -4.97,43.22 -12.74,12.1 -28.61,15.74 -43.18,5.65 -35.77,-24.76 -72.04,-46.15 -116.56,-53.06 -12.84,-1.98 -25.12,-18.58 -34.36,-30.97 -32.53,-43.78 -27.76,-127.84 9.95,-176.75z"/>
    <path class="fil1 str0" d="M18925.82 14206.28c-14.5,-0.67 -24.13,-9.8 -28.58,-23.7 -3.56,-11.15 3.42,-18.66 13.23,-22.65 7.16,-2.89 14.96,-5.86 22.47,-5.93 17.22,-0.21 23.89,-30.3 45.41,-15.56l3.06 9.71c-3.03,13.58 -44.37,57.08 -55.59,58.13z"/>
    <path class="fil1 str0" d="M19128.42 14579.49c-1.17,14.92 -5.01,28.08 -21.31,30.87 -16.09,2.71 -25.15,-8.72 -31.61,-21.52 -7.37,-14.61 -5.22,-30.8 -7.02,-46.39 -4.06,-35.28 -15.13,-43.25 -50.55,-38.25 -7.76,1.13 -15.14,4.94 -22.9,5.75 -32.77,3.57 -49,-8.14 -52.31,-40.56 -2.23,-21.45 -0.43,-43.36 -0.43,-74.62 1.24,-15.91 -4.41,-41.87 3.32,-66.88 9.03,-29.18 24.87,-36.45 47.13,-18.35 34.64,28.12 63.82,62.69 105.51,82.38 8.65,4.05 16.41,19.12 16.97,29.52 2.9,52.85 17.4,104.64 13.2,158.05z"/>
    <path class="fil1 str0" d="M19187.68 14723.88c41.7,3.99 87.88,19.37 100.83,80.47 2.01,9.38 8.68,18.27 0.6,27.23 -7.52,8.33 -17.75,9.07 -26.99,4.38 -37.92,-19.16 -75.95,-38.14 -112.92,-59.02 -12.14,-6.88 -18.45,-20.08 -10.73,-35.42 7.94,-15.77 19.47,-24.38 49.21,-17.64z"/>
   </g>
   <g id="_1347109739264">
    <path class="fil2" d="M20285.92 8442.96l-52.02 0 9.68 -52.57c1.15,-5.72 2.87,-12.53 3.33,-18.03l55.73 0c-0.6,7.23 -16.19,64.3 -16.72,70.6zm-527.64 -70.6l55.74 0c0.44,5.31 2.05,11.72 3.17,17.26l6.82 34.99c1.01,4.99 3.01,13.48 3.01,18.35l-52.02 0 -8.35 -35.32c-1.39,-5.73 -2.93,-10.97 -4.26,-17.1 -1.39,-6.38 -3.36,-12.32 -4.11,-18.18zm449.61 70.6l-57.59 0c2.16,-4.51 3.87,-11.87 5.46,-16.84 1.81,-5.67 3.44,-11.45 4.96,-17.34 1.77,-6.91 8.03,-30.5 8.16,-36.42l52.02 0 -10.1 52.14c-1.02,6.2 -2.91,11.98 -2.91,18.46zm-86.39 0l-78.03 0c0,-24.23 1.86,-45.58 1.86,-70.6l97.54 0c-4.36,18.69 -8.33,36.28 -14.27,54.46 -2.44,7.45 -3.76,16.14 -7.1,16.14zm-203.44 -70.6l97.53 0c0,25.02 1.86,46.37 1.86,70.6l-78.03 0c-3.35,0 -3.22,-3.7 -4.12,-7.03 -3.72,-13.97 -8.55,-27.1 -12.97,-44.62 -0.84,-3.32 -1.27,-5.66 -2.05,-9.1 -0.55,-2.4 -1.59,-8.43 -2.22,-9.85zm-78.03 0l52.02 0c0.18,8.29 14.81,62.75 18.58,70.6l-57.6 0c0,-6.48 -4.93,-27.85 -6.25,-35.56l-6.75 -35.04zm-98.47 -72.46l577.8 0c-1.77,7.58 -3.78,16.12 -5.35,23.46 -1.11,5.21 -4.87,19.86 -4.87,23.91l-557.36 0c0,-4.9 -1.22,-7.27 -2.23,-11.7 -1.06,-4.64 -1.67,-7.64 -2.65,-12.21l-5.34 -23.46zm540.65 -601.95l52.95 0c9.05,38.85 16.83,77.89 23.75,119.3 3.41,20.39 6.96,41.54 8.79,62.75 0.43,5.05 1.53,10.85 1.8,15.84 1.33,24.2 2.81,36.37 2.81,63.14 0,63.81 -19.34,176.17 -32.12,240.05l-15.25 75.79 -57.6 0 13.41 -73.92c6.74,-40.31 12.67,-73.38 17.33,-113.65l7.3 -80.01c0.56,-6.74 -0.46,-14.53 0.1,-21.27 2.17,-26.26 -0.05,-65.03 -0.05,-92.94 0,-52.37 -8.76,-112.03 -17.38,-163.76l-5.84 -31.32zm-527.65 266.6c0,7.74 0.08,14.16 0.8,20.58 0.77,6.87 -0.4,15.13 0.18,22.11 3.58,43.21 5.87,74.88 12.3,118.68 4.3,29.35 12.77,82.27 18.85,112.13l6.89 36.77 -57.59 0c-0.41,-4.92 -2.57,-13.75 -3.72,-18.58 -1.44,-6.04 -2.48,-12.23 -3.78,-18.51 -16.25,-78.5 -48.6,-247.56 -38.28,-324.52l3.02 -33.21c4.13,-48.12 22.1,-137.25 32.54,-182.05l52.95 0c-9.15,39.25 -18.95,119.04 -22.25,158.9l-0.98 35.25c0,25.15 -0.93,47.23 -0.93,72.45zm117.05 70.6c17.6,0 12.99,-18.25 12.96,-22.27l1.94 -34.35c0.11,-9.01 0.8,-14.91 0.86,-23.3 0.13,-18.62 6.69,-67.11 8.42,-87.26 3.34,-38.89 9.52,-90.98 14.56,-129.42l4.26 -31.96c0.46,-3.37 -0.3,-8.64 3.45,-8.64l99.39 0 0 87.32c0,17.27 26.01,17.27 26.01,0l0 -87.32 99.4 0c3.92,0 3.56,9.67 4.81,18.42 6.81,47.68 12.79,102.45 17.4,150.73 1.77,18.57 6,46.14 6.59,64.94 0.43,13.8 2.74,27.69 2.75,45.55 0,5.38 0.85,6.33 0.99,11.09 0.12,3.93 -0.24,8.2 -0.03,12.11 0.23,4.28 0.98,5.79 0.97,11.14 0,4.62 -4.82,23.22 12.96,23.22 18.86,0 11.08,-37.39 11.17,-55.75 0.03,-5.4 -0.72,-6.81 -0.95,-11.12 -0.21,-3.88 0.27,-8.19 -0.05,-12.04 -1.14,-13.88 -2.87,-29.87 -3.64,-43.73 -1.37,-24.78 -7.51,-60.2 -9.28,-86.4 -0.98,-14.57 -3,-29.79 -4.6,-43.7l-8.03 -63.5c-0.66,-4.55 -2,-18.47 -3.19,-20.96l85.46 0 9.24 52.07c2.47,18.06 5.05,35.53 7.64,53.67 8.39,58.72 7.27,113.28 7.27,173.87 0,76.27 -20.56,203.45 -35.84,279.07l-3.17 18.19 -52.95 0 8.21 -62.19c-0.33,-14.92 -22.29,-19.88 -25.77,-0.89 -1.3,7.08 -1.52,14.27 -2.97,21.19 -1.2,5.71 -1.19,14.4 -2.17,21.05 -1.04,7.02 -2.8,14.65 -3.31,20.84l-117.05 0 0 -25.08c0,-10.72 -1.01,-19.08 -0.91,-28.82 0.06,-5.79 -0.19,-8.96 -2.84,-12.02 -5.36,-6.2 -25.3,-10.1 -25.07,12.02 0.11,9.74 -0.91,18.1 -0.91,28.82l0 25.08 -117.04 0c-0.5,-6.02 -2.18,-13.18 -3.19,-20.04 -0.53,-3.57 -1.31,-7.37 -1.46,-10.62 -0.36,-8.09 -2.83,-35.44 -6.89,-40.48 -5.62,-6.98 -21.43,-5.92 -22.63,8.18 -0.39,4.45 6.63,56.42 8.16,62.96l-52.95 0 -12.87 -70.73c-7.13,-42.89 -17.78,-103.26 -21.42,-146.72 -4.91,-58.62 -4.73,-79.97 -4.73,-137.4 0,-40.35 2.08,-80.6 7.15,-115.48 4.83,-33.23 8.08,-60.53 14.61,-93.15 0.84,-4.19 2.31,-9.39 2.4,-13.39l85.46 0c-1.28,2.66 -2.41,15.58 -3.07,20.15 -0.98,6.67 -1.79,13.82 -2.78,21.38 -3.03,23.1 -8.39,62.22 -9.91,84.84 -1.01,14.93 -3.27,29.67 -4.59,43.71 -1.33,14.11 -4.12,28.56 -4.73,42.65 -0.78,18.27 -3.44,35.41 -3.68,55.77 -0.06,5.16 -0.94,5.91 -1,11.07 -0.14,11.49 -2.18,36.32 -0.78,45.44 0.92,6.02 5.27,12.19 11.96,12.19zm-127.26 -405.94l572.22 0c3.39,0 2.91,3.22 4.46,9.48l8.54 34.18 -598.23 0 9.75 -39.48c0.67,-2.56 0.33,-4.18 3.26,-4.18zm299.12 -43.66c0,-18.75 0.93,-34.25 0.93,-52.95l65.96 0 17.65 70.6 -84.54 0 0 -17.65zm-92.89 -52.95l65.95 0 0.93 70.6 -84.53 0c0.25,-3.05 1.16,-5.57 1.97,-8.25 0.79,-2.65 1.43,-5.66 2.35,-8.8 1.79,-6.15 3,-11.31 4.6,-17.69 3.08,-12.3 5.97,-24.02 8.73,-35.86zm186.71 0l80.82 0 13.7 52.25c1.16,5.49 3.84,13.38 3.95,18.35l-78.96 0c-3.58,0 -4.24,-8.72 -6.12,-16.17 -2.93,-11.68 -12.14,-44.69 -13.39,-54.43zm-233.17 70.6l-78.96 0c0.1,-4.21 6.73,-29.69 8.18,-35.49 1.55,-6.2 3.13,-12.17 4.64,-17.65 1.39,-5.07 2.94,-13.52 4.83,-17.46l80.82 0 -15.42 62.62c-0.85,3.57 -0.71,7.98 -4.09,7.98zm340.93 -70.6l47.38 0 19.5 70.6 -49.23 0 -17.65 -70.6zm-446.83 70.6l-49.23 0c5.22,-22.41 15.07,-51.55 19.51,-70.6l47.37 0c-2.67,11.48 -6.66,23.23 -9.05,34.6 -2.6,12.36 -5.82,24.06 -8.6,36zm-135.62 349.28l4.49 70.75c5.2,49.25 11.29,83.82 19.13,131.36 7.48,45.34 26.59,140.03 38.44,187.29l21.73 91.6c2.3,9.21 6.32,20.59 6.32,31.77 19.54,13.09 16.37,2.79 23.22,2.79l509.05 0c6.85,0 3.68,10.3 23.23,-2.79 0,-11.12 3.69,-21.26 6.13,-31.03 17.72,-70.88 34,-144.1 48.29,-215.52 7.54,-37.69 17.49,-90.24 22.63,-127.86 2.16,-15.76 9.78,-67.92 10.27,-83.56 0.16,-5.17 0.46,-11.98 1.06,-17.51 0.63,-5.73 0.75,-10.8 0.76,-17.82 0.02,-15.34 1.78,-13.96 0.08,-34.38 -0.64,-7.73 0.4,-20.25 -1.36,-32.08 -0.67,-4.42 -1.17,-11.28 -1.44,-15.28 -1.2,-17.78 -8.34,-68.84 -12.19,-88.14 -9.68,-48.53 -16.8,-89.57 -28.7,-138.5 -8.8,-36.15 -28.33,-114.93 -38.65,-145.29 -2.38,-6.99 -5.63,-6.09 -6.88,-10.76l-555.5 0c-1.86,6.96 -3.22,-2.46 -10.55,22.9 -2.64,9.17 -4.78,16.92 -7.29,26.14l-39.82 160.83c-7.94,38.44 -26.06,128.26 -28.73,171.92 -0.26,4.21 -0.65,10.84 -1.33,15.4 -0.73,4.95 -0.63,11.31 -1.21,15.51l-1.18 32.26z"/>
    <path class="fil2" d="M19940.36 7819.64l-9.36 67.74c-0.41,5.48 -2.21,10.73 -2.69,16.82l-13.59 93.23c-0.52,3.22 -0.63,6.87 -1.01,9.21l-12.36 85.18 -22.3 0 0 68.74 84.53 0c3.95,0 2.15,-3.83 4.26,-15.26 1.09,-5.92 1.27,-11.65 2.24,-17.26 0.5,-2.88 0.84,-4.66 1.36,-7.93l31.39 -224.99c0.3,-2.25 1.39,-5.8 1.63,-8.6 2.9,-0.24 3.3,-0.92 6.5,-0.92l23.22 0 0 -68.75 -93.82 0 0 2.79z"/>
    <polygon class="fil2" points="20046.26,8079.74 20120.57,8079.74 20120.57,7816.85 20046.26,7816.85 "/>
    <polygon class="fil2" points="19977.52,8160.56 20156.8,8160.56 20156.8,8091.82 19986.81,8091.82 "/>
   </g>
  </g>
 </g>
</svg>
