<?xml version="1.0" encoding="UTF-8"?>
<!DOCTYPE svg PUBLIC "-//W3C//DTD SVG 1.1//EN" "http://www.w3.org/Graphics/SVG/1.1/DTD/svg11.dtd">
<!-- Creator: CorelDRAW 2020 (64-Bit) -->
<svg xmlns="http://www.w3.org/2000/svg" xml:space="preserve" width="188.666mm" height="188.666mm" version="1.1" style="shape-rendering:geometricPrecision; text-rendering:geometricPrecision; image-rendering:optimizeQuality; fill-rule:evenodd; clip-rule:evenodd"
viewBox="0 0 18866.6 18866.6"
 xmlns:xlink="http://www.w3.org/1999/xlink"
 xmlns:xodm="http://www.corel.com/coreldraw/odm/2003">
 <defs>
  <style type="text/css">
   <![CDATA[
    .fil0 {fill:white}
   ]]>
  </style>
 </defs>
 <g id="Слой_x0020_1">
  <metadata id="CorelCorpID_0Corel-Layer"/>
  <g id="_2858758480096">
   <path class="fil0" d="M8142.69 17895.66c56.22,0 120.97,10.65 172.31,17.85 56.31,7.91 109.44,15.64 166.48,23.68 106.66,15.04 227.77,30.91 349.41,30.91l1118.32 0c190.7,0 344.23,-36.22 561.43,-36.22 15.15,0 26.6,41.76 34.57,65.03 28.64,83.58 46.92,178.05 46.92,270.02 -63.61,0 -114.65,4.69 -181.21,4.42l-181.02 9.14c-47.85,2.52 -129.47,13.47 -176.55,13.6l-264.52 20.73c-48.76,7.31 -212.58,9.05 -267.83,17.4l-368.65 11.68c-372.41,0 -707.45,-42.79 -1009.66,-113.19l0 -335.05zm839.07 -17888.63l736.54 0c53.45,0 304.3,9.11 346.72,15.49 110.24,16.59 221.85,14.61 329.24,28.45 43.45,5.6 87.93,8.33 126.81,13.54l252.54 32.7c315.51,34.85 761.1,137 1074.53,215.83 185.65,46.7 368.52,104.98 549.94,165.44l316.98 113.14c172.06,62.31 340.55,133.72 508.92,206.44 34.35,14.83 65.76,29.14 99.83,45.06l528.21 259.6c187.28,92.61 499.19,287.28 675.5,397.54l258.14 171.98c28.68,19.21 53.09,38.71 82.34,58.02 29.68,19.59 56.91,39.27 84.92,59.97l167.49 122.27c27.16,20.38 53.55,38.88 79.8,60.57l160.55 124.68c53.31,43.61 104.66,83.72 156.41,128.82 8.88,7.74 11.47,8.28 20.18,16.05 8.14,7.25 9.57,9.94 18.97,17.25 15.77,12.27 24.29,20.69 39.5,32.94l149.79 135.45c13.98,13.84 24.16,19.22 38.61,33.83 177.82,179.86 361.2,354.27 536.58,536.48l172.05 185.63c54.2,56.27 129.42,146.38 181.28,208.09 7.27,8.65 10.09,10.96 16.7,19.52 10.17,13.15 21.17,25.14 33.11,39.34 114.47,136.2 282.86,342.37 378.02,482.22l118.63 166.61c19.93,28.08 38.66,57.25 59.53,85.36 51.26,69.02 96.68,142.47 141.58,216.1 10.28,16.86 18.13,26.82 28.33,44.1l53.95 86.42c20.07,30.54 35.93,58.63 54.73,90.15l105.57 179.67c8.53,15.76 16.14,29.46 25.72,46.72l125.14 228.02c34.07,60.87 63.52,126.86 95.14,190.1l268.21 592.03c110.77,277.82 215.14,556.7 298.15,847.35l175.79 684.45c16.13,75.67 32.65,158.95 48.33,236.91 35.24,175.32 96.3,555.5 109.16,746.56 2.84,42.07 11.57,89 13.4,131.49l31.88 466.16c0.03,22.51 -1.73,50.49 0.08,72.35 1.9,22.99 3.29,48.34 4.29,75.29l0 436.57c0,101.76 -8.89,193.05 -8.9,289.92 -0.01,29.3 -5.05,40.38 -4.68,72.29 0.34,30.66 -4.48,41.12 -4.65,67.8 -0.31,47.52 -7.69,88.92 -8.89,135.99 -2.2,85.66 -17.73,184.29 -26.45,267.85 -9.5,91.01 -19.65,177.41 -31.68,262.62 -36.72,260.42 -79.17,500.61 -133.21,754.2 -16.83,79.01 -37.36,157.63 -55.11,239.18 -9.23,42.4 -20.41,78.42 -30.74,118.66 -48.97,190.56 -103.7,385.12 -165.99,572.03 -49.14,147.49 -96.78,290.35 -152.59,436 -90.92,237.3 -161.38,396.57 -258.69,624.19 -15.03,35.16 -33.21,67.12 -47.89,101.52 -76.69,179.7 -186.14,368.53 -273.31,541.67 -9.27,18.41 -16.13,27.45 -25.68,46.76 -8.43,17.04 -16.87,30.82 -25.93,46.52 -8.47,14.7 -16.7,30.93 -26.05,46.38 -73.88,122.15 -141.68,249.59 -219.09,369.5l-86.03 135.83c-10.87,16.19 -17.53,26.77 -28.18,44.25 -55.39,90.86 -120.32,175.84 -180.09,263.62l-127.29 171.54c-22.84,27.97 -40.61,53.32 -63.4,81.48 -71.49,88.3 -141.42,178.16 -216.96,262.97l-153.99 176.52c-15.02,14.68 -20.27,24.41 -33.89,38.56l-178.93 192.34c-35.78,35.47 -77.33,70.21 -107.54,109.79 -30.78,40.34 -73.19,76.02 -109.7,112.14 -13.98,13.83 -24.16,19.21 -38.62,33.83 -25.82,26.12 -48.66,48.75 -74.66,74.75l-76.97 72.44c-80.53,80.67 -167.71,150.79 -251.34,228.59 -7.16,6.67 -10.75,11.65 -18.09,18.13l-80.68 68.73c-9.4,7.31 -10.83,10 -18.97,17.26l-345.78 283.55c-14.93,11.12 -25.99,20.66 -40.74,31.7 -14.39,10.77 -27.13,19.66 -41.17,31.27l-213.55 157.72 -624.98 407.31c-169.9,101.72 -339.95,204.76 -517.21,293.24 -34.02,16.99 -60.45,34.74 -95.28,49.61l-203.14 91.15c-245.37,103.04 -489.62,203.69 -737.99,298.84 -36.36,13.93 -69.22,27.34 -105.5,39.38 -35.75,11.87 -73.55,27.65 -109.82,39.59 -20.03,6.59 -33.1,12.69 -53.12,19.32 -90.29,29.89 -179.52,64.8 -274.89,91.86 -21.61,6.12 -36.81,12.19 -57.89,19.07l-167.45 49.88c-155.29,44.87 -305.76,82.11 -468.39,120.19 -286.74,67.14 -598.16,108.45 -896.6,140.23l-204.25 17.61c-17.69,1.36 -46.06,2.58 -67.51,4.92 -43.44,4.76 -88.58,4.76 -136.26,8.63 -90.59,7.37 -184.34,11.97 -281.13,13.16l-927.98 13.77 -403.63 -17.44c-21.42,-2.35 -49.88,-3.56 -67.54,-4.9l-317.48 -31.16c-163.56,-20.34 -322.75,-41.27 -483.27,-73.62 -152.26,-30.69 -307.99,-60.71 -458.55,-98.35 -416.68,-104.18 -675.97,-190.43 -1063.6,-330.9 -164.96,-59.78 -517.35,-206.7 -686.17,-291.8 -246.44,-124.22 -497.33,-241.88 -734.11,-384.21l-347.58 -209.32c-114.68,-70.23 -224.28,-146.66 -336.06,-220.84 -15.37,-10.2 -24.59,-17.57 -39.8,-28.11l-444.93 -324.77c-106.21,-79.46 -206.42,-169.04 -308.5,-248.39 -25.57,-19.88 -50.96,-42.22 -75.92,-64.44l-76.11 -64.25c-38.27,-29.64 -73.15,-69.03 -109.9,-98.36l-74.27 -66.09c-14.28,-14.5 -20.02,-19.63 -35.74,-32.18l-423.83 -413.78 -266.87 -290.02c-53.89,-63.34 -97.65,-138.9 -144.42,-208.74l-484.46 -697.25c-19.27,-28.91 -39.14,-56.3 -55.93,-84.42l-109.74 -170.97c-91.43,-142.5 -175.39,-289.57 -262.61,-434.65 -70.87,-117.9 -133.96,-238.84 -195.33,-361.57 -270.29,-540.59 -482.7,-1082.5 -643.23,-1724.72 -115.67,-462.8 -261.58,-1068.42 -283.45,-1527.59 -2.75,-57.66 -13.63,-141.23 -13.71,-199.09l-4.37 -1344.87 0 -3.16c0.1,-67.69 3.16,-209.05 11.67,-265.88l10.81 -129.54c20.75,-306.68 108.13,-778.71 182.13,-1076.55 142.75,-574.54 317.58,-1139.34 557.57,-1679.07 14.84,-33.36 30.42,-66.04 43.1,-97.26 7.85,-19.31 15.55,-31.98 23.21,-49.23 7.63,-17.13 12.38,-29.23 21.19,-46.73 16.51,-32.78 28.87,-62.25 45.28,-95.08 138.98,-277.95 283,-552.82 433.03,-821.12 67.47,-120.65 141.59,-233.28 215.91,-345.51l115.12 -165.59c21.02,-28.89 37.94,-52.41 58.86,-81.5 116.4,-161.91 243.93,-314.71 363.54,-474.07 82.75,-110.26 149.69,-187.63 237.82,-287.39 37.76,-42.74 74.71,-88.81 115.5,-128.99 14.52,-14.32 18.96,-21.71 31.72,-36.19 11.24,-12.77 22.64,-21.27 33.88,-34.03l167.51 -181.13c43.77,-47.32 92.09,-91.98 138.15,-138.03 110.09,-110.1 146.54,-145.11 257.79,-235.72l267.4 -221.58c36.49,-33.93 75.88,-62.52 110.91,-97.36l56.4 -47.74c7.97,-6.75 10.86,-11.01 18.8,-17.42 13.55,-10.95 24,-19.45 37.52,-30.39 129.64,-104.97 258.66,-211.28 397.79,-303.99 167.56,-111.64 333.93,-227.16 506.88,-330.73 14.1,-8.45 29.59,-18.14 44.61,-27.84l215.08 -129.02c60.56,-33.84 118.2,-70.62 179.74,-100.97l90.72 -49.63c28.95,-16.82 60.21,-28.53 89.48,-46.35 57.48,-35.01 126.44,-64.17 186.5,-94.21 61.64,-30.81 121.21,-60.61 184.13,-92.06 111.58,-55.8 224.65,-102.15 338.07,-155.44 80.82,-37.98 163.96,-67.66 247.5,-101.13l254.08 -94.55c122.19,-40.83 244,-84.53 368.82,-120.16 37.48,-10.7 70.49,-21.63 107.96,-32.4 419.66,-120.6 821.5,-203.22 1267.18,-267.68 164.04,-23.72 328.52,-42.93 500.91,-55.98 16.01,-1.22 46.71,-4.08 65.59,-6.85l388.93 -24.55zm2194.43 18155.76c-68.4,0 -72.55,-72.31 -87.2,-148.23 -12.47,-64.59 -24.74,-132.21 -39.57,-195.87 55.99,0 121.72,-7.78 174.08,-16.07 131.5,-20.82 261.08,-51.28 388.33,-87.08 366.99,-103.26 639.48,-213.24 982.11,-353.54l133.29 -56.87c25.25,-10.53 44.92,-20.5 69.22,-30.39l195.31 -89.93c103.83,-52.44 213.68,-101.42 321.48,-158.45 2.05,92.46 142.77,314.19 144.88,339.57 -41.32,21.86 -84.84,42.42 -126.78,63.39 -219.68,109.88 -450.23,194.93 -679.14,285.24 -320.38,126.39 -843.7,290.39 -1169.03,370.36 -67.94,16.71 -255.7,77.87 -306.98,77.87zm-5786.3 -1172.65l508.4 243.19c44.24,19.04 83.82,37.34 128.45,57.18l403.16 167.32c346.76,135.31 724.28,270.6 1093.73,318.89 15.43,2.01 28.72,0.29 43.8,1.47 17.87,1.41 21.95,4.28 45.53,4.28 0,23.71 -8.52,67.16 -12.4,87.21 -6.04,31.19 -11.84,56.83 -19.26,84.88 -9.35,35.29 -40.15,134.55 -40.78,162.95 -300.42,0 -937.93,-230.02 -1219.23,-342.79 -112.43,-45.07 -307.23,-120.55 -413.72,-170.34l-667.09 -315.42c2.03,-24.37 18.69,-60.35 28.62,-80.05 24.73,-49.09 60.85,-87.98 88.98,-137.4 14.25,-25.04 19.68,-56.08 31.81,-81.37zm8597.96 67.91c-6.55,-28.13 -110.99,-188.93 -134.01,-223.68 -13.39,-20.21 -42.09,-53.65 -47.1,-75.14 270.46,-181.11 604.36,-398.66 859.63,-602.8l88.62 -69.84c12.7,-9.92 18.38,-15.8 29.72,-24.61 19.48,-15.15 36.18,-30.9 56.93,-47.21l274.81 -245.87c74.74,-71.93 138.99,-144.09 208.19,-212.88 65.09,-64.72 139.64,-156.88 209.74,-211.33 52.73,-40.95 48.83,-45.74 119.63,-93.16 4.65,4.04 8.77,7.68 15.36,11.81 72.06,45.11 119.81,51.37 192.33,142.71 17.41,21.93 37.24,47.01 50.39,71.86 -11.68,22.08 -30.29,44.23 -45.28,63.39 -7.63,9.76 -15.3,19.96 -24.03,30.3l-265.06 278.25c-44.98,35.88 -141.68,137.28 -200.57,184.29l-353.11 307.91c-20.57,16.62 -38.26,32.26 -59.26,49.4 -21.11,17.22 -39.77,30.44 -60.95,47.73 -40.62,33.16 -82.52,62.73 -123.64,93.67l-318.22 229.64c-120.34,90.26 -268.87,180.01 -397.97,258.52 -16.22,9.86 -59.21,35.63 -76.15,37.04zm-11088.15 -1580.14c26.66,-39.81 42.46,-56.59 75.86,-87.14 10.96,-10.02 18.7,-18.82 29.43,-29.42 34,-33.6 79.29,-98.72 80.34,-146.04 25.08,13.27 63.66,45.63 88.66,65.28 86.92,68.31 255.83,258.84 340.34,343.34l296.52 273.97c12.21,10.85 14.51,14.62 28.68,25.63l228.89 192.18c202.27,161.12 384.53,304.9 601.53,448.88l127.68 80.6c44.91,27.03 88.86,53.42 134.98,77.82 -4.52,19.39 -24.78,53.94 -34.7,73.97 -13.38,27.01 -25.37,46.15 -39.26,73.93 -25.72,51.46 -49.31,101.5 -75.46,150.92l-135.62 -77.17c-75.18,-45.3 -251.79,-162.42 -320.4,-213.87 -21.96,-16.47 -41.42,-28.84 -63.41,-45.24l-243.75 -181.85c-21.16,-15.96 -39.25,-28.22 -59.43,-44.7 -121.08,-98.87 -232.15,-182.75 -355.97,-286.96 -10.72,-9.03 -19.49,-16.46 -29.66,-24.67l-368.5 -328.75c-37.32,-37.33 -71.34,-71.34 -108.66,-108.66 -62.8,-62.8 -147.66,-156.75 -198.09,-232.05zm-1657.11 -2567.16l117.19 -45.8c14.99,-5 26.11,-10.79 43.13,-15.73 31.03,-9 53.63,-16.23 83.63,-25.04 12.88,-3.79 27.64,-6.96 42.9,-11.43 16.82,-4.95 28.98,-10.23 48.2,-10.66 35.41,66.92 74.93,191.13 120.73,282.22 62.74,124.8 185.05,376.61 254.86,496.73l91.62 166.46c79.06,130.92 139.26,242.72 229.14,377.56 85.71,128.57 161.43,234.19 251.86,354.84 91.58,122.17 169.82,226.19 256.14,355.09 -60.2,28.88 -64.83,10.02 -161.71,82.79 -25.18,18.91 -44.14,34.46 -68.16,54.08 -17.55,14.34 -52.05,46.98 -73.48,48.76 -4.81,-17.99 -30.08,-48.39 -40.74,-63.4l-129.37 -183.03c-140.95,-186.93 -308.58,-413.66 -428.39,-612.96l-439.91 -818.78c-24.53,-48.33 -47.55,-90.52 -70.86,-137.41 -11.93,-24 -24.29,-43.9 -36.23,-67.9 -57.13,-114.9 -37.57,-79.27 -77.62,-184.98 -5.34,-14.09 -10.47,-22.3 -12.93,-41.41zm15049.82 2150.62c-85.56,-57.29 -107.38,-69.98 -188.27,-133.19 -28.76,-22.47 -55.81,-59.7 -110.56,-88.66 3.82,-14.3 28.06,-47.64 38.14,-61.48l130.01 -177.86c91.87,-114.85 216.02,-287.28 305.35,-410.02l81.53 -122.2c14.95,-22.84 27.22,-39.35 41.18,-62.97 13.65,-23.1 25.43,-40.91 39.62,-64.51 14.03,-23.32 25.64,-42.82 39.05,-65.09 50.31,-83.55 98.1,-173.51 143.1,-264.38 54.14,-109.36 137.73,-243.81 197.67,-363.76l54.38 -104.08c44.55,-89.02 134.32,-288.72 134.32,-381.83l101.38 29.92c34.29,11.29 62.89,22.59 97.26,34.04 53.74,17.91 143.65,49.23 213.38,49.23l-312.41 670.09c-81.61,163.21 -181.61,339.1 -275.33,494.36 -27.95,46.3 -53.58,89.51 -81.49,135.83 -14.26,23.64 -27.86,44.64 -41.35,67.32l-127.94 198.05c-30.47,45.73 -60.24,85.15 -91.46,130.39l-232.57 315.28c-35.43,43.04 -113.59,147.8 -154.99,175.52zm-15733.48 -5052.82c186.52,0 222.02,-36.22 375.79,-36.22 0,390.6 65.43,860.04 146.81,1229.58 48.4,219.85 105.27,479.38 167.16,693.08 33.13,114.39 83.01,271.96 138.79,377.37l-375.8 149.41c0,-46.92 -16.64,-112.04 -26.24,-150.34 -36.86,-147.03 -85.9,-272.08 -128.27,-410.51 -55.48,-181.27 -102.51,-373.36 -142.42,-572.94 -20.19,-100.98 -39.3,-199.57 -56.22,-301.47 -27.44,-165.24 -43.51,-303.89 -66.03,-468.22l-33.57 -509.74zm17281.93 2331.72l-195.34 -80.84c-67.99,-25.47 -142.11,-46.67 -216.68,-64.04 1.35,-16.27 16.88,-44.33 23.94,-62.09 9.17,-23.04 18,-43.22 25.34,-65.21 7.54,-22.6 15.43,-43.58 22.55,-63.48l62.09 -205.04c68.67,-243.53 117.55,-470.34 163,-719.89 9.54,-52.43 15.43,-102.75 23.88,-152.69 25.47,-150.52 43.6,-309.91 66.08,-463.65 9.95,-68.02 14.21,-134.54 15.94,-201.38 0.57,-21.73 3.64,-20.62 4.69,-40.6l40.73 -402.97 412.01 0c0,156.51 -1.13,286.05 -17.42,439.87l-14.4 162.17c-4.63,53.53 -12.11,106.97 -19.35,161.76 -53.85,407.82 -140.58,801.53 -246.73,1188.53 -26.33,96.02 -44.33,190.48 -75.07,282.6 -29.99,89.84 -75.26,192.71 -75.26,286.95zm-8362.52 5107.16c-70.31,0 -290.13,6.52 -350.54,-2.62 -49.12,-7.43 -123.14,-4.77 -174.81,-6.29 -23.66,-0.69 -30.78,-4.7 -58.77,-4.62 -34.81,0.09 -79.72,-7.37 -113.22,-9.03 -74.19,-3.66 -154.85,-12.72 -223.1,-21.39 -431.86,-54.84 -595.46,-86.69 -1028.22,-194.23 -438.96,-109.09 -870.08,-245.95 -1284.19,-427.26 -28.92,-12.65 -55.46,-24.79 -85.27,-36.97 -126.22,-51.57 -296.49,-138.29 -417.17,-198.59 -28.29,-14.13 -50.67,-27.64 -79.99,-42.26 -80.49,-40.11 -158.47,-87.29 -236.94,-129.79 -52.11,-28.22 -102.8,-60.36 -153.69,-90.8 -125.71,-75.21 -248.21,-158.21 -366.29,-244.95 -164.77,-121.03 -327.52,-244.88 -486.58,-373.66l-166.73 -136.62c-7.06,-5.7 -9.79,-9.15 -16.84,-14.85 -7.95,-6.42 -9.1,-6.18 -17.61,-14.09l-65.66 -56.58c-12.49,-11.9 -19.88,-15.57 -31.74,-27.12 -52.26,-50.88 -110.69,-94.45 -163.04,-144.84l-459.52 -459.59 -255.26 -297.11c-18.85,-23.15 -35.71,-44.64 -54.31,-67.93l-106.1 -138.39c-70.86,-94.53 -136.91,-186.92 -202.97,-286.02 -82.01,-123 -161.98,-246.47 -237.9,-373.33 -84.93,-141.91 -209.31,-353.14 -285.53,-506.81l-124.12 -242.61c-24.18,-40.39 -42.14,-85.49 -62.98,-127.17 -55.14,-110.29 -101.93,-221.86 -149.21,-339.78l-98.88 -267.86c-170.24,-510.96 -274.1,-936.14 -362.97,-1475.25l-43.56 -323.17c-31.57,-272.08 -50.18,-533.74 -50.18,-810.07 0,-85.14 4.57,-154.56 4.53,-239.96l26.86 -462.11c14.28,-187.81 39.16,-369.12 64.44,-551.32 24.27,-174.87 57.79,-346.36 97.09,-518.68 76.85,-336.94 168.09,-637.06 275.08,-951.9 40.53,-119.31 91.51,-239.83 138.01,-355.5 23.5,-58.47 47.96,-117.25 74.65,-174.37l329.02 -653.47c14.01,-27.13 28.4,-50.61 43.85,-78.39 7.61,-13.67 14.1,-23.08 22.13,-36.74 9.05,-15.39 14.1,-25.19 23.12,-40.26l238.68 -377.08c18.19,-27.28 34.02,-48.57 51.62,-75.15 8.79,-13.29 15,-22.22 24.23,-34.63l181.06 -249.06c18.09,-24.11 35.28,-45.34 53.05,-69.19l108.13 -136.37c60.5,-67.8 165.08,-206.82 226.39,-267.12 13.68,-13.46 17.32,-20.96 29.4,-33.99 12.06,-13.01 19.94,-18.78 30.61,-32.77 35.46,-46.46 80.44,-81.55 117.05,-127.45l531.08 -510.27 167.85 -144.55c22.52,-19.63 44.11,-37.53 66.94,-55.31l380.99 -293.62c13.09,-9.62 22.7,-17.64 36.42,-26.98l105.92 -75.18c158.89,-110.11 320.81,-213.81 487.15,-314.23 207.61,-125.34 436.32,-223.97 654.14,-332.88 218.39,-109.2 449.63,-206.8 689.14,-293.37 180.54,-65.25 371.98,-129.38 562,-176 65.46,-16.06 130.79,-33.83 198.3,-50.71 128.49,-32.14 265.74,-59.86 402.69,-86.3 401.03,-77.42 942.2,-134.64 1345.89,-134.64 73.34,0 367.28,-6.51 427.5,2.61 49.13,7.44 123.15,4.78 174.82,6.29l397.86 32.26c350.72,33.85 710.34,97.17 1049.96,181.55 445.11,110.59 706.96,212.82 1102.37,369.11l667.22 315.28c141.84,71.97 334.04,181.56 467.92,270.08l367.59 243.64c121.69,82.4 239.44,170.96 356.83,258.92 116.26,87.11 234.14,176 345.46,270.3 99.51,84.3 192.76,170.91 285.08,262.76l88.68 96.95c10.04,12.59 20.18,20.09 31.3,32.1 77.62,83.89 152.29,175.65 226.1,262.88l203.96 226.16c22.23,22.23 41.12,41.19 63.39,63.39 91.1,90.8 171.79,195.61 250.2,297.64l128.53 179.34c82.8,124.39 162.87,245.59 240.73,375.04 61.82,102.8 118.16,213.45 179.41,314.1l85.18 159.31c74.53,150.28 153.77,299.99 221.76,452.85 7.11,15.99 11.76,27.19 19.73,43.66l74.15 170.33c182.57,426.01 311.66,845.97 422.38,1298.13 16.05,65.55 29.54,132.18 43.34,201.15 14.02,70.08 26.51,136.54 38.11,206.38 11.62,69.98 22.12,137.86 33.72,210.77 16.83,105.73 31.58,224.46 38.88,332.39 1.27,18.79 2.96,31.74 4.71,54.14 8.79,113 21.99,233.49 22.14,349.13 0.03,27.2 4.55,32.83 4.86,58.52 0.5,40.55 -0.09,81.81 -0.19,122.44 -0.1,44.33 4.54,72.01 4.54,117.71 0,46.94 -4.59,75.94 -4.53,122.24 0.05,40.12 1.34,82.58 0.15,122.4 -0.7,23.18 -4.8,27.84 -4.83,54.03 -0.03,19.78 1.51,44.06 -0.08,63.3 -9.5,114.78 -14.45,227.99 -26.21,340.53l-23.36 221.13c-62.4,561.48 -208.59,1167.05 -387.67,1704.1 -50.92,152.72 -100.11,304.85 -159.52,451.7 -59.13,146.16 -113.4,294.86 -177.29,438.47 -6.04,13.59 -12.93,24.42 -19.36,39.5 -47.9,112.23 -129.19,254.34 -192.48,359.89 -16.44,27.41 -30.64,52.29 -47.07,79.7l-328.72 527c-9.28,13.93 -15.74,23.63 -25.33,38.07 -73.41,110.53 -150.85,217.38 -229.77,322.59 -17.75,23.67 -33.74,46.75 -52.63,69.61 -18.99,22.98 -35.1,44.52 -53.4,68.85 -18.43,24.52 -35.36,44.19 -54.92,67.33l-197.17 232.95c-12.03,13.55 -15.89,20.21 -29.54,33.85l-59.92 66.85c-30.27,39.66 -260.6,276.82 -302.26,313.5l-190.14 176.6c-71.26,72.92 -315.04,272.19 -398.95,339.05l-349.24 261.99c-143.98,102.18 -292.54,202.06 -445.15,292.85l-550.91 309.34c-54.33,27.16 -108.66,54.33 -162.99,81.49 -166.56,83.28 -337.81,157.83 -510.98,227.04 -116.87,46.7 -235.62,91.59 -357.75,135.75 -59.23,21.42 -121.12,40.34 -183.39,61.11 -455.07,151.73 -922.92,252.77 -1398.69,321.81 -277.76,40.3 -628.98,69.27 -917.74,69.27zm-8543.62 -8009.36c-116.81,-61.81 -267.81,-36.23 -412.02,-36.23l4.5 -289.79c-0.18,-34.48 4.83,-49.25 4.66,-81.37l52.27 -635.92c7.35,-53.1 12.91,-102.36 19.82,-152.24 31.87,-230.06 94.04,-486.46 141.03,-719.22 34.33,-170.03 78.13,-402.77 117.29,-570.9 117.18,0 221.01,68.51 301.67,92.23 27.53,8.1 79.58,20.27 110.35,20.96 -42.27,181.43 -97.67,350.28 -143.07,531.55 -45.69,182.38 -157.27,801.01 -169.2,1017.03l-22.67 488.96c0.13,31.57 -4.88,43.98 -4.69,76.8l0.06 258.14zm16530.34 -2558.11c0,-21.76 330.62,-110.87 412.02,-153.94 9.2,19.18 16.95,39.17 25.91,60.12 57.93,135.47 115.12,336.6 147.94,481.39 80.66,356 107.1,559.89 158.67,914.38 22.01,151.29 35.53,329.44 51.6,482.65l14.19 207.67c0.53,21.77 3.61,20.6 4.66,40.61l9.04 339.59c-142.27,0 -225.91,36.23 -412.01,36.23 0,-63.55 -19.22,-253.26 -22.68,-325.95 -0.94,-19.81 -3.53,-16.52 -4.48,-36.27 -0.8,-16.54 0.56,-26.77 -1.92,-43.36 -3.14,-20.95 -6.7,-64.37 -7.19,-83.37 -1.27,-49.8 -6.59,-117.07 -13.27,-163.3 -50.77,-351.03 -108.92,-699.32 -194.09,-1041.95 -12.19,-49.04 -23.3,-93.52 -33.68,-142.89 -19.46,-92.49 -134.71,-511.29 -134.71,-571.61zm-16000.61 -307.88c-111.9,-26.07 -306.7,-110.84 -412.02,-113.19 2.96,-35.51 34.44,-123.62 46.99,-161.29 37.59,-112.82 130.02,-342.21 182.41,-446.92l579.23 -1095.99c64.26,-95.89 310.93,-424.86 318.75,-518.86 93.74,21.84 314.43,170.97 375.79,262.6l-78.88 115.8c-76.95,106.37 -175.78,240.24 -242.37,350.75 -125.12,207.68 -212.33,335.88 -324.67,562.75 -74.75,150.96 -163.62,309.86 -232.49,464.76l-61.82 132.87c-11.64,24.23 -19.15,44.49 -30.22,69.38 -10.89,24.48 -20.3,47.04 -29.5,70.11l-54.5 144.72c-12.45,39.13 -36.7,115.87 -36.7,162.51zm14529.13 -2377c108.91,-72.93 169.25,-137.2 292.37,-210.2 67.46,-39.99 76.32,-31.61 119.65,-52.4 12.57,23.76 31.92,51.6 48.53,73.71l255.77 373.57c59.97,89.59 203.05,296.66 251.15,378.19l74.78 115.38c91.71,146.63 174.14,279.56 261.48,431.25 30.99,53.83 59.66,109.75 90.58,162.96l64.29 125.87c26,63.18 64.95,131.25 99.6,217.34 36.3,90.15 72.43,187.78 89.28,286.51 3.65,21.36 12.07,53.87 2.91,61.08l-38.02 11.32c-101.33,29.09 -304.32,135.29 -371.8,135.29 -0.68,-30.57 -37.93,-126.63 -50.45,-157.82 -9.61,-23.97 -20.47,-49.34 -30.92,-73.21 -10.43,-23.85 -20.53,-49.61 -31.75,-72.39 -22.97,-46.63 -44.92,-94.17 -67.98,-140.28 -23.98,-47.97 -48.75,-92.69 -72.41,-140.39 -69.77,-140.68 -222.74,-395.22 -304.82,-532.8 -141.99,-238.03 -331.43,-533.19 -497.88,-756.26 -30.68,-41.12 -61.95,-75.58 -93.22,-115.06l-91.14 -121.66zm-13053.13 -153.94c-16.47,-4.4 -9.75,-3.87 -21.74,-14.49l-185.39 -172.28c-7.43,-7.47 -12.55,-13.44 -20.58,-20.17l-85.75 -77.24c-9.57,-8.53 -10.98,-12.07 -21.58,-19.17 15.98,-30.21 70.86,-98.47 94.43,-127.42l103.69 -118.17c12.41,-12.2 14.36,-16.45 25.07,-29.26 36.19,-43.3 153.12,-156.26 194.57,-199.33l110.84 -111.01c38.06,-38.07 73.06,-72.71 110.89,-110.97 12.21,-12.35 16.45,-14.36 29.26,-25.06 10.2,-8.53 17.85,-17.44 27.37,-26.97l115.66 -110.72c12.8,-10.7 17.05,-12.72 29.27,-25.07 10.05,-10.18 18.74,-20.2 29.58,-29.27l117.48 -104.37c44.58,-39.38 70.03,-65.44 118.54,-103.32 114.7,-89.55 264.08,-193.29 385.53,-284.56 43.86,-32.96 83.75,-61.66 127.41,-94.43 43.37,-32.55 84.11,-62.72 127.37,-94.5 22.89,-16.81 42.37,-30.54 65.38,-47.81 22.74,-17.07 41.91,-33.48 66.62,-46.56 16.72,31.59 41.95,65.19 62.48,95.98 44.02,66.01 153.15,241.21 159.37,316.03 -23.33,12.35 -42.78,24.35 -66.51,37.62 -24.62,13.75 -43.03,25.98 -65,39.13 -76.55,45.84 -177.02,114.68 -248.17,168.38 -40.35,30.45 -78.48,58.99 -119.01,89.26l-566.4 479.48 -292.12 282.89c-51.02,55.16 -160.14,167.6 -199.62,216.93 -9.05,11.31 -16.33,16.01 -25.92,28.4 -24.78,31.98 -174.21,205.06 -183.02,238.05zm11051.93 -2182.31c95.47,22.24 223.93,99.11 301.44,146.79 48.41,29.78 90.31,58.66 136.84,89.54 12.41,8.24 20.33,13.84 31.9,22.43l101 71.05c144.82,106.37 305.66,231.16 444.4,347.93 10.76,9.05 19.46,16.41 29.66,24.68l422.75 369.58c12.37,12.24 19.57,15.15 31.87,26.99l174.22 165.34c38.84,38.84 74.3,74.43 113.19,113.2l160.77 178.8c17.82,19.95 34.11,42.86 48.64,64.55l-164.1 170.96c-8.5,9.65 -9.05,12.89 -18.08,22.66 -7.22,7.8 -12.78,12.67 -20.43,20.32l-127.91 130.16 -93.86 -118.94c-10.39,-10.75 -16.95,-15.52 -26.47,-27.85l-245.18 -239.27c-37.7,-36.29 -63.79,-55.32 -108.81,-103.99 -10.72,-11.59 -13.1,-17.79 -24.76,-29.58l-279.03 -259.75c-11.24,-9.1 -18.22,-15.55 -29.73,-24.6l-208.96 -166.84c-230.11,-179.66 -476.73,-362.63 -728.24,-512.33 -81.51,-48.5 -91.52,-42.95 -147.51,-69.82l83.01 -152.43c6.42,-12.03 8.68,-13.62 15.1,-25.65l42.05 -75.67c25.42,-43.78 64.65,-126.04 86.23,-158.26zm-8833.4 298.82l-86.02 -149.41c-9.52,-19.36 -18.4,-32.02 -28.69,-52.81l-78.46 -156.97c-10.36,-20.78 -18.97,-34.48 -28.67,-52.82l620.35 -294.23c14.32,-7.06 26.66,-13.51 42.13,-21.25 102.49,-51.28 229.08,-105.28 332.08,-156.9 133.89,-67.11 205.51,-89.5 343.66,-145.33 60.11,-24.29 119.64,-42.48 178.52,-65.96 83.76,-33.4 184.92,-63.9 273.42,-93.33 72.3,-24.04 524.88,-159.9 570.92,-163.48 23.52,-1.82 14.82,24.42 26.25,92.53 16.05,95.65 39.91,205.94 67.17,299.57 8.86,30.44 18.12,63.92 31.16,91.09 -19.83,0 -66.33,3.88 -88.04,7.03 -105.39,15.29 -137.57,19.94 -247.01,47.3 -140.54,35.13 -309.27,90.35 -445.61,142.97 -147.03,56.74 -272.87,102.13 -420.71,167.89 -46.9,20.86 -89.69,37.34 -135.8,58.88 -23.36,10.92 -43.93,18.75 -66.33,28.75l-133.27 61.42c-163.27,67.37 -429.1,206.91 -594.22,288.67 -23.96,11.87 -42.52,21.24 -66.42,33.19 -12.81,6.4 -20.75,9.79 -33.21,16.59 -13.28,7.24 -17.8,13.03 -33.2,16.61zm5885.92 -1466.95l74.09 25.51c89.72,29.29 309.01,77.06 406.21,96.36 165.74,32.92 319.68,78 481.18,125.52 331.72,97.6 784.34,280.59 1099.88,416.87l211.44 96.44c22.35,11.05 45.64,20.38 67.96,31.65 12.66,6.4 19.04,9.11 34.32,15.48 15.67,6.53 22.24,12.49 38.14,16.2 0,103.83 -136.23,272.52 -175.96,385.46 -4.1,11.66 -4.95,21.22 -9.67,31.08 -24.59,-2.05 -66.83,-19.07 -86.71,-26.48 -190.69,-71.07 -386.05,-154.42 -575.63,-230.3 -111.84,-44.75 -219.57,-85.21 -332.42,-129.39 -181.81,-71.17 -364.61,-130.89 -550.82,-191.72 -207.07,-67.64 -484.98,-137.29 -701.99,-167.31 -106.05,-14.66 -97.77,25.28 -71.82,-125.35 11.59,-67.3 24.27,-127.16 40.18,-190.73 8.04,-32.14 15.66,-61.74 23.46,-89.73 6.58,-23.6 26.71,-72.22 28.16,-89.56zm-3124.06 27.17c0,-56.14 79.95,-63.09 133.2,-70.54 59.6,-8.33 126.29,-14.78 184.12,-19.62 124.63,-10.43 249.93,-26.63 371.69,-40.33 222.15,-24.98 559.87,-50.62 786.99,-50.62 187.04,0 354.57,22.39 517.51,43.91 185.39,24.5 361.84,33.06 564.59,33.06 0,116.71 -1.55,213.32 -13.91,325.67 -19.88,180.69 -128.54,162.83 -284.91,145.2 -34.37,-3.87 -72.64,-8.14 -104.93,-12.78 -34.61,-4.98 -64.65,-7.49 -100.76,-12.44l-265.04 -24.72c-22.18,-0.61 -35.15,0.74 -56.39,-2.48 -35.51,-5.37 -222.44,-6.44 -274.27,-6.44 -306.41,0 -720.45,46.74 -1040.54,82.31 -80.69,8.97 -268.41,30.89 -344.91,30.89 0,-29.11 -8.87,-81.84 -12.79,-109.47 -11.89,-84.03 -59.65,-275.59 -59.65,-311.6z"/>
   <path class="fil0" d="M6847.79 10597.14l-665.56 0 0 -738 679.14 0c34.26,0 67.48,15.3 82.39,35.33 17.63,23.67 21.75,56.07 21.75,95.96l0 479.93c0,85.64 -32.32,126.78 -117.72,126.78zm36.22 -1480.54l-701.78 0 0 -733.47 683.67 0c35.35,0 62.38,14.71 77.85,35.34 17.62,23.5 21.76,56.2 21.76,95.96l0 470.87c0,28.42 -3.89,71.31 -15.33,88.81 -10.7,16.37 -41.97,42.49 -66.17,42.49zm-1444.31 2218.54l1525.81 0c166.12,0 375.5,-78.96 490.04,-193.62 11.26,-11.27 15.96,-12.76 27.21,-22.61 18.31,-16.02 26.14,-30.47 43.06,-47.48 14.31,-14.38 28.16,-33.16 40.63,-49.93 82.08,-110.38 137.06,-268.8 137.06,-415.31l0 -534.26c0,-129.07 -51.16,-257.06 -100.43,-338.75 -51.77,-85.83 -131.72,-170.89 -221.03,-218.14l0 -54.34c28.79,-6.7 104.35,-70.24 125.69,-91.63 111.14,-111.39 195.77,-292.16 195.77,-469.79l0 -529.73c0,-104.13 -38.26,-231.05 -73.95,-301.85 -50.51,-100.23 -83.87,-143.03 -160.35,-219.96 -136.17,-136.97 -346,-207.14 -553.5,-207.14l-1476.01 0 0 3694.54z"/>
   <path class="fil0" d="M11139.98 11335.14l2272.86 0 0 -738 -1530.34 0 0 -738 1439.79 0 0 -728.95c0,-10.44 -3.15,-13.59 -13.58,-13.59l-1426.21 0 0 -733.47 1530.34 0 0 -742.53 -2272.86 0 0 3694.54z"/>
   <path class="fil0" d="M8283.04 8346.91l0 2281.92c0,113.16 32.93,224.61 67.98,303.29 49.01,110.03 118.75,183.81 202.62,259.2 115.04,103.41 315.92,170.99 480.99,170.99l787.8 0c214.47,0 395.94,-91.13 535.4,-229.78 61.11,-60.75 116.78,-146.05 151.55,-233.3 70.17,-176.05 55.59,-385.69 55.59,-582.81l-747.06 0c-21.96,0 -13.58,42.72 -13.58,86.03 0,58.47 9.26,152.77 -16.83,182.39 -15.98,18.15 -37.14,34.93 -69.2,34.93l-593.11 0c-52.7,0 -81.5,-41.67 -81.5,-95.08l0 -2064.59c0,-71.23 32.91,-104.14 104.13,-104.14l556.9 0c123.47,0 99.61,113.41 99.61,212.8 0,43.66 -8.61,95.08 13.58,95.08l733.47 0c10.44,0 13.59,-3.15 13.59,-13.58 0,-194.6 14.7,-415.15 -61.83,-585.63 -80.43,-179.19 -221.59,-324.51 -409.64,-396.27 -99.63,-38.02 -211.45,-54.93 -348.03,-54.93l-633.87 0c-126.58,0 -249.24,13.88 -339.57,49.8 -10.49,4.17 -21.54,7.34 -33.06,12.22 -13.98,5.94 -19.62,9.67 -34.25,15.55 -38.28,15.39 -114.92,65.74 -149.01,95.49 -11.08,9.67 -16.11,11.77 -27.13,22.67 -33.99,33.64 -64.24,62.18 -94.22,100.48 -87.14,111.34 -151.32,279.07 -151.32,437.27z"/>
  </g>
 </g>
</svg>
