<?xml version="1.0" encoding="UTF-8"?>
<!DOCTYPE svg PUBLIC "-//W3C//DTD SVG 1.1//EN" "http://www.w3.org/Graphics/SVG/1.1/DTD/svg11.dtd">
<!-- Creator: CorelDRAW 2020 (64-Bit) -->
<svg xmlns="http://www.w3.org/2000/svg" xml:space="preserve" width="188.666mm" height="188.666mm" version="1.1" style="shape-rendering:geometricPrecision; text-rendering:geometricPrecision; image-rendering:optimizeQuality; fill-rule:evenodd; clip-rule:evenodd"
viewBox="0 0 18866.6 18866.6"
 xmlns:xlink="http://www.w3.org/1999/xlink"
 xmlns:xodm="http://www.corel.com/coreldraw/odm/2003">
 <defs>
  <style type="text/css">
   <![CDATA[
    .fil1 {fill:#ABABAB}
    .fil2 {fill:#E3E3E3}
    .fil0 {fill:#FEFEFE}
   ]]>
  </style>
 </defs>
 <g id="Слой_x0020_1">
  <metadata id="CorelCorpID_0Corel-Layer"/>
  <g id="_2853757239616">
   <path class="fil0" d="M8152.78 17872.34c416.71,97.08 1472.65,123.73 1959.34,72.68 130.56,-13.7 304.2,-42.78 436.72,-53.81 22.76,97.69 73.09,270.68 75.47,377.33 -395.55,32.92 -478.22,75.47 -924.47,75.47 -491.22,0 -1134.42,10.59 -1584.79,-94.34 8.62,-103.54 29.11,-273.78 37.73,-377.33zm5188.32 -848.99c17.48,75.04 34.74,110.73 68.76,176.5 38.38,74.25 75.03,96.16 82.17,181.96l-289.53 125.53c-640.61,307.99 -1176,475.59 -1872.73,636.54 -273.87,63.27 -224.98,59.69 -247.87,-87.42 -47.28,-303.81 -61.91,-244.06 60.77,-268.6 124.48,-24.9 219.28,-48.12 338.21,-77.75 559.15,-139.34 1042.59,-316.78 1551.82,-561.24l308.4 -125.52zm-7923.98 -37.74c74.27,17.3 183.5,82.32 257.85,119.49 401.08,200.55 925.62,404.74 1360.56,526.1 89.79,25.05 192.91,53.22 294.96,82.37 72.78,20.79 242.3,62.87 312.89,64.44 -1.11,49.98 -73.47,342.16 -90.69,357.49 -18.17,16.16 -15.87,14.22 -75.9,1.99 -42.7,-8.69 -46.11,-11.25 -93.87,-23.42 -641.84,-163.59 -1275.76,-367.84 -1865.4,-662.86 -109.63,-54.85 -213.73,-100.66 -307.93,-163.73 40.68,-76.88 143.92,-259.27 207.53,-301.87zm8565.44 94.33c-29.28,-125.68 -159.38,-213.91 -188.66,-339.6 239.52,-126.73 787.02,-528.87 994.1,-703.88l447.72 -401.28c181.44,-140.1 339.19,-364.92 425.97,-423.03 162.84,86.16 214.9,203.18 301.86,226.4 -9.9,118.94 -122.47,188.5 -193.38,259.41l-349.18 330.02c-45.54,46.33 -68.66,71.05 -117.76,108.64 -291.12,222.9 -386.51,335.93 -762.37,596.02 -96.83,67.01 -445.65,321.06 -558.3,347.3zm-11112.43 -1603.66c34.37,-51.32 198.3,-238.91 264.13,-283 67.83,101.29 307.56,316.99 410.35,419.78 236.84,236.84 1174.7,1024.13 1419.72,1089.55 -60.01,125.06 -83.97,211.42 -169.8,339.6 -80.52,-21.5 -447.37,-274.8 -531.21,-336.65 -314.2,-231.81 -1193.98,-931.79 -1393.19,-1229.28zm13433.02 -396.19c-66.86,-35.39 -106.83,-70.91 -167.24,-115.76 -62.59,-46.47 -97.7,-92.16 -153.49,-129.51 52.59,-78.54 116.3,-155.05 177.88,-237.19 208.23,-277.81 323.79,-446.11 509.57,-754.49 107.15,-177.85 201.86,-353 293.61,-536.52l196.77 -425.82c22.54,-54.07 45.15,-112.75 67.36,-159.04 156.77,82.94 321.6,120.34 415.07,169.8 -45.65,86.27 -95.83,203.37 -134.71,299.22 -159.9,394.25 -947.49,1716.99 -1204.82,1889.31zm-15093.28 -2188.53c111.41,-25.96 261.37,-110.2 396.2,-113.2 70.73,303.61 655.09,1298.07 851.87,1563.05l336.73 474.54 -301.87 207.53c-121.89,-81.62 -587.65,-794.7 -706.31,-991.67 -160.58,-266.55 -306.52,-557.28 -444.83,-838.11 -47.26,-95.95 -85.16,-204.95 -131.79,-302.14zm-679.19 -2905.46c91.76,0 98.13,-11 171.43,-17.23 55.71,-4.74 165.88,-22.03 189.95,-21.44 92.51,2.23 75.08,40.15 73.76,131.78 -1.39,97.27 7.03,123.76 14.46,193.09 75.2,701.96 134.64,1034.75 326.15,1692.57 22.96,78.88 85.78,246.96 92.11,322.95 -89.27,47.24 -252.87,126.34 -358.47,150.94 -181.82,-343.63 -379.72,-1354 -439.59,-1767.8 -25.93,-179.24 -69.8,-482.31 -69.8,-684.86zm17319.53 2358.33c-68.61,-5.71 -278.54,-95.87 -433.93,-132.07l166.07 -550.87c94.01,-379.81 191.24,-831.08 228.41,-1224.31 9.86,-104.35 12.63,-222.38 28.57,-329.89 9.43,-63.6 -11.29,-328.72 48.62,-328.72 171.57,0 265.55,18.87 433.93,18.87 0,688.32 -133.74,1332.19 -294.11,1969.88l-177.56 577.11zm-16395.07 -2811.13c0,-311.57 31.52,-638.7 56.07,-924.99 74.98,-874.72 405.9,-1885.57 792.93,-2659.66 214.8,-429.62 463.89,-826.21 751.94,-1210.18l328.18 -407.62c381.65,-400.74 411.71,-479.73 868.78,-866.95 412.88,-349.77 700.9,-542.49 1148.65,-813.47 390.85,-236.55 914.36,-470.06 1352.56,-628.43 1480.39,-535.04 2968.34,-568.52 4503.56,-234.91 708.92,154.05 1743.4,583.18 2385.34,1010.64 412.65,274.78 579.46,390.71 975.31,722.69l614.4 593.06c87.88,90.98 121.7,176.31 210.06,280.48 63.06,74.32 61.45,26.51 229.67,241.99 154.03,197.29 471.93,654.78 586.42,866.31 376.39,695.32 503.55,955.1 739.85,1693.94 39.94,124.87 75.08,249.6 108.25,382.29 400.63,1602.89 292.22,3467.43 -369.5,4974l-221.4 495.53c-103.54,245.12 -497.56,858.36 -646.86,1070 -227.22,322.13 -721.62,916.38 -1014.35,1174.17 -402.17,354.15 -511.86,432.55 -953.21,763.66 -311.72,233.85 -911.82,547.99 -1258.44,703.68 -1343.28,603.38 -2652.29,804.86 -4204.29,637.87 -281.99,-30.34 -565.89,-94.06 -831.87,-149.2 -252.47,-52.33 -521.98,-137.38 -763.32,-217.74l-716.31 -283.62c-485.55,-235.04 -550.75,-272.05 -956.6,-515 -695.04,-416.09 -1197.29,-907.49 -1739.39,-1486.79 -50.22,-53.66 -66.73,-73.96 -114.48,-130.79 -81.18,-96.61 -142.71,-172.52 -217.84,-272.69 -277.03,-369.38 -349.18,-488.28 -595.83,-894.64 -131.74,-217.06 -223.97,-426.82 -337.85,-662.07l-146.83 -343.7c-43.6,-120.13 -88.95,-228.57 -132.08,-358.46 -79.87,-240.54 -167.47,-512.38 -222.45,-777.48 -54.97,-265.09 -155.58,-778.48 -170.79,-1055.54 -13.92,-253.68 -38.28,-442.79 -38.28,-716.38zm-509.4 -188.66l0 94.33 -433.93 -18.87c0,-681.9 109.11,-1573.02 286.87,-2222.39 21.79,-79.61 55.66,-214.33 90.46,-286.86 59.55,28.57 143.73,49.66 207.74,75.25 69.28,27.71 129.39,57.52 207.33,75.68 -39.78,170.72 -96.74,333.49 -139.6,520.73 -117.75,514.4 -218.87,1226.79 -218.87,1762.13zm16489.41 -2490.4c87.65,-7.29 317.74,-115.06 471.66,-150.93l162.24 573.56c53.9,215.64 88.19,393.59 131.69,622.97 64.69,340.99 140,1008.14 140,1369.33 -79.37,18.49 -87.63,17.85 -188.96,18.56 -201.9,1.42 -296.76,92.65 -303.96,-72.76 -3.11,-71.38 6.44,-155.26 2.48,-228.89 -27.93,-519.52 -130.03,-990.38 -228,-1469.99l-187.15 -661.85zm-15961.14 -264.12l-433.94 -132.07c22.41,-269.23 504.19,-1175.96 666.15,-1465.78 147.67,-264.25 253.48,-415.15 416.71,-658.69 33.1,-49.38 73.05,-87.78 86.87,-139.52 106.58,28.45 261.89,228.27 396.2,264.13 -47.18,89.17 -100.77,150.48 -158.53,237.67 -59.65,90.04 -107.14,161.28 -166.03,249.03 -195.29,291.01 -784.61,1371 -807.43,1645.23zm14508.41 -2396.06l396.2 -301.87c80.69,54.03 318.73,392.53 388.76,497.97 249.11,375.09 564.65,880.43 732.33,1286.39 57.89,140.15 160.36,311.33 199.57,479.63 -70.89,34.02 -394.65,163.39 -471.67,169.8 -7.76,-93.29 -201.82,-479.12 -251.55,-578.58 -299.24,-598.48 -506.22,-907.15 -893.86,-1426.72 -36.44,-48.84 -71.4,-84.24 -99.78,-126.62zm-13036.82 -132.07c-81.68,-54.7 -271.44,-278.63 -358.46,-301.87 17.56,-75.4 134.94,-196.82 193.14,-259.65l1181.51 -1101.34c87.81,-70.14 169.59,-122.68 261.43,-191.38 48.73,-36.44 83.71,-57.81 132.04,-94.35 53.14,-40.18 85.55,-72.53 156.27,-89 17.89,67.01 80.47,136.32 119.29,201.43 41.07,68.91 88.33,133.04 107.1,213.63l-237.68 177.38c-328.78,226.89 -452.59,362.23 -716.55,566.38l-437.41 411.59c-42.37,45.8 -48.93,67.29 -93.72,113.81 -62.24,64.67 -289.15,286.66 -306.96,353.37zm11055.83 -2245.12c87.46,7.27 218.99,114.51 290.56,162.23 101.3,67.54 183.14,119.4 283.14,188.52 93.68,64.74 170.1,127.12 259.16,193.64l1204.73 1115.86c-41.54,62.04 -297.04,318.16 -377.33,339.6 -37.97,-27.82 -57.45,-66.76 -98.72,-108.81 -38.35,-39.09 -65.11,-64.45 -104.1,-103.43l-679.05 -622.75c-141.96,-126.47 -884.78,-679.71 -1023.66,-712.07 20.64,-77.31 223.84,-372.54 245.27,-452.79zm-8848.44 358.46l-226.4 -433.93c70.6,-18.85 191.82,-105.72 270.2,-144.87 53.7,-26.83 86.16,-40.54 138.67,-68.86 396.18,-213.69 903.56,-436.48 1341.56,-563.97 101.26,-29.48 202.35,-63.23 318.33,-96.73 99.36,-28.7 247.52,-79.56 346.17,-87.77 6.42,77.22 28.91,173.29 45.53,256.34 17.01,85.05 47.04,174.19 48.8,253.06 -103.89,8.64 -503.78,130.3 -625,167.4 -456.33,139.66 -1087.12,414.34 -1512.8,656.85 -56.26,32.05 -68.26,56.09 -145.06,62.48zm5867.51 -1490.46c434.71,0 1785.36,486.37 2207.4,698.06 71.85,36.03 206.7,114.29 283,132.07l-245.27 471.67c-619,-327.54 -1313.77,-570.17 -2007.23,-728.44 -94.62,-21.59 -238.15,-61.87 -332.23,-63.96 0,-180.3 90.85,-352.71 94.33,-509.4zm-3037.52 490.53c-49.72,-597.47 -260.98,-491.08 279.64,-569.36 581.09,-84.14 1498.93,-104.71 2109.57,-27.27 159.04,20.17 142.98,-57.39 99.73,349.91 -26.52,249.84 11.8,187.77 -303.27,155.25 -255.87,-26.42 -254.23,-18.11 -488.42,-20.98 -257.67,-3.15 -93.3,-34.64 -490.77,-1.74 -83.2,6.89 -179.15,-2.15 -263.76,0.37 -201.85,6.03 -759.12,71.04 -942.72,113.82zm-7980.57 8056.04c0,910.13 49,1568.84 263.91,2452.88 113.88,468.46 385.59,1286.8 610.35,1729.11 130.97,257.75 237.7,493.65 390.62,760.24 199.13,347.15 468.91,730.2 707.85,1046.74 53.67,71.1 77.34,89.06 118.26,164.75l329.56 406.23c120.1,86.19 -2.28,-33.79 149.84,133.15 564.12,619.05 1506.13,1333.6 2215.72,1727.41 258.07,143.23 507.07,268.26 779.22,390.51 2137.69,960.32 4552.15,1101.4 6846.49,336.88 1102.53,-367.39 2293.83,-1017.21 3157.66,-1785.39l160.78 -141.08c51.9,-48 87.84,-95.53 142.12,-140.89 68.92,-57.61 95.86,-78.48 159.52,-142.34 51.65,-51.83 89.5,-89.95 141.58,-141.43 59.41,-58.72 79.12,-94.36 131.74,-151.25 48,-51.89 95.52,-87.83 140.89,-142.11l401.77 -484.96c87,-111.38 162.34,-216.85 250.76,-334.11l459.69 -710.03c73.77,-135.41 137.29,-236.07 207.72,-377.15 68.12,-136.45 128.98,-259.01 195.02,-389.83 510.99,-1012.11 886.66,-2620.77 886.66,-3773.4 0,-972.95 -43.35,-1564.79 -267.74,-2467.92 -347,-1396.62 -874.57,-2420.3 -1707.81,-3537.1 -194.54,-260.75 -578.96,-688.27 -821.25,-933.34 -57.89,-58.54 -95.42,-77.56 -151.48,-131.52l-291.84 -274.16c-38.57,-37.56 -45.74,-37.79 -83.04,-67.89 -33.35,-26.92 -43.63,-40.77 -80.79,-70.15l-1018.79 -735.8c-66.73,-40.67 -109.86,-72.24 -174.75,-108.25 -344.65,-191.26 -586.98,-332.74 -968.4,-503.19 -2163.1,-966.65 -4583.97,-1091.18 -6845.93,-337.45 -282.04,93.99 -579.36,200.58 -845.18,324.55 -1026.1,478.49 -1447.07,766.8 -2310.71,1462.61 -33.12,26.69 -45.09,44.46 -78.35,72.59 -37.56,31.77 -45.87,31.27 -84.2,66.72l-856.29 879.45c-691.58,861.19 -1103.68,1464.12 -1555.15,2538.89 -414.67,987.14 -706.03,2302.97 -706.03,3388.03z"/>
   <path class="fil0" d="M6737.79 9495.57l-431.6 1379.6c-26.76,79.27 -42.71,147.97 -70.48,231.39 -26.22,78.75 -61.97,150.1 -63.92,237.94l811.26 0c67.32,-288.97 419.78,-1282.67 433.94,-1452.73l396.19 0 0 1396.13c0,43.47 13.13,56.6 56.6,56.6l735.8 0 0 -1452.73 396.2 0c28.68,123.12 78.03,249.59 109.2,362.46 48.55,175.73 317.01,997.49 324.73,1090.27l830.13 0 -502.6 -1610.46c-89.14,-302.96 -119.42,-127.74 61.77,-679.3 58.64,-178.48 419.92,-1316.49 421.96,-1408.1l-754.66 0c-72.4,0 -109.49,209.78 -144.13,327.54l-292.14 934.19c-18.49,54.62 -48.61,123.1 -54.26,191l-396.2 0 0 -1433.86 -792.4 0 0 1433.86 -396.19 0 -101.22 -370.45c-60.93,-186.53 -296.47,-978.12 -351.59,-1082.28l-792.39 0c7.66,92.1 104.09,351.97 136.05,467.68l285.89 921.57c20.13,61.61 144.06,432.18 144.06,459.68z"/>
   <path class="fil0" d="M4379.46 8401.31l396.2 0 0 2188.52 -754.66 0 297.13 -2080.06c7.73,-63.29 -6.25,-108.46 61.33,-108.46zm-1150.86 2188.52l-245.27 0 0 754.67 2980.93 0 0 -754.67 -396.2 0 0 -2924.32 -1924.4 0 -206.45 1453.81c-33.05,241.86 -69.19,473.4 -106.11,724.02l-102.5 746.49z"/>
   <path class="fil0" d="M10699.77 11344.5l773.53 0 363.76 -975.77c35.09,-87.24 333.71,-925.59 390.91,-967.49l-0.16 1735.89c-2.51,264.74 -104.17,207.37 698.22,207.37 43.48,0 56.6,-13.13 56.6,-56.6l0 -3565.79c0,-91.52 -177.99,-56.6 -358.47,-56.6 -144.64,0 -289.28,0 -433.92,0l-539.17 1441.83c-34.43,90.49 -172.11,433.51 -177.77,501.43l-37.73 -1943.26 -735.8 0 0 3678.99z"/>
   <path class="fil0" d="M14435.36 9144.12c-25.8,-25.66 -14.18,-1.85 -28.65,-45.3 -6.88,-20.7 -3.85,-14.27 -6.54,-36 -13.93,-112.21 22.5,-1153.65 -2.54,-1388.85l-742.81 -2.03 0 3648.77 761.67 1.53 17.97 -54.27c2.97,-21.55 1.82,-68.89 1.59,-92.46 -0.62,-63.22 -0.69,-126.25 -0.69,-189.48l0 -1113.13 679.2 0 0 1471.6 792.39 0 0 -3678.99 -792.39 0 0 1471.6c-75.6,-36.28 -232.69,-18.87 -339.6,-18.87 -105,0 -268.51,-23.41 -339.6,25.88z"/>
   <path class="fil1" d="M14416.49 11322.24l-761.67 -1.53 0 -3648.77 742.81 2.03c25.04,235.2 -11.39,1276.64 2.54,1388.85 2.69,21.73 -0.34,15.3 6.54,36 14.47,43.45 2.85,19.64 28.65,45.3l0 -1478.61 -792.4 0 0 3678.99 584.9 0.03c29.92,0.16 67.07,2.38 95.68,1.6 82.83,-2.26 68.57,-5.64 92.95,-23.89z"/>
   <path class="fil2" d="M7643.38 11193.56c19.38,19.38 68.24,-27.14 21.89,-10.17 -0.46,0.16 -53.55,-21.49 -21.89,10.17z"/>
   <path class="fil0" d="M8681.05 8325.84l5.63 -5.62c-0.38,0.36 -7.51,3.74 -5.63,5.62z"/>
   <path class="fil0" d="M5492.59 12457.62l5.63 -5.62c-0.37,0.37 -7.5,3.75 -5.63,5.62z"/>
  </g>
 </g>
</svg>
